<svg id="Capa_1" enable-background="new 0 0 497 497" height="512" viewBox="0 0 497 497" width="512" xmlns="http://www.w3.org/2000/svg"><g><path d="m492.88 284.286-59.23 51.73v-81.02h52.14c2.93 9.62 5.3 19.39 7.09 29.29z" fill="#fff89c"/><path d="m456.62 261.996-445.41-7c-2.93 9.62-5.3 19.39-7.09 29.29l209.941 128.048c17.982 21.378 50.893 21.378 68.875-.001l180.714-121.317c-1.7-9.77-4.04-19.45-7.03-29.02z" fill="#ffffdb"/><path d="m449.302 178.804-26.412-39.26c-8.69-12.92-12.02-28.71-9.28-44.04l15.476-86.682c.821-4.597-2.714-8.818-7.383-8.818h-21.523l-151.68 130.995 208.109 130.995c9.76-2.18 19.485-4.51 29.185-7-8.11-26.7-20.452-52.23-36.492-76.19z" fill="#ffd1bd"/><path d="m397.999 156.284 26.37 39.21c14.36 21.45 25.12 43.67 32.24 66.5-68.47 15.31-138.28 23-208.11 23-79.78 0-159.54-10.04-237.29-30 8.11-26.7 20.45-52.23 36.49-76.19l26.41-39.26c8.69-12.92 12.02-28.71 9.28-44.04l-15.476-86.682c-.821-4.597 2.714-8.818 7.383-8.818h324.882l-16.11 90.22c-4.119 23.12.821 46.58 13.931 66.06z" fill="#ffe4d9"/><path d="m492.88 284.286-29.23 6.73-70.767 102.99 53.397 102.99h23.952c3.644 0 6.76-2.612 7.387-6.202 4.251-24.326 19.381-114.178 19.381-160.798 0-15.49-1.4-30.75-4.12-45.71z" fill="#ffd1bd"/><path d="m219.418 418.703-49.788-59.197c-25.15-29.89-59.33-50.8-97.41-59.55l-68.1-15.67 199.38 212.71h22.5c4.142 0 7.5-3.358 7.5-7.5v-32.173c0-14.129-4.987-27.806-14.082-38.62z" fill="#ffd1bd"/><path d="m191.26 418.703-43.277-59.197c-21.861-29.89-51.57-50.8-84.67-59.55l-59.193-15.67c-2.72 14.96-4.12 30.22-4.12 45.71 0 46.62 15.13 136.472 19.381 160.798.627 3.59 3.743 6.202 7.387 6.202h176.732v-39.673c0-14.129-4.334-27.806-12.24-38.62z" fill="#ffe4d9"/><path d="m463.65 291.016-38.87 8.94c-38.07 8.75-72.26 29.66-97.41 59.55l-49.788 59.197c-9.095 10.814-14.082 24.49-14.082 38.62v32.173c0 4.142 3.358 7.5 7.5 7.5h175.28c1.37-8.31 3.9-23.67 4.94-30 5.87-35.57 15.78-100.95 15.78-137 0-13.14-1.12-26.14-3.35-38.98z" fill="#ffe4d9"/><circle cx="248.5" cy="172.496" fill="#ffa18c" r="82.5"/><circle cx="248.5" cy="172.496" fill="#ff8178" r="52.5"/><circle cx="248.5" cy="172.496" fill="#fc424b" r="22.5"/></g></svg>