<svg id="Capa_1" enable-background="new 0 0 512 512" height="512" viewBox="0 0 512 512" width="512" xmlns="http://www.w3.org/2000/svg"><g><g><path d="m150.943 62.049c-79.221 0-143.443 64.221-143.443 143.443s64.222 143.443 143.443 143.443 143.443-64.222 143.443-143.443-64.221-143.443-143.443-143.443zm0 214.154c-39.053 0-70.711-31.659-70.711-70.711s31.659-70.711 70.711-70.711 70.711 31.659 70.711 70.711-31.658 70.711-70.711 70.711z" fill="#ffbd86"/><path d="m294.386 205.492c0-24.887-6.341-48.291-17.49-68.691h-65.343c-8.211 0-15.264 4.907-18.424 11.941 17.311 12.889 28.525 33.509 28.525 56.75 0 24.025-11.992 45.237-30.305 58.016v79.648c59.547-17.451 103.037-72.475 103.037-137.664z" fill="#f6a96c"/><path d="m150.943 62.049c-79.221 0-143.443 64.221-143.443 143.443h10.987c8.682 0 15.72 7.038 15.72 15.72v10.545c0 8.368 6.784 15.152 15.152 15.152 8.368 0 15.152-6.784 15.152-15.152v-10.545c0-8.682 7.038-15.72 15.72-15.72 0-39.053 31.659-70.711 70.711-70.711s70.711 31.659 70.711 70.711h72.732c.001-79.222-64.22-143.443-143.442-143.443z" fill="#62dbfb"/><path d="m221.654 205.492h72.732c0-24.887-6.341-48.291-17.49-68.691h-65.343c-8.211 0-15.264 4.907-18.424 11.941 17.311 12.889 28.525 33.509 28.525 56.75z" fill="#01d0fb"/><g><path d="m363.077 136.801c0 22.316-18.091 30.305-40.407 30.305s-40.406-7.989-40.406-30.305 18.091-60.61 40.406-60.61c22.317 0 40.407 38.294 40.407 60.61z" fill="#fd4755"/><path d="m327.788 76.885c-1.269 1.862-2.504 3.797-3.698 5.815-10.053 16.998-16.055 37.222-16.055 54.101 0 11.153 2.647 21.315 7.635 30.016 2.275.191 4.611.289 7 .289 22.316 0 40.407-7.989 40.407-30.305 0-20.581-15.391-54.728-35.289-59.916z" fill="#fb2b3a"/><path d="m504.5 167.106c0-16.737-13.568-30.305-30.305-30.305s-30.305 13.568-30.305 30.305h-222.236v181.829h282.846v-181.827c0-.001 0-.002 0-.002z" fill="#fff3de"/><path d="m474.195 136.801c-5.522 0-10.694 1.484-15.152 4.064 9.055 5.24 15.152 15.025 15.152 26.241v.002 181.827h30.305v-181.827c0-.001 0-.002 0-.002 0-16.737-13.568-30.305-30.305-30.305z" fill="#ffe5c2"/><path d="m287.315 131.75h121.219v252.541h-121.219z" fill="#dc8758" transform="matrix(0 1 -1 0 605.945 -89.904)"/><path d="m398.433 242.868h121.219v30.305h-121.219z" fill="#c86d36" transform="matrix(0 1 -1 0 717.063 -201.022)"/><path d="m332.772 131.75h30.305v252.541h-30.305z" fill="#ac5e2e" transform="matrix(0 1 -1 0 605.945 -89.904)"/><path d="m443.89 242.868h30.305v30.305h-30.305z" fill="#9e5528"/><path d="m419.153 136.801c0 22.316-18.091 30.305-40.406 30.305s-40.406-7.989-40.406-30.305 18.091-60.61 40.406-60.61 40.406 38.294 40.406 60.61z" fill="#fe646f"/><path d="m378.747 76.191c-5.006 0-9.797 1.938-14.221 5.18 15.298 11.208 26.186 38.12 26.186 55.43s-10.888 25.995-26.186 29.023c4.424.876 9.215 1.282 14.221 1.282 22.316 0 40.406-7.989 40.406-30.305s-18.091-60.61-40.406-60.61z" fill="#fd4755"/></g></g><g><path d="m229.762 379.24c0-28.242-19.316-51.972-45.457-58.7v-3.93c0-4.463-3.618-8.081-8.081-8.081h-14.142c-4.463 0-8.081 3.618-8.081 8.081v3.93c-26.141 6.728-45.457 30.459-45.457 58.7s19.316 51.972 45.457 58.7v3.93c0 4.463 3.618 8.081 8.081 8.081h14.142c4.463 0 8.081-3.618 8.081-8.081v-3.93c26.141-6.728 45.457-30.459 45.457-58.7z" fill="#a2e62e"/><path d="m214.803 339.385c-.674 42.717-35.491 77.144-78.368 77.144-5.612 0-11.083-.601-16.361-1.722 8.16 11.24 20.085 19.57 33.926 23.133v3.93c0 4.463 3.618 8.081 8.081 8.081h14.142c4.463 0 8.081-3.618 8.081-8.081v-3.93c26.141-6.728 45.457-30.458 45.457-58.7.001-15.262-5.648-29.199-14.958-39.855z" fill="#8bc727"/></g><g><path d="m474.195 129.301c-18.278 0-33.568 13.04-37.058 30.305h-17.854c4.825-5.985 7.369-13.648 7.369-22.805 0-12.777-4.936-29.06-12.88-42.491-9.771-16.521-22.211-25.618-35.027-25.618-9.932 0-19.631 5.485-28.043 15.632-8.421-10.143-18.132-15.632-28.032-15.632-12.816 0-25.255 9.099-35.026 25.618-5.078 8.586-8.918 18.333-11.034 27.588-27.464-41.125-74.311-67.348-125.67-67.348-83.228 0-150.94 67.712-150.94 150.94 0 22.908 5.007 44.92 14.883 65.424 1.292 2.684 3.972 4.248 6.762 4.248 1.092 0 2.2-.239 3.25-.745 3.731-1.797 5.3-6.279 3.502-10.011-7.807-16.21-12.231-33.473-13.194-51.414h3.283c4.533 0 8.221 3.688 8.221 8.22v10.545c0 12.49 10.162 22.652 22.652 22.652s22.652-10.162 22.652-22.652v-10.545c0-1.76.561-3.389 1.507-4.728 5.362 37.938 38.03 67.219 77.424 67.219 25.951 0 48.976-12.714 63.211-32.23v76.613c-6.453-5.683-14.03-10.188-22.441-13.13-.829-7.815-7.461-13.926-15.493-13.926h-14.14c-8.032 0-14.665 6.109-15.493 13.926-12.361 4.325-22.916 12.027-30.749 21.885-27.016-7.225-51.564-22.92-69.535-44.58-2.646-3.187-7.373-3.627-10.562-.983-3.188 2.646-3.628 7.374-.983 10.562 18.974 22.869 44.557 39.755 72.83 48.256-4.212 8.899-6.547 18.8-6.547 29.145 0 29.146 18.459 54.805 45.547 64.283.828 7.816 7.461 13.927 15.493 13.927h14.14c8.032 0 14.665-6.11 15.493-13.927 6.374-2.232 12.354-5.396 17.832-9.439 3.332-2.461 4.039-7.156 1.579-10.489-2.46-3.332-7.156-4.038-10.489-1.579-2.784 2.056-5.736 3.817-8.83 5.277v-96.102c18.323 8.622 30.455 27.184 30.455 48.05 0 6.407-1.125 12.662-3.344 18.591-1.451 3.88.517 8.201 4.396 9.653 3.882 1.452 8.201-.517 9.653-4.396 1.975-5.278 3.258-10.754 3.871-16.349h143.289c4.143 0 7.5-3.357 7.5-7.5s-3.357-7.5-7.5-7.5h-143.285c-.582-5.288-1.772-10.416-3.508-15.306h271.168c4.143 0 7.5-3.357 7.5-7.5v-181.83c0-20.845-16.959-37.804-37.805-37.804zm-358.155 249.939c0-10.917 3.329-21.2 9.119-29.765.03-.046.063-.089.093-.136 5.27-7.743 12.561-14.062 21.247-18.149v96.101c-18.325-8.624-30.459-27.187-30.459-48.051zm60.76 62.63c0 .325-.255.58-.58.58h-14.14c-.32 0-.58-.26-.58-.58v-3.93c0-.004-.001-.008-.001-.012v-117.376c0-.004.001-.008.001-.012v-3.93c0-.32.26-.58.58-.58h14.14c.325 0 .58.255.58.58v3.93c0 .02.005.038.005.058v117.284c0 .02-.005.038-.005.058zm201.946-358.179c16.646 0 32.907 33.604 32.907 53.109 0 7.886-2.762 13.527-8.442 17.246-5.556 3.637-14.016 5.559-24.465 5.559s-18.908-1.922-24.464-5.559c-5.681-3.719-8.442-9.36-8.442-17.246 0-19.505 16.261-53.109 32.906-53.109zm-56.075 0c6.183 0 13.065 4.987 19.251 13.818-6.88 12.758-11.083 27.512-11.083 39.292 0 8.406 2.145 15.552 6.228 21.299-4.197.991-9.036 1.506-14.397 1.506-10.448 0-18.907-1.923-24.463-5.56-5.682-3.719-8.443-9.36-8.443-17.245.001-19.506 16.261-53.11 32.907-53.11zm-265.659 137.521v10.545c0 4.22-3.433 7.652-7.652 7.652s-7.652-3.433-7.652-7.652v-10.545c0-12.804-10.417-23.22-23.221-23.22h-3.277c3.905-71.484 63.289-128.442 135.73-128.442 57.56 0 108.829 36.565 127.99 90.056h-57.276c-2.249 0-4.261.994-5.635 2.562-14.036-21.014-37.963-34.887-65.075-34.887-40.988 0-74.689 31.7-77.932 71.867-9.279 3.043-16 11.781-16 22.064zm93.931 47.491c-34.855 0-63.212-28.356-63.212-63.211s28.356-63.212 63.212-63.212c34.854 0 63.211 28.356 63.211 63.212 0 34.855-28.356 63.211-63.211 63.211zm78.211 11.97h237.546v30.457h-237.546zm237.546-15h-237.546v-15.305h237.546zm30.3 75.762h-267.846v-15.305h245.046c4.143 0 7.5-3.357 7.5-7.5v-121.22c0-4.143-3.357-7.5-7.5-7.5h-37.55c-4.143 0-7.5 3.357-7.5 7.5s3.357 7.5 7.5 7.5h30.05v30.458h-237.546v-30.458h172.496c4.143 0 7.5-3.357 7.5-7.5s-3.357-7.5-7.5-7.5h-172.496v-15.305h214.736c4.143 0 7.5-3.357 7.5-7.5 0-12.574 10.23-22.805 22.805-22.805s22.805 10.231 22.805 22.805z"/><circle cx="228.751" cy="121.648" r="7.5"/><circle cx="182.485" cy="107.543" r="7.5"/><circle cx="142.666" cy="91.236" r="7.5"/><circle cx="102.847" cy="107.543" r="7.5"/><circle cx="75.542" cy="141.032" r="7.5"/><circle cx="43.866" cy="159.118" r="7.5"/><circle cx="53.168" cy="187.181" r="7.5"/></g></g></svg>