<svg height="512" viewBox="0 0 175 175" width="512" xmlns="http://www.w3.org/2000/svg"><g id="Layer_2" data-name="Layer 2"><g id="Filled"><g id="_51.Relieved-FAce" data-name="51.Relieved-FAce"><circle id="Background" cx="87.5" cy="87.5" fill="#ffdd67" r="87.5"/><g id="Face" fill="#b26d3c"><path d="m58.5 68c11 0 19.89-16.64 19.89-10.29s-8.9 22.37-19.89 22.37-19.9-16-19.9-22.38 8.91 10.3 19.9 10.3z"/><path d="m116.5 68.4c11 0 19.9-16.63 19.9-10.28s-8.91 22.37-19.9 22.37-19.89-16-19.89-22.37 8.9 10.28 19.89 10.28z"/><path id="Mouth" d="m114.94 112a6 6 0 0 1 .22 9.26c-5.39 4.61-14.89 10.65-27.66 10.65s-22.25-6-27.65-10.63a6 6 0 0 1 .24-9.28 6 6 0 0 1 7.54.13c3.85 3.28 10.79 7.78 19.87 7.78s16-4.51 19.88-7.79a6 6 0 0 1 7.56-.12z"/></g></g></g></g></svg>