<svg height="512pt" viewBox="-1 0 512 512.00125" width="512pt" xmlns="http://www.w3.org/2000/svg"><path d="m510.929688 256.535156c0 32.667969-6.128907 63.910156-17.308594 92.625-2.261719 5.820313-4.734375 11.53125-7.402344 17.132813-5.046875 10.601562-10.8125 20.800781-17.226562 30.539062-2.753907 4.183594-5.628907 8.28125-8.625 12.292969-2.59375 3.484375-5.273438 6.894531-8.046876 10.230469-3.535156 4.277343-7.214843 8.445312-11.03125 12.480469-10.253906 10.875-21.460937 20.84375-33.484374 29.792968-5.390626 4.011719-10.949219 7.820313-16.652344 11.394532-4.179688 2.640624-8.445313 5.140624-12.792969 7.53125-16.890625 9.277343-34.941406 16.714843-53.898437 22.011718-4.441407 1.238282-8.9375 2.367188-13.472657 3.375-17.871093 3.972656-36.453125 6.058594-55.523437 6.058594-6.277344 0-12.492188-.226562-18.65625-.667969-8.632813-.625-17.152344-1.675781-25.523438-3.136719-4.777344-.824218-9.507812-1.792968-14.191406-2.890624-12.753906-2.980469-25.128906-6.910157-37.058594-11.71875-6.183594-2.492188-12.253906-5.214844-18.183594-8.164063-84.074218-41.824219-141.851562-128.609375-141.851562-228.886719 0-41.34375 9.824219-80.394531 27.257812-114.949218 2.992188-5.921876 6.203126-11.71875 9.644532-17.359376 12.042968-19.875 26.734375-37.976562 43.574218-53.816406 7.121094-6.703125 14.628907-13.003906 22.480469-18.851562 42.566407-31.71875 95.335938-50.488282 152.507813-50.488282 17.800781 0 35.171875 1.824219 51.949218 5.285157 9.726563 2.003906 19.257813 4.566406 28.550782 7.65625 12.125 4.023437 23.855468 8.933593 35.105468 14.648437 6.632813 3.378906 13.097657 7.027344 19.375 10.9375 72.34375 45.109375 120.484376 125.398438 120.484376 216.9375zm0 0" fill="#33adc1"/><path d="m493.621094 349.160156c-37.085938 95.304688-129.734375 162.839844-238.15625 162.839844-40.8125 0-79.390625-9.570312-113.613282-26.578125-46.683593-111.558594-85.003906-226.488281-114.59375-343.835937-1.6875-6.703126-3.347656-13.417969-4.984374-20.136719-6.601563-27.128907 10.488281-54.367188 37.746093-60.394531 14.316407-3.15625 28.621094-6.328126 42.9375-9.496094 68.152344-15.066406 136.316407-30.136719 204.457031-45.203125 7.800782-1.722657 15.597657-3.449219 23.398438-5.171875 26.507812-5.851563 52.773438 10.542968 59.257812 36.902344.125.5.25 1.011718.375 1.511718 26.132813 105.804688 60.632813 209.324219 103.175782 309.5625zm0 0" fill="#eae0d3"/><path d="m486.21875 366.292969c-41.050781 86.160156-128.953125 145.707031-230.753906 145.707031-33.730469 0-65.953125-6.535156-95.429688-18.414062-50.875-119.546876-92.125-243.222657-123.132812-369.359376-.492188-1.992187-.980469-3.984374-1.460938-5.976562-2.316406-9.507812-.730468-19.332031 4.464844-27.664062 5.222656-8.382813 13.40625-14.167969 23.042969-16.296876l17.527343-3.878906 253.265626-55.984375c.742187-.167969 1.480468-.300781 2.222656-.414062 1.875-.304688 3.773437-.449219 5.660156-.449219 11.960938 0 22.773438 5.816406 29.449219 15.097656 2.679687 3.710938 4.691406 7.988282 5.835937 12.65625 27.332032 111.0625 63.972656 219.921875 109.308594 324.976563zm0 0" fill="#fcf8f2"/><path d="m205.910156 160.273438c-10.414062-36.914063-45.269531-60.488282-79.203125-52.265626-33.894531 8.210938-53.542969 47.128907-42.441406 86.503907 11.070313 39.390625 48.121094 62.308593 81.324219 51.632812 33.238281-10.6875 50.691406-48.945312 40.320312-85.871093zm0 0" fill="#eae0d3"/><path d="m193.488281 163.773438c7.179688 25.546874-2.3125 51.667968-22.058593 63.773437-3.132813 1.925781-6.542969 3.480469-10.195313 4.605469-26.5 8.300781-55.792969-9.992188-64.546875-41.132813-8.773438-31.132812 6.667969-62.058593 33.605469-68.796875 3.699219-.945312 7.421875-1.398437 11.097656-1.394531 23.167969.050781 44.894531 17.402344 52.097656 42.945313zm0 0" fill="#ea2f69"/><path d="m193.488281 163.773438c7.179688 25.546874-2.3125 51.667968-22.058593 63.773437-23.089844 1.21875-45.894532-15.976563-53.363282-42.542969-7.488281-26.5625 2.996094-53.148437 23.328125-64.171875 23.164063.046875 44.890625 17.398438 52.09375 42.941407zm0 0" fill="#ff648d"/><path d="m367.449219 114.800781c-9.636719-34.160156-43.945313-55.476562-77.875-47.253906-33.898438 8.210937-54.09375 44.871094-43.769531 81.496094 10.296874 36.632812 46.640624 57.339843 79.84375 46.664062 33.238281-10.683593 51.398437-46.734375 41.800781-80.90625zm0 0" fill="#eae0d3"/><path d="m355.027344 118.300781c6.648437 23.660157-3.328125 48.207031-23.191406 59.917969-3.15625 1.859375-6.578126 3.382812-10.226563 4.507812-26.5 8.300782-55.242187-8.230468-63.382813-37.179687-8.15625-28.941406 7.734376-58.074219 34.675782-64.8125 3.699218-.945313 7.414062-1.429687 11.074218-1.488281 23.058594-.355469 44.378907 15.402344 51.050782 39.054687zm0 0" fill="#ea2f69"/><path d="m355.027344 118.300781c6.648437 23.660157-3.328125 48.207031-23.191406 59.917969-22.972657 1.613281-45.292969-14.011719-52.226563-38.6875-6.957031-24.671875 3.929687-49.660156 24.367187-60.285156 23.058594-.355469 44.378907 15.402344 51.050782 39.054687zm0 0" fill="#ff648d"/><path d="m256.140625 316.695312c-13.058594-36.039062-49.523437-56.984374-82.769531-46.320312-33.210938 10.652344-49.988282 50.859375-36.066406 89.304688 13.894531 38.457031 52.511718 58.625 84.851562 45.566406 32.375-13.070313 47.003906-52.496094 33.984375-88.550782zm0 0" fill="#eae0d3"/><path d="m244.003906 321.085938c9.011719 24.945312 1.441406 51.683593-17.371094 65.191406-2.988281 2.140625-6.277343 3.941406-9.835937 5.328125-25.828125 10.203125-56.371094-5.910157-67.355469-36.3125-11.007812-30.398438 2.15625-62.335938 28.535156-71.015625 3.621094-1.210938 7.300782-1.929688 10.96875-2.195313 23.105469-1.640625 46.027344 14.066407 55.058594 39.003907zm0 0" fill="#ea2f69"/><path d="m244.003906 321.085938c9.011719 24.945312 1.441406 51.683593-17.371094 65.191406-22.945312 2.890625-46.933593-12.601563-56.304687-38.539063-9.394531-25.933593-.863281-53.1875 18.617187-65.65625 23.105469-1.640625 46.027344 14.066407 55.058594 39.003907zm0 0" fill="#ff648d"/><path d="m413.949219 259.613281c-12.082031-33.351562-47.835938-52.089843-81.082031-41.421875-33.210938 10.652344-50.699219 48.648438-37.753907 84.40625 12.925781 35.765625 50.675781 53.78125 83.015625 40.722656 32.375-13.066406 47.867188-50.34375 35.820313-83.707031zm0 0" fill="#eae0d3"/><path d="m401.816406 264.003906c8.34375 23.101563.175782 48.304688-18.789062 61.425782-3.011719 2.085937-6.3125 3.851562-9.871094 5.238281-25.828125 10.203125-55.691406-4.195313-65.90625-32.457031-10.230469-28.257813 3.511719-58.441407 29.890625-67.121094 3.621094-1.210938 7.289063-1.964844 10.9375-2.292969 22.972656-2.03125 45.375 12.113281 53.738281 35.207031zm0 0" fill="#ea2f69"/><path d="m401.816406 264.003906c8.34375 23.101563.175782 48.304688-18.789062 61.425782-22.792969 3.28125-46.1875-10.679688-54.890625-34.773438-8.722657-24.089844.328125-49.78125 19.941406-61.859375 22.972656-2.03125 45.375 12.113281 53.738281 35.207031zm0 0" fill="#ff648d"/><path d="m324.460938 502.566406c-4.441407 1.238282-8.933594 2.367188-13.46875 3.375-17.875 3.972656-36.453126 6.058594-55.527344 6.058594-6.273438 0-12.492188-.226562-18.652344-.667969-8.632812-.625-17.152344-1.675781-25.527344-3.136719-4.773437-.824218-9.507812-1.792968-14.191406-2.890624-7.515625-32.730469 6.601562-65.179688 34.589844-76.449219 32.375-13.054688 70.265625 5.191406 85.917968 40.207031 4.878907 10.949219 7.089844 22.429688 6.859376 33.503906zm0 0" fill="#eae0d3"/><path d="m310.992188 505.941406c-17.875 3.972656-36.453126 6.058594-55.527344 6.058594-6.273438 0-12.492188-.226562-18.652344-.667969-8.632812-.625-17.152344-1.675781-25.527344-3.136719-8.671875-27.519531 2.359375-56.089843 25.996094-65.816406 3.523438-1.46875 7.144531-2.449218 10.78125-2.980468 22.921875-3.308594 46.933594 10.695312 57.757812 34.929687 4.628907 10.394531 6.246094 21.332031 5.171876 31.613281zm0 0" fill="#ea2f69"/><path d="m310.992188 505.941406c-17.875 3.972656-36.453126 6.058594-55.527344 6.058594-6.273438 0-12.492188-.226562-18.652344-.667969-.917969-1.636719-1.761719-3.324219-2.542969-5.078125-11.253906-25.199218-4.734375-53.011718 13.792969-66.855468 22.917969-3.308594 46.933594 10.695312 57.757812 34.929687 4.628907 10.394531 6.246094 21.332031 5.171876 31.613281zm0 0" fill="#ff648d"/><path d="m468.992188 396.832031c-22.886719 34.753907-54.023438 63.597657-90.632813 83.722657-9.550781-6.875-17.609375-16.488282-22.90625-28.382813-15.527344-34.742187-.847656-73.917969 31.507813-86.953125 31.085937-12.523438 66.433593 1.792969 82.03125 31.613281zm0 0" fill="#eae0d3"/><path d="m460.371094 409.125c-14.878906 19.949219-32.597656 37.644531-52.5625 52.503906-5.390625 4.011719-10.949219 7.820313-16.652344 11.394532-10.09375-5.453126-18.695312-14.398438-23.921875-26.109376-12.261719-27.453124-.75-58.570312 24.921875-69.132812 3.535156-1.46875 7.132812-2.492188 10.75-3.085938 22.761719-3.691406 46.132812 8.800782 56.160156 31.242188.46875 1.050781.90625 2.113281 1.304688 3.1875zm0 0" fill="#ea2f69"/><path d="m460.371094 409.125c-14.878906 19.949219-32.597656 37.644531-52.5625 52.503906-8.539063-5.464844-15.734375-13.558594-20.292969-23.765625-10.457031-23.410156-3.292969-49.695312 15.390625-63.167969 22.761719-3.691406 46.128906 8.800782 56.160156 31.242188.46875 1.050781.90625 2.113281 1.304688 3.1875zm0 0" fill="#ff648d"/><g fill="#fff"><path d="m181.210938 164.042969c-3.597657-10.070313-10.382813-16.851563-15.152344-15.148438-4.769532 1.703125-5.71875 11.25-2.121094 21.320313 3.597656 10.070312 10.382812 16.855468 15.152344 15.148437 4.773437-1.703125 5.722656-11.25 2.121094-21.320312zm0 0"/><path d="m345.578125 117.46875c-3.597656-10.074219-10.382813-16.855469-15.152344-15.148438-4.769531 1.703126-5.71875 11.25-2.121093 21.320313 3.597656 10.070313 10.382812 16.851563 15.152343 15.148437 4.769531-1.703124 5.71875-11.25 2.121094-21.320312zm0 0"/><path d="m396.003906 267.878906c-3.597656-10.070312-10.382812-16.851562-15.152344-15.148437-4.769531 1.707031-5.71875 11.253906-2.121093 21.324219 3.597656 10.070312 10.382812 16.851562 15.152343 15.148437 4.769532-1.707031 5.722657-11.25 2.121094-21.324219zm0 0"/><path d="m235.550781 322.167969c-3.597656-10.070313-10.382812-16.851563-15.152343-15.148438-4.769532 1.703125-5.71875 11.25-2.121094 21.320313 3.597656 10.070312 10.382812 16.855468 15.152344 15.148437 4.769531-1.703125 5.722656-11.25 2.121093-21.320312zm0 0"/><path d="m452.320312 419.355469c-3.535156 4.277343-7.214843 8.445312-11.03125 12.480469-3.046874-2.679688-5.988281-7.226563-7.957031-12.761719-3.597656-10.074219-2.648437-19.613281 2.117188-21.324219 4.773437-1.699219 11.554687 5.078125 15.160156 15.152344.785156 2.199218 1.355469 4.378906 1.710937 6.453125zm0 0"/><path d="m301.46875 482.546875c-3.597656-10.070313-10.382812-16.851563-15.152344-15.148437-4.769531 1.703124-5.71875 11.25-2.121094 21.320312 3.597657 10.070312 10.382813 16.855469 15.152344 15.148438 4.773438-1.703126 5.722656-11.25 2.121094-21.320313zm0 0"/></g></svg>