<svg id="Capa_1" enable-background="new 0 0 497 497" height="512" viewBox="0 0 497 497" width="512" xmlns="http://www.w3.org/2000/svg"><g><path d="m492.88 284.286-59.23 51.73v-81.02h52.14c2.93 9.62 5.3 19.39 7.09 29.29z" fill="#fff89c"/><path d="m456.62 261.996-445.41-7c-2.93 9.62-5.3 19.39-7.09 29.29l209.941 128.048c17.982 21.378 50.893 21.378 68.875-.001l180.714-121.317c-1.7-9.77-4.04-19.45-7.03-29.02z" fill="#ffffdb"/><path d="m449.302 178.804-26.412-39.26c-8.69-12.92-12.02-28.71-9.28-44.04l15.476-86.682c.821-4.597-2.714-8.818-7.383-8.818h-21.523l-151.68 130.995 208.109 130.995c9.76-2.18 19.485-4.51 29.185-7-8.11-26.7-20.452-52.23-36.492-76.19z" fill="#ffd1bd"/><path d="m397.999 156.284 26.37 39.21c14.36 21.45 25.12 43.67 32.24 66.5-68.47 15.31-138.28 23-208.11 23-79.78 0-159.54-10.04-237.29-30 8.11-26.7 20.45-52.23 36.49-76.19l26.41-39.26c8.69-12.92 12.02-28.71 9.28-44.04l-15.476-86.682c-.821-4.597 2.714-8.818 7.383-8.818h324.882l-16.11 90.22c-4.119 23.12.821 46.58 13.931 66.06z" fill="#ffe4d9"/><path d="m492.88 284.286-29.23 6.73-70.767 102.99 53.397 102.99h23.952c3.644 0 6.76-2.612 7.387-6.202 4.251-24.326 19.381-114.178 19.381-160.798 0-15.49-1.4-30.75-4.12-45.71z" fill="#ffd1bd"/><path d="m219.418 418.703-49.788-59.197c-25.15-29.89-59.33-50.8-97.41-59.55l131.28 197.04h22.5c4.142 0 7.5-3.358 7.5-7.5v-32.173c0-14.129-4.987-27.806-14.082-38.62z" fill="#ffd1bd"/><path d="m191.26 418.703-55.383-75.757-60.87-42.325-70.887-16.335c-2.72 14.96-4.12 30.22-4.12 45.71 0 46.62 15.13 136.472 19.381 160.798.627 3.59 3.743 6.202 7.387 6.202h176.732v-39.673c0-14.129-4.334-27.806-12.24-38.62z" fill="#ffe4d9"/><path d="m463.65 291.016-38.87 8.94c-38.07 8.75-72.26 29.66-97.41 59.55l-49.788 59.197c-9.095 10.814-14.082 24.49-14.082 38.62v32.173c0 4.142 3.358 7.5 7.5 7.5h175.28c1.37-8.31 3.9-23.67 4.94-30 5.87-35.57 15.78-100.95 15.78-137 0-13.14-1.12-26.14-3.35-38.98z" fill="#ffe4d9"/><path d="m222.498 158.628-114.992-.003c-28.61 18.757-47.506 51.109-47.506 87.875 0 57.99 47.01 105 105 105s105-47.01 105-105c0-36.764-18.894-69.115-47.502-87.872z" fill="#ffba9c"/><path d="m150 229.825v76.675c0 8.284 6.716 15 15 15s15-6.716 15-15v-76.675z" fill="#e52c36"/><path d="m222.49 158.63c-8.778-5.76-18.471-10.219-28.808-13.148l-13.621 113.858c1.368-.01 2.763-.205 4.159-.62 27.92-8.27 48.28-34.12 48.28-64.72 0-12.97-3.67-25.08-10.01-35.37z" fill="#fc424b"/><path d="m202.5 194c0-19.045-3.381-36.246-8.818-48.518-9.117-2.584-18.733-3.982-28.682-3.982l-30 51.41 30 51.41c0 8.553 7.032 15.078 15.061 15.02.726-.017 1.421-.322 2.07-.855 11.797-8.517 20.369-34.161 20.369-64.485z" fill="#ff6363"/><path d="m97.5 194c0-12.97 3.67-25.08 10.01-35.37 16.52-10.84 36.26-17.13 57.49-17.13v102.82c0 10.01-9.63 17.25-19.22 14.4-27.92-8.27-48.28-34.12-48.28-64.72z" fill="#ff8178"/></g></svg>