<svg id="Capa_1" enable-background="new 0 0 512 512" height="512" viewBox="0 0 512 512" width="512" xmlns="http://www.w3.org/2000/svg"><g><path d="m225.351 105.934c-9.768-4.801-21.246-6.23-32.586-3.192-11.339 3.039-20.565 10.015-26.624 19.057-10.678-2.109-22.135-.519-32.301 5.351-10.167 5.87-17.272 14.997-20.785 25.298-10.86.727-21.515 5.228-29.816 13.529s-12.802 18.956-13.529 29.816c-10.302 3.513-19.429 10.618-25.298 20.785-5.87 10.167-7.46 21.623-5.351 32.302-9.042 6.059-16.018 15.285-19.057 26.624-3.038 11.339-1.609 22.817 3.192 32.586-7.165 8.193-11.517 18.91-11.517 30.649s4.351 22.456 11.517 30.649c-4.801 9.768-6.23 21.246-3.192 32.586 3.038 11.339 10.015 20.565 19.057 26.624-2.109 10.678-.519 22.135 5.351 32.302s14.996 17.272 25.298 20.785c.727 10.86 13.529 29.816 13.529 29.816h118.947l53.814-17.523 26.907-165.337-26.907-234.224c-11.739 0-22.456 4.351-30.649 11.517z" fill="#6d3326"/><path d="m500.322 338.739c0-11.739-4.351-22.456-11.517-30.649 4.801-9.768 6.23-21.246 3.192-32.586-3.038-11.339-10.015-20.565-19.057-26.624 2.109-10.678.519-22.135-5.351-32.302s-14.996-17.272-25.298-20.785c-.727-10.86-5.228-21.515-13.529-29.816s-18.956-12.802-29.816-13.529c-3.513-10.302-10.618-19.429-20.785-25.298-10.167-5.87-21.623-7.46-32.301-5.351-6.059-9.042-15.285-16.018-26.624-19.057-11.339-3.038-22.817-1.609-32.586 3.192-8.193-7.165-18.91-11.517-30.649-11.517v399.561l53.814 17.522h118.947c8.301-8.301 12.802-18.956 13.529-29.816 10.302-3.513 19.429-10.618 25.298-20.785 5.87-10.167 7.46-21.623 5.351-32.302 9.042-6.059 16.018-15.285 19.057-26.624 3.038-11.339 1.609-22.817-3.192-32.586 7.165-8.192 11.517-18.909 11.517-30.648z" fill="#56281b"/><g><g><g><g><circle cx="104.383" cy="104.383" fill="#fce344" r="104.383"/></g></g></g><g><path d="m104.382 163.766c-24.813 0-45-20.187-45-45h30c0 8.271 6.729 15 15 15s15-6.729 15-15h30c0 24.813-20.187 45-45 45z" fill="#fffcf4"/></g><g><path d="m59.382 60.295h30v30h-30z" fill="#fffcf4"/></g><g><path d="m119.382 60.295h30v30h-30z" fill="#fffcf4"/></g><g><g><g><g><circle cx="407.617" cy="104.383" fill="#ff2e56" r="104.383"/></g></g></g><g><path d="m407.617 118.766c24.813 0 45 20.187 45 45h-30c0-8.271-6.729-15-15-15s-15 6.729-15 15h-30c0-24.814 20.187-45 45-45z" fill="#ffebff"/></g><g><path d="m362.617 60.295h30v30h-30z" fill="#ffebff"/></g><g><path d="m422.617 60.295h30v30h-30z" fill="#ffebff"/></g></g></g><g><g><path d="m202.186 461.43v50.57h53.814l18.827-21.016-18.827-29.554z" fill="#a24f3e"/><path d="m256 461.43h53.814v50.57h-53.814z" fill="#873f2e"/></g><g><g><g><g><path d="m256 201.288v-1.603z" fill="#b95d4c"/></g><path d="m256 199.685v1.603c0 46.25-37.494 83.743-83.744 83.743h-39.303c-24.225 1.466-43.422 21.568-43.422 46.162 0 24.884 19.651 45.17 44.28 46.206 7.107 61.197 59.085 108.709 122.188 108.709l11.884-125.589z" fill="#b95d4c"/><path d="m379.048 285.031h-39.304c-46.25 0-83.744-37.493-83.744-83.743v284.82c63.104 0 115.082-47.512 122.188-108.709 24.629-1.036 44.28-21.322 44.28-46.206.001-24.594-19.195-44.696-43.42-46.162z" fill="#a24f3e"/></g></g></g><g><g><path d="m190.247 339.417h32.242v30h-32.242z" fill="#582b1f"/></g><g><path d="m289.512 339.417h32.242v30h-32.242z" fill="#582b1f"/></g></g></g><g><path d="m222.488 413.436v30h33.512l8.524-15-8.524-15z" fill="#873f2e"/><path d="m256 413.436h33.511v30h-33.511z" fill="#6d3326"/></g></g></svg>