<svg height="512" viewBox="0 0 48 48" width="512" xmlns="http://www.w3.org/2000/svg" xmlns:xlink="http://www.w3.org/1999/xlink"><linearGradient id="linear-gradient" gradientUnits="userSpaceOnUse" x1="7.708" x2="41.333" y1="5.648" y2="43.523"><stop offset="0" stop-color="#ffca4f"/><stop offset="1" stop-color="#f7ae30"/></linearGradient><linearGradient id="linear-gradient-2" gradientUnits="userSpaceOnUse" x1="24.45" x2="39.573" y1="24.443" y2="39.314"><stop offset="0" stop-color="#ffca4f" stop-opacity="0"/><stop offset="1" stop-color="#f4901f"/></linearGradient><linearGradient id="linear-gradient-3" gradientUnits="userSpaceOnUse" x1="8.83" x2="19.463" y1="8.588" y2="19.39"><stop offset="0" stop-color="#ffd980"/><stop offset="1" stop-color="#ffca4f" stop-opacity="0"/></linearGradient><linearGradient id="linear-gradient-4" gradientUnits="userSpaceOnUse" x1="24" x2="24" y1="29" y2="32.917"><stop offset="0" stop-color="#f7ae30"/><stop offset="1" stop-color="#ffca4f" stop-opacity="0"/></linearGradient><linearGradient id="linear-gradient-5" x1="16.5" x2="16.5" xlink:href="#linear-gradient-4" y1="14.125" y2="17.917"/><linearGradient id="linear-gradient-6" x1="31.5" x2="31.5" xlink:href="#linear-gradient-4" y1="14.083" y2="18.004"/><linearGradient id="linear-gradient-7" gradientUnits="userSpaceOnUse" x1="24" x2="24" y1="30" y2="31.958"><stop offset="0" stop-color="#3f4c56"/><stop offset="1" stop-color="#27333e"/></linearGradient><linearGradient id="linear-gradient-8" x1="16.5" x2="16.5" xlink:href="#linear-gradient-7" y1="15.062" y2="16.958"/><linearGradient id="linear-gradient-9" x1="31.5" x2="31.5" xlink:href="#linear-gradient-7" y1="15.042" y2="17.002"/><g id="Straight_Face" data-name="Straight Face"><path d="m24 46a22 22 0 1 1 22-22 22.025 22.025 0 0 1 -22 22z" fill="url(#linear-gradient)"/><path d="m8.451 39.549a21.99 21.99 0 1 0 31.1-31.1z" fill="url(#linear-gradient-2)"/><path d="m14 34a19.963 19.963 0 0 1 28.215-18.215 19.988 19.988 0 1 0 -26.43 26.43 19.854 19.854 0 0 1 -1.785-8.215z" fill="url(#linear-gradient-3)"/><path d="m15 33a2 2 0 0 1 0-4h18a2 2 0 0 1 0 4z" fill="url(#linear-gradient-4)"/><path d="m13 18a2 2 0 0 1 0-4h7a2 2 0 0 1 0 4z" fill="url(#linear-gradient-5)"/><path d="m28 18a2 2 0 0 1 0-4h7a2 2 0 0 1 0 4z" fill="url(#linear-gradient-6)"/><path d="m33 32h-18a1 1 0 0 1 0-2h18a1 1 0 0 1 0 2z" fill="url(#linear-gradient-7)"/><path d="m20 17h-7a1 1 0 0 1 0-2h7a1 1 0 0 1 0 2z" fill="url(#linear-gradient-8)"/><path d="m35 17h-7a1 1 0 0 1 0-2h7a1 1 0 0 1 0 2z" fill="url(#linear-gradient-9)"/></g></svg>