<svg height="511pt" viewBox="-16 0 511 511.99962" width="511pt" xmlns="http://www.w3.org/2000/svg"><path d="m332.964844 429.710938c-29.4375-93.230469 39.59375-148.542969 24.359375-261.304688-15.238281-112.761719-108.699219-120.035156-173.5-120.035156s-158.261719 7.273437-173.5 120.035156 53.796875 168.074219 24.359375 261.304688" fill="#ffbf3e"/><path d="m80.308594 168.40625c-9.09375 112.761719 32.089844 168.074219 14.527344 261.3125h-60.152344c29.441406-93.238281-39.597656-148.550781-24.359375-261.3125 15.097656-111.703125 106.960937-119.894531 171.671875-120.023438-38.5625.242188-92.738282 9.019532-101.6875 120.023438zm0 0" fill="#e8a328"/><path d="m320.203125 487.207031v17.171875h-272.75v-17.171875c0-75.316406 61.054687-136.382812 136.371094-136.382812 10.65625 0 21.027343 1.230469 30.984375 3.535156 25.222656 5.863281 47.753906 18.722656 65.449218 36.410156 24.675782 24.683594 39.945313 58.777344 39.945313 96.4375zm0 0" fill="#e22b2b"/><path d="m320.203125 487.207031v17.171875h-210.78125v-17.171875c0-64.660156 45.003906-118.816406 105.386719-132.847656 25.222656 5.863281 47.753906 18.722656 65.449218 36.410156 24.675782 24.683594 39.945313 58.777344 39.945313 96.4375zm0 0" fill="#f94141"/><path d="m115.882812 395.890625c1.363282 16.546875 8.644532 31.417969 19.730469 42.492187 12.339844 12.34375 29.386719 19.972657 48.210938 19.972657 35.726562 0 65.046875-27.488281 67.941406-62.464844" fill="#e8b182"/><path d="m320.203125 219.199219v58.421875c0 66.457031-47.542969 121.8125-110.472656 133.914062-8.382813 1.613282-17.046875 2.457032-25.90625 2.457032-75.316407 0-136.371094-61.054688-136.371094-136.371094v-54.359375s29.207031-5.726563 51.800781-23.050781c14.230469-10.910157 25.832032-26.410157 25.863282-47.988282 0 2.507813 1.878906 66.976563 195.085937 66.976563zm0 0" fill="#e8b182"/><path d="m320.203125 219.199219v58.421875c0 66.457031-47.542969 121.8125-110.472656 133.914062-62.933594-12.101562-110.476563-67.457031-110.476563-133.914062v-77.410156c14.230469-10.910157 25.832032-26.410157 25.863282-47.988282 0 2.507813 1.878906 66.976563 195.085937 66.976563zm0 0" fill="#ffd0a6"/><path d="m472.75 120.976562c0-62.246093-50.175781-112.777343-112.285156-113.355468-62.238282-.578125-113.746094 49.851562-114.429688 112.085937-.449218 41.179688 21.0625 77.367188 53.550782 97.582031 6.917968 4.304688 10.28125 12.5625 8.167968 20.433594l-4.152344 15.445313c-2.285156 8.507812 7.007813 15.433593 14.507813 10.8125l21.367187-13.164063c14.527344-8.953125 30.335938-15.671875 46.914063-19.722656 49.570313-12.113281 86.359375-56.8125 86.359375-110.117188zm0 0" fill="#e4e4ef"/><path d="m359.390625 89.144531c15.007813-24.679687 44.550781-14.371093 50.789063 5.4375 8.734374 27.730469-6.050782 60.871094-50.789063 80.929688-44.738281-20.054688-59.523437-53.199219-50.792969-80.929688 6.238282-19.808593 35.78125-30.121093 50.792969-5.4375zm0 0" fill="#f94141"/><path d="m445.308594 35.808594c-22.59375-22.789063-52.699219-35.507813-84.773438-35.80468775-39.964844-.34765625-75.65625 18.81640575-97.984375 48.57421875-26.847656-6.859375-54.726562-7.828125-78.726562-7.828125-34.554688 0-74.480469 2.195312-108.617188 18.472656-41.007812 19.554688-65.378906 55.945313-72.433593 108.160156-7.535157 55.75 5.152343 98.601563 16.34375 136.410157 2.476562 8.371093 4.820312 16.273437 6.957031 24.28125.910156 3.40625 3.988281 5.652343 7.355469 5.652343.652343 0 1.3125-.082031 1.972656-.257812 4.0625-1.085938 6.480468-5.261719 5.394531-9.328125-2.191406-8.203125-4.671875-16.574219-7.066406-24.671875-11.285157-38.117188-22.953125-77.53125-15.855469-130.042969 6.410156-47.453125 27.3125-79.003906 63.890625-96.449219 31.394531-14.972656 69.207031-16.988281 102.058594-16.988281 21.503906 0 46.1875.792969 69.898437 6.140625-9.539062 17.046875-15.078125 36.632813-15.304687 57.492188-.386719 35.15625 14.070312 67.777344 39.460937 90.789062-71.648437-4.179687-107.324218-18.851562-124.863281-31.070312-19.761719-13.761719-20.269531-26.519532-20.28125-27.136719 0-.007813 0-.011719 0-.019531 0-.011719 0-.023438 0-.035156h-.003906c-.039063-4.175782-3.433594-7.546876-7.613281-7.546876-4.207032 0-7.613282 3.40625-7.621094 7.609376-.023438 16.214843-7.71875 30.328124-22.878906 41.953124-20.835938 15.972657-48.363282 21.566407-48.628907 21.617188-3.574219.703125-6.152343 3.835938-6.152343 7.476562v54.359376c0 41.234374 17.425781 78.472656 45.296874 104.746093-12.277343 11.554688-22.300781 25.007813-29.765624 39.730469h-10.597657c5.429688-21.472656 6.335938-42.6875 2.890625-65.949219-.617187-4.164062-4.503906-7.039062-8.652344-6.421875-4.164062.617188-7.039062 4.492188-6.421874 8.652344 3.621093 24.464844 1.980468 46.40625-5.167969 69.046875-.730469 2.3125-.316407 4.839844 1.121093 6.796875 1.433594 1.957031 3.71875 3.113281 6.144532 3.113281h14.035156c-5.8125 15.765625-8.882812 32.613281-8.882812 49.875v17.171875c0 4.210938 3.410156 7.621094 7.617187 7.621094h272.75c4.207031 0 7.617187-3.410156 7.617187-7.621094v-17.171875c0-17.292969-3.035156-34.117187-8.84375-49.875h13.984376c2.429687 0 4.710937-1.15625 6.148437-3.113281 1.433594-1.957031 1.847656-4.484375 1.117187-6.796875-14.605468-46.253906-3.992187-82.109375 8.296876-123.625 5.296874-17.902344 10.742187-36.402344 14.382812-56.703125 8.210938-3.609375 16.664062-6.488281 25.292969-8.597656 10.84375-2.648438 21.273437-6.800782 30.996093-12.339844 3.65625-2.082031 4.929688-6.734375 2.847657-10.390625s-6.734375-4.929687-10.390625-2.847656c-8.492188 4.835937-17.597656 8.460937-27.070313 10.777343-17.164062 4.195313-33.6875 11.136719-49.101562 20.636719l-21.367188 13.164063c-1.011719.625-1.847656.285156-2.371093-.105469-.527344-.390625-1.085938-1.097656-.78125-2.242187l4.148437-15.449219c2.992187-11.132813-1.628906-22.738281-11.496094-28.878907-31.691406-19.71875-50.367187-53.746093-49.957031-91.027343.632812-57.859375 47.972656-104.554688 105.742188-104.554688.328124 0 .664062 0 .996093.003907 28.03125.261718 54.34375 11.375 74.09375 31.296874 19.761719 19.933594 30.644531 46.371094 30.644531 74.441407 0 28.089843-10.898437 54.539062-30.6875 74.476562-2.964843 2.984375-2.945312 7.808594.042969 10.773438 2.984375 2.964843 7.808594 2.949219 10.773438-.039063 22.640625-22.808594 35.109375-53.070312 35.109375-85.210937-.003906-32.117188-12.453125-62.363281-35.0625-85.171875zm-132.726563 460.953125h-257.507812v-9.554688c0-36.28125 15.152343-70.53125 41.769531-94.917969 3.820312 2.902344 7.78125 5.621094 11.882812 8.136719 2.214844 16.339844 9.753907 31.609375 21.5 43.34375 14.316407 14.316407 33.351563 22.203125 53.597657 22.203125 19.140625 0 37.414062-7.152344 51.457031-20.140625 12.972656-12 21.265625-27.96875 23.632812-45.320312 4.132813-2.53125 8.128907-5.257813 11.964844-8.179688 1.355469 1.246094 2.691406 2.519531 3.992188 3.820313 24.320312 24.332031 37.714844 56.667968 37.714844 91.050781v9.558594zm-186.085937-87.070313c17.578125 7.65625 36.960937 11.917969 57.328125 11.917969 9.203125 0 18.40625-.875 27.339843-2.597656 10.476563-2.011719 20.503907-5.144531 29.972657-9.253907-3.214844 9.421876-8.734375 17.976563-16.203125 24.886719-11.21875 10.375-25.816406 16.089844-41.109375 16.089844-16.175781 0-31.386719-6.300781-42.828125-17.742187-6.605469-6.597657-11.535156-14.597657-14.5-23.300782zm216.976562-152.390625c.710938-.4375 1.425782-.867187 2.144532-1.292969-3.324219 15.144532-7.570313 29.480469-11.707032 43.464844-11.632812 39.304688-22.667968 76.574219-11.03125 122.621094h-10.542968c-6.804688-13.394531-15.757813-25.777344-26.6875-36.714844-1.007813-1.003906-2.039063-1.992187-3.074219-2.972656 28.050781-26.492188 45.246093-63.980469 45.246093-104.789062v-10.671876zm-30.890625 15.75v4.566407c0 61.640624-43.863281 114.8125-104.296875 126.433593-7.992187 1.539063-16.222656 2.320313-24.460937 2.320313-70.996094 0-128.75-57.757813-128.75-128.753906v-48.347657c10.214843-2.722656 31.226562-9.527343 48.8125-23.011719 11.269531-8.636718 19.238281-18.511718 23.914062-29.511718 4.109375 5.148437 9.335938 10 15.652344 14.5 30.15625 21.480468 82.351563 33.339844 155.132813 35.277344 1.957031 2.601562 2.683593 5.964843 1.808593 9.222656l-4.148437 15.445312c-1.859375 6.910156.648437 14.140625 6.386718 18.417969 2.964844 2.207031 6.441407 3.355469 9.949219 3.441406zm0 0"/><path d="m215.980469 310.980469c-17.730469 17.730469-46.578125 17.730469-64.304688 0-2.976562-2.972657-7.800781-2.972657-10.777343 0-2.976563 2.976562-2.976563 7.800781 0 10.777343 11.835937 11.832032 27.382812 17.75 42.929687 17.75s31.09375-5.914062 42.929687-17.75c2.972657-2.976562 2.972657-7.800781 0-10.777343-2.976562-2.972657-7.800781-2.972657-10.777343 0zm0 0"/><path d="m151.519531 263.15625c1.949219 0 3.898438-.742188 5.386719-2.230469 2.976562-2.976562 2.976562-7.796875 0-10.773437-9.5-9.496094-22.125-14.730469-35.558594-14.730469-13.429687 0-26.058594 5.234375-35.554687 14.730469-2.976563 2.976562-2.976563 7.796875 0 10.773437 2.976562 2.976563 7.800781 2.976563 10.773437 0 6.621094-6.617187 15.421875-10.265625 24.78125-10.265625 9.363282 0 18.164063 3.648438 24.78125 10.265625 1.488282 1.488281 3.4375 2.230469 5.390625 2.230469zm0 0"/><path d="m276.472656 263.15625c1.949219 0 3.898438-.742188 5.386719-2.230469 2.976563-2.976562 2.976563-7.800781 0-10.773437-19.605469-19.605469-51.507813-19.605469-71.117187 0-2.972657 2.976562-2.972657 7.796875 0 10.773437 2.976562 2.976563 7.800781 2.976563 10.777343 0 13.667969-13.664062 35.898438-13.664062 49.566407 0 1.484374 1.488281 3.4375 2.230469 5.386718 2.230469zm0 0"/><path d="m387.023438 67.304688c-10.4375-1.265626-20.109376 2.167968-27.636719 9.582031-7.519531-7.414063-17.199219-10.847657-27.628907-9.582031-14.027343 1.699218-26.257812 11.742187-30.425781 24.988281-8.34375 26.492187 1.039063 66.007812 54.941407 90.167969.992187.445312 2.050781.667968 3.113281.667968s2.128906-.222656 3.117187-.667968c53.902344-24.160157 63.285156-63.675782 54.941406-90.167969-4.167968-13.246094-16.394531-23.289063-30.421874-24.988281zm-27.636719 99.804687c-34.75-16.679687-51.789063-43.984375-43.523438-70.242187 2.371094-7.523438 9.660157-13.460938 17.726563-14.4375.765625-.09375 1.519531-.140626 2.265625-.140626 6.761719 0 12.742187 3.777344 17.023437 10.816407 1.378906 2.269531 3.847656 3.660156 6.507813 3.660156 2.660156 0 5.128906-1.390625 6.511719-3.660156 4.753906-7.816407 11.605468-11.601563 19.289062-10.675781 8.066406.976562 15.355469 6.914062 17.722656 14.4375 8.269532 26.261718-8.769531 53.5625-43.523437 70.242187zm0 0"/><path d="m287.109375 284.042969h-16.929687c-4.210938 0-7.621094 3.410156-7.621094 7.621093 0 4.207032 3.410156 7.617188 7.621094 7.617188h16.929687c4.207031 0 7.621094-3.410156 7.621094-7.617188 0-4.210937-3.414063-7.621093-7.621094-7.621093zm0 0"/><path d="m97.480469 284.042969h-16.929688c-4.210937 0-7.621093 3.410156-7.621093 7.621093 0 4.207032 3.410156 7.617188 7.621093 7.617188h16.929688c4.210937 0 7.621093-3.410156 7.621093-7.617188 0-4.210937-3.410156-7.621093-7.621093-7.621093zm0 0"/></svg>