<svg width="24" height="17" viewBox="0 0 24 17" fill="none" xmlns="http://www.w3.org/2000/svg">
<path d="M8.885 7.07951C9.71167 7.47951 10.3517 8.06618 10.805 8.83951C11.2583 9.58618 11.485 10.4795 11.485 11.5195C11.485 13.0662 10.9917 14.3062 10.005 15.2395C9.01833 16.1728 7.75167 16.6395 6.205 16.6395C4.65833 16.6395 3.39167 16.1728 2.405 15.2395C1.41833 14.3062 0.925 13.0662 0.925 11.5195C0.925 10.8262 1.01833 10.1328 1.205 9.43951C1.39167 8.74618 1.81833 7.69284 2.485 6.27951L5.285 0.31951H10.885L8.885 7.07951ZM20.485 7.07951C21.3117 7.47951 21.9517 8.06618 22.405 8.83951C22.8583 9.58618 23.085 10.4795 23.085 11.5195C23.085 13.0662 22.5917 14.3062 21.605 15.2395C20.6183 16.1728 19.3517 16.6395 17.805 16.6395C16.2583 16.6395 14.9917 16.1728 14.005 15.2395C13.0183 14.3062 12.525 13.0662 12.525 11.5195C12.525 10.8262 12.6183 10.1328 12.805 9.43951C12.9917 8.74618 13.4183 7.69284 14.085 6.27951L16.885 0.31951H22.485L20.485 7.07951Z" fill="#F68E3D"/>
</svg>
