<svg id="Capa_1" enable-background="new 0 0 512 512" height="512" viewBox="0 0 512 512" width="512" xmlns="http://www.w3.org/2000/svg"><g><path d="m324.298 17.49c28.671 1.215 50.217 26.252 78.207 46.218 16.794 11.98 35.908 22.135 60.271 24.223 15.906 1.363 26.059 17.572 19.963 32.327-8.274 20.027-21.109 41.048-39.094 56.943-16.25 14.362-36.705 24.538-61.799 26.014-77.919 59.956-64.133-32.749-64.133-32.749z" fill="#005daf"/><path d="m328.128 293.074c-13.995 0-27.384-7.978-33.626-21.521-8.555-18.558-.445-40.538 18.113-49.092 14.202-6.547 35.164-17.568 54.372-32.897 16.133-12.874 27.712-26.154 34.414-39.468 9.189-18.254 31.434-25.6 49.687-16.413 18.252 9.188 25.601 31.434 16.413 49.687-11.535 22.914-29.823 44.459-54.355 64.036-25.011 19.96-51.629 33.999-69.553 42.262-5.015 2.311-10.282 3.406-15.465 3.406z" fill="#ffbd86"/><path d="m198.413 286.202c-4.686 0-9.45-.896-14.053-2.788-31.798-13.07-58.328-33.871-78.852-61.825-12.014-16.365-22.184-35.273-31.093-57.806-7.513-19.004 1.802-40.5 20.806-48.013 19.001-7.514 40.5 1.801 48.013 20.806 6.544 16.553 13.716 30.036 21.926 41.218 12.537 17.076 28.019 29.236 47.332 37.174 18.901 7.769 27.926 29.388 20.157 48.289-5.876 14.299-19.679 22.945-34.236 22.945z" fill="#fed2a4"/><path d="m156.957 486.827c-8.939-26.473-9.281-54.896-.989-82.197 7.958-26.2 23.361-50.538 44.543-70.384 14.914-13.971 38.327-13.209 52.3 1.704 13.971 14.913 13.208 38.328-1.704 52.3-11.558 10.828-20.199 24.283-24.331 37.886-3.835 12.626-3.736 25.08.294 37.015 6.538 19.361-3.858 40.356-23.219 46.894-19.362 6.537-40.356-3.857-46.894-23.218z" fill="#4677d4"/><path d="m326.834 503.543c-27.816-15.637-46.569-39.859-55.738-71.996-6.438-22.562-7.625-46.398-8.288-68.878-.604-20.426 15.466-37.474 35.892-38.077 20.444-.579 37.474 15.466 38.077 35.892.526 17.807 1.383 36.395 5.481 50.76 3.881 13.6 9.918 21.651 20.839 27.791 17.813 10.014 24.136 32.572 14.123 50.386-10.015 17.815-32.57 24.136-50.386 14.122z" fill="#4677d4"/><path d="m370.361 444.375c-2.149-2.025-4.573-3.828-7.263-5.341-10.921-6.139-16.958-14.19-20.839-27.79-4.098-14.365-4.955-32.952-5.481-50.76-.603-20.426-17.633-36.471-38.077-35.892-20.427.603-36.496 17.651-35.892 38.077.664 22.48 1.851 46.316 8.288 68.878 3.657 12.817 8.865 24.353 15.538 34.61 6.065-.718 12.085-1.577 18.031-2.615 23.149-4.04 45.174-10.475 65.695-19.167z" fill="#005daf"/><path d="m251.107 388.251c14.913-13.972 15.676-37.387 1.704-52.3-13.973-14.913-37.387-15.675-52.3-1.704-21.182 19.846-36.585 44.184-44.543 70.384-5.04 16.595-6.87 33.602-5.539 50.337 15.138 4.649 31.721 8.226 49.097 10.543 9.499 1.267 19.148 2.143 28.842 2.623-.316-1.665-.741-3.329-1.299-4.981-4.03-11.935-4.129-24.388-.294-37.015 4.133-13.604 12.774-27.059 24.332-37.887z" fill="#005daf"/><path d="m357.502 305.407c-1.109-4.11-1.669-8.368-1.622-12.625.052-4.684.321-8.415.693-10.725 2.182-13.571 1.475-26.937-1.652-39.482-32.538-.498-146.585 3.547-152.787 1.382-7.431 69.289-18.792 166.313 62.463 193.142 11.464-.672 23.097-1.965 34.754-4 24.498-4.277 49.082-11.765 72.318-23.311 13.527-6.722 19.071-23.178 12.254-36.657-9.28-18.35-19.201-40.969-26.421-67.724z" fill="#38d39a"/><path d="m230.411 262.505c12.115 2.652 24.71 3.997 37.435 3.997s25.32-1.345 37.436-3.997c7.737-1.694 15.354-3.941 22.639-6.679 9.586-3.603 18.614-8.055 27-13.251-4.24-17.013-12.939-32.513-24.992-44.939-14.292-14.734-33.287-25.151-55.113-28.66-31.677-5.094-62.251 5.499-83.806 26.052-15.059 14.358-25.716 33.577-29.274 55.705-2.286 14.222-3.12 28.711-3.191 41.893-.046 8.49-2.604 16.747-7.125 23.933-13.656 21.707-24.749 48.172-29.847 69.15-3.08 12.674 3.296 25.839 15.178 31.218 17.654 7.992 40.78 14.47 66.863 17.948 19.074 2.544 39.732 3.469 60.984 2.223-49.598-30.791-60.715-110.726-53.284-180.015 6.2 2.166 12.599 4 19.097 5.422z" fill="#00c072"/><path d="m335.795 218.011c19.263-11.208 34.58-27.325 43.77-47.065 6.166-13.245 9.577-28.118 9.577-44.227 0-14.732-2.852-28.824-8.056-41.796-11.971-29.843-36.385-53.759-67.143-65.895-14.212-5.607-29.779-8.7-46.098-8.7s-31.886 3.092-46.098 8.7c-1.53.604-3.039 1.244-4.536 1.906-96.41 64.238-43.425 229.243 118.584 197.077z" fill="#fed2a4"/><path d="m298.671 232.315c6.343-1.389 12.483-3.204 18.375-5.419 6.581-2.474 12.848-5.452 18.749-8.885-170.332 5.707-158.511-121.204-118.583-197.078-28.614 12.632-51.231 35.63-62.606 63.989-5.203 12.972-8.056 27.065-8.056 41.796 0 16.109 3.411 30.982 9.577 44.227 12.006 25.788 34.457 45.403 62.519 55.951 5.893 2.215 12.033 4.03 18.375 5.419 9.843 2.155 20.174 3.282 30.825 3.282s20.982-1.127 30.825-3.282z" fill="#ffbd86"/><path d="m379.401 46.297c-3.968-9.113-10.88-17.68-19.718-24.908-11.708-9.575-26.795-16.799-42.892-19.827-14.554-2.739-29.933-2.047-44.386 3.438-2.935 1.114-6.184 1.114-9.119 0-10.929-4.148-22.388-5.551-33.62-4.806-29.681 18.44-41.93 50.455-33.418 77.781 6.958.247 13.984-.021 20.836-.703 17.607-1.753 34.061-6.209 45.24-11.495 3.496-1.653 7.548-1.653 11.045 0 11.179 5.286 27.633 9.742 45.24 11.495 16.015 1.594 32.984.952 47.807-3.336 11.709-3.387 17.851-16.462 12.985-27.639z" fill="#4677d4"/><path d="m169.277 73.936c8.481 2.453 17.665 3.709 26.971 4.04 6.288-29.019 19.172-57.028 33.418-77.781-3.621.24-7.218.7-10.766 1.367-16.096 3.028-31.183 10.252-42.892 19.827-8.838 7.227-15.75 15.794-19.718 24.908-4.866 11.177 1.277 24.252 12.987 27.639z" fill="#005daf"/><path d="m464.974 297.159c-4.458-3.662-10.14-7.129-15.509-9.832-7.234-3.642-15.988.818-17.293 8.811-.967 5.922-1.502 12.543-1.163 18.295.109 1.857-.77 3.649-2.338 4.65-4.867 3.109-9.928 7.448-14.163 11.724-5.699 5.754-4.162 15.458 3.036 19.17 5.351 2.759 11.506 5.322 17.097 6.775 1.786.464 3.178 1.857 3.643 3.643 1.453 5.59 4.016 11.746 6.775 17.096 3.712 7.198 13.415 8.736 19.17 3.036 4.277-4.236 8.615-9.297 11.724-14.164 1.002-1.568 2.793-2.447 4.65-2.338 5.752.339 12.373-.196 18.295-1.163 7.993-1.305 12.453-10.059 8.811-17.293-2.703-5.369-6.17-11.051-9.832-15.509-1.177-1.433-1.49-3.408-.813-5.134 2.105-5.371 3.647-11.847 4.559-17.788 1.228-8.005-5.719-14.953-13.724-13.724-5.941.912-12.417 2.453-17.788 4.559-1.729.676-3.705.363-5.137-.814z" fill="#f7e969"/><path d="m508.977 350.808c-50.444 5.237-69.933-38.892-65.599-64.726-5.373.324-10.257 4.248-11.206 10.056-.967 5.921-1.502 12.543-1.163 18.295.109 1.857-.77 3.649-2.338 4.65-4.867 3.109-9.928 7.448-14.163 11.724-5.699 5.754-4.162 15.458 3.036 19.17 5.351 2.759 11.506 5.322 17.096 6.775 1.786.464 3.179 1.857 3.643 3.643 1.453 5.59 4.016 11.746 6.775 17.096 3.711 7.199 13.415 8.736 19.17 3.036 4.276-4.236 8.615-9.297 11.724-14.164 1.002-1.568 2.793-2.447 4.65-2.338 5.752.339 12.373-.196 18.295-1.163 6.112-.998 10.143-6.354 10.08-12.054z" fill="#f5c956"/><path d="m57.062 271.236c4.335-3.561 9.861-6.933 15.083-9.562 7.035-3.542 15.548.796 16.818 8.569.94 5.759 1.461 12.198 1.131 17.792-.106 1.806.749 3.548 2.274 4.522 4.733 3.023 9.655 7.243 13.774 11.402 5.543 5.596 4.048 15.033-2.953 18.643-5.204 2.683-11.19 5.175-16.626 6.588-1.737.452-3.091 1.806-3.543 3.543-1.413 5.436-3.905 11.423-6.588 16.626-3.609 7.001-13.047 8.495-18.643 2.953-4.159-4.119-8.378-9.041-11.402-13.774-.974-1.525-2.716-2.38-4.522-2.274-5.594.329-12.033-.191-17.792-1.131-7.773-1.27-12.111-9.783-8.569-16.818 2.629-5.221 6-10.747 9.562-15.083 1.144-1.393 1.449-3.314.791-4.993-2.048-5.224-3.546-11.521-4.433-17.299-1.195-7.785 5.562-14.542 13.347-13.347 5.778.887 12.075 2.386 17.299 4.433 1.678.659 3.599.355 4.992-.79z" fill="#f7e969"/><path d="m76.432 349.36c2.683-5.204 5.175-11.19 6.588-16.626.451-1.737 1.805-3.091 3.543-3.543 4.602-1.196 9.594-3.169 14.177-5.373-38.183.065-55.717-30.731-56.614-54.31-3.108-.801-6.303-1.445-9.355-1.914-7.785-1.195-14.542 5.561-13.347 13.347.887 5.778 2.386 12.075 4.433 17.299.658 1.679.354 3.6-.791 4.993-3.562 4.335-6.933 9.861-9.562 15.083-3.542 7.035.796 15.548 8.569 16.818 5.759.94 12.198 1.461 17.792 1.131 1.806-.106 3.548.749 4.522 2.274 3.024 4.733 7.243 9.655 11.402 13.774 5.596 5.542 15.034 4.048 18.643-2.953z" fill="#f5c956"/><path d="m54.483 17.59c-4.254-3.495-9.677-6.804-14.801-9.383-6.904-3.476-15.258.781-16.504 8.409-.923 5.651-1.433 11.971-1.11 17.46.104 1.772-.735 3.482-2.231 4.438-4.645 2.967-9.475 7.108-13.517 11.189-5.44 5.491-3.974 14.752 2.896 18.294 5.107 2.633 10.981 5.079 16.316 6.465 1.705.443 3.033 1.772 3.476 3.476 1.386 5.335 3.832 11.21 6.465 16.316 3.542 6.87 12.803 8.337 18.295 2.898 4.081-4.042 8.222-8.873 11.189-13.517.956-1.496 2.666-2.336 4.438-2.231 5.489.323 11.809-.187 17.46-1.11 7.628-1.246 11.885-9.6 8.409-16.504-2.58-5.124-5.888-10.547-9.384-14.801-1.123-1.367-1.422-3.252-.776-4.9 2.009-5.126 3.48-11.306 4.351-16.976 1.172-7.64-5.458-14.27-13.098-13.098-5.67.87-11.85 2.341-16.976 4.35-1.646.646-3.531.348-4.898-.775z" fill="#f7e969"/><path d="m96.477 68.79c-48.141 4.997-66.741-37.117-62.605-61.772-5.128.309-9.789 4.054-10.695 9.597-.923 5.651-1.433 11.971-1.11 17.46.104 1.772-.735 3.482-2.231 4.438-4.645 2.967-9.475 7.108-13.517 11.189-5.439 5.492-3.973 14.753 2.898 18.295 5.107 2.633 10.981 5.079 16.316 6.465 1.705.443 3.034 1.772 3.476 3.476 1.386 5.335 3.832 11.209 6.465 16.316 3.542 6.87 12.803 8.337 18.295 2.898 4.081-4.042 8.222-8.873 11.189-13.517.956-1.496 2.665-2.336 4.438-2.231 5.489.323 11.809-.187 17.46-1.11 5.834-.953 9.682-6.065 9.621-11.504z" fill="#f5c956"/><g fill="#425460"><path d="m218.647 141.849c-4.142 0-7.5-3.358-7.5-7.5 0-3.684-2.997-6.68-6.681-6.68s-6.68 2.996-6.68 6.68c0 4.142-3.358 7.5-7.5 7.5s-7.5-3.358-7.5-7.5c0-11.955 9.726-21.68 21.68-21.68 11.955 0 21.681 9.725 21.681 21.68 0 4.142-3.358 7.5-7.5 7.5z"/><path d="m345.406 141.849c-4.142 0-7.5-3.358-7.5-7.5 0-3.684-2.997-6.68-6.681-6.68s-6.68 2.996-6.68 6.68c0 4.142-3.358 7.5-7.5 7.5s-7.5-3.358-7.5-7.5c0-11.955 9.726-21.68 21.68-21.68 11.955 0 21.681 9.725 21.681 21.68 0 4.142-3.358 7.5-7.5 7.5z"/><path d="m267.846 165.276c-7.932 0-15.476-3.436-20.696-9.425-2.722-3.123-2.396-7.86.726-10.582s7.859-2.397 10.581.726c2.371 2.721 5.793 4.281 9.388 4.281 3.596 0 7.017-1.56 9.388-4.28 2.721-3.123 7.459-3.448 10.582-.727s3.448 7.459.727 10.581c-5.22 5.99-12.764 9.426-20.696 9.426z"/></g></g></svg>