<svg id="Capa_1" enable-background="new 0 0 512 512" height="512" viewBox="0 0 512 512" width="512" xmlns="http://www.w3.org/2000/svg"><g><g><g><g><path d="m367.5 105.11v359.39c0 8.49-2.65 16.36-7.16 22.83 0 0-326.848-66.221-279.04-422.22h246.2c22.09 0 40 17.9 40 40z" fill="#b5e9f1"/><path d="m361.94 435.39-1.6 51.94c-7.22 10.38-19.24 17.17-32.84 17.17h-280c-22.09 0-40-17.91-40-40v-359.39c0-22.1 17.91-40 40-40h33.8c.7 181.2 119.86 333.86 280.64 370.28z" fill="#9be1ec"/></g><g><path d="m332.5 110.11v317.17c-167.44-20.48-264.062-151.644-249.57-327.17h239.57c5.52 0 10 4.47 10 10z" fill="#fff8e6"/><path d="m332.5 427.28v32.22c0 5.52-4.48 10-10 10h-270c-5.52 0-10-4.48-10-10v-349.39c0-5.53 4.48-10 10-10h30.43c13.78 154.59 114 283.09 249.57 327.17z" fill="#fff1cf"/></g><path d="m235.666 47.5c-4.343 0-8.048-3.106-8.844-7.376-3.462-18.568-19.75-32.624-39.322-32.624s-35.86 14.056-39.321 32.624c-.796 4.27-4.501 7.376-8.844 7.376h-16.835c-11.046 0-20 8.954-20 20v28.212c0 11.046 8.954 20 20 20h130c11.046 0 20-8.954 20-20v-28.212c0-11.046-8.954-20-20-20z" fill="#ffce71"/><g><path d="m172.5 219.5v80c0 4.6-3.11 8.48-7.35 9.64-35.441-24.35-55.846-57.399-56.77-99.64h54.12c5.52 0 10 4.48 10 10z" fill="#ff6e80"/><path d="m165.15 309.14c-.84.24-1.73.36-2.65.36h-80c-5.52 0-10-4.48-10-10v-80c0-5.52 4.48-10 10-10h25.88c14.12 36.39 33.35 69.96 56.77 99.64z" fill="#fd5c6f"/></g><path d="m162.793 439.5h-80.586c-5.361 0-9.707-4.346-9.707-9.707v-80.586c0-5.361 4.346-9.707 9.707-9.707h80.586c5.361 0 9.707 4.346 9.707 9.707v80.586c0 5.361-4.346 9.707-9.707 9.707z" fill="#73da8c"/></g><g><path d="m387.037 320.309s11.687-35.917-9.781-61.501c-15.321-18.259-38.757-20.801-50.922-20.76-4.805.016-8.918 3.467-9.768 8.197-2.153 11.973-3.719 35.495 11.602 53.753 21.468 25.583 58.869 20.311 58.869 20.311z" fill="#8ce09f"/><path d="m504.5 392.84c0 26.29-11.28 54.97-29.48 76.7-116.536-4.84-151.179-90.177-120.73-167.56 9.56.12 20.1 1.86 31.65 5.52 3.94 1.25 8.18 1.25 12.12 0 73.52-23.31 106.44 31.32 106.44 85.34z" fill="#ff8a98"/><path d="m475.02 469.54c-16 19.11-37.36 32.84-61.1 34.84-4.47.37-10.38-.1-15.78-1.74-4-1.21-8.28-1.21-12.28 0-5.4 1.64-11.31 2.11-15.78 1.74-50.77-4.29-90.58-62.15-90.58-111.54 0-45.54 23.39-91.51 74.79-90.86-5.44 59.34 30.03 144.08 120.73 167.56z" fill="#ff6e80"/></g></g><g><g><g><path d="m162.5 317h-80c-9.649 0-17.5-7.851-17.5-17.5v-80c0-9.649 7.851-17.5 17.5-17.5h80c9.649 0 17.5 7.851 17.5 17.5v80c0 9.649-7.851 17.5-17.5 17.5zm-80-100c-1.378 0-2.5 1.122-2.5 2.5v80c0 1.378 1.122 2.5 2.5 2.5h80c1.378 0 2.5-1.122 2.5-2.5v-80c0-1.378-1.122-2.5-2.5-2.5z"/><path d="m147.803 239.911c-2.929-2.929-7.678-2.929-10.606 0l-23.268 23.268-6.125-6.125c-2.929-2.929-7.678-2.929-10.606 0-2.929 2.929-2.929 7.678 0 10.606l11.429 11.429c1.464 1.464 3.384 2.197 5.303 2.197s3.839-.732 5.303-2.197l28.571-28.571c2.928-2.929 2.928-7.678-.001-10.607z"/></g><g><path d="m162.5 447h-80c-9.649 0-17.5-7.851-17.5-17.5v-80c0-9.649 7.851-17.5 17.5-17.5h80c9.649 0 17.5 7.851 17.5 17.5v80c0 9.649-7.851 17.5-17.5 17.5zm-80-100c-1.378 0-2.5 1.122-2.5 2.5v80c0 1.378 1.122 2.5 2.5 2.5h80c1.378 0 2.5-1.122 2.5-2.5v-80c0-1.378-1.122-2.5-2.5-2.5z"/><path d="m147.803 369.911c-2.929-2.929-7.678-2.929-10.606 0l-23.268 23.268-6.125-6.125c-2.929-2.929-7.678-2.929-10.606 0-2.929 2.929-2.929 7.678 0 10.606l11.429 11.429c1.464 1.464 3.384 2.197 5.303 2.197s3.839-.732 5.303-2.197l28.571-28.571c2.928-2.929 2.928-7.678-.001-10.607z"/></g><g><path d="m248.935 249.5h-46.363c-4.142 0-7.5-3.358-7.5-7.5s3.358-7.5 7.5-7.5h46.363c4.142 0 7.5 3.358 7.5 7.5s-3.358 7.5-7.5 7.5z"/><path d="m282.5 284.5h-79.928c-4.142 0-7.5-3.358-7.5-7.5s3.358-7.5 7.5-7.5h79.928c4.142 0 7.5 3.358 7.5 7.5s-3.358 7.5-7.5 7.5z"/></g><path d="m248.935 379.5h-46.363c-4.142 0-7.5-3.358-7.5-7.5s3.358-7.5 7.5-7.5h46.363c4.142 0 7.5 3.358 7.5 7.5s-3.358 7.5-7.5 7.5z"/><g><path d="m125.051 170.212c-4.142 0-7.5-3.358-7.5-7.5v-12c0-4.142 3.358-7.5 7.5-7.5s7.5 3.358 7.5 7.5v12c0 4.142-3.358 7.5-7.5 7.5z"/><path d="m249.949 170.212c-4.142 0-7.5-3.358-7.5-7.5v-12c0-4.142 3.358-7.5 7.5-7.5s7.5 3.358 7.5 7.5v12c0 4.142-3.358 7.5-7.5 7.5z"/><path d="m187.5 177.355c-8.478 0-16.54-3.671-22.119-10.073-2.721-3.123-2.396-7.86.727-10.582 3.123-2.721 7.86-2.396 10.582.727 2.729 3.132 6.669 4.928 10.81 4.928s8.081-1.796 10.81-4.928c2.722-3.123 7.459-3.447 10.582-.727 3.123 2.722 3.448 7.459.727 10.582-5.579 6.402-13.641 10.073-22.119 10.073z"/></g><path d="m239.617 93.212h-105c-4.142 0-7.5-3.358-7.5-7.5s3.358-7.5 7.5-7.5h105c4.142 0 7.5 3.358 7.5 7.5s-3.358 7.5-7.5 7.5z"/><circle cx="187.5" cy="47.5" r="7.5"/></g><path d="m475.507 308.427c-23.616-17.286-51.51-15.625-72.788-10.08 3.908-10.068 9.235-19.566 16.119-28.78 2.479-3.318 1.799-8.018-1.519-10.498-3.318-2.479-8.019-1.798-10.498 1.519-4.293 5.747-8.092 11.705-11.383 17.848-2.131-8.323-5.976-16.754-12.435-24.451-2.509-2.988-5.198-5.604-8.004-7.893v-140.982c0-26.191-21.309-47.5-47.5-47.5h-49.339c-3.98-10.292-13.981-17.61-25.66-17.61h-16.83c-.731 0-1.339-.519-1.477-1.254-4.186-22.451-23.822-38.746-46.693-38.746s-42.507 16.295-46.691 38.738c-.14.743-.747 1.262-1.479 1.262h-16.83c-11.679 0-21.68 7.318-25.661 17.61h-49.339c-26.191 0-47.5 21.308-47.5 47.5v359.39c0 26.191 21.309 47.5 47.5 47.5h290c5.328 0 10.586-1.137 15.394-3.309 5.438 1.625 10.976 2.689 16.567 3.161 1.198.099 2.43.148 3.682.148 4.944 0 10.202-.761 14.888-2.184 2.596-.786 5.342-.785 7.93-.002 5.88 1.786 12.652 2.526 18.59 2.037 55.774-4.713 97.449-66.721 97.449-119.014 0-36.128-13.642-67.683-36.493-84.41zm-103.993-44.799c9.098 10.843 11.394 23.99 11.196 35.093-19.1-5.246-34.858-5.254-47.742-2.336-.359-.398-.711-.801-1.052-1.208-13.283-15.833-11.945-36.625-9.964-47.613.209-1.167 1.216-2.015 2.403-2.017 11.171-.07 31.881 2.265 45.159 18.081zm-91.514-191.018h47.5c17.92 0 32.5 14.58 32.5 32.5v131.936c-6.863-2.967-13.776-4.639-20-5.541v-121.395c0-9.649-7.851-17.5-17.5-17.5h-42.5zm133.301 424.293c-3.126.261-8.18.017-12.989-1.444-5.436-1.644-11.185-1.645-16.631.002-4.802 1.458-9.855 1.701-12.969 1.443-47.145-3.984-83.712-59.213-83.712-104.067 0-13.537 2.215-26.827 6.404-38.434 1.407-3.896-.611-8.194-4.508-9.601-3.896-1.407-8.194.611-9.601 4.508-4.773 13.221-7.296 28.272-7.296 43.526 0 2.208.073 4.43.216 6.663h-69.645c-4.142 0-7.5 3.358-7.5 7.5s3.358 7.5 7.5 7.5h71.634c3.266 16.367 10.074 32.755 19.825 47.5h-241.529c-1.378 0-2.5-1.122-2.5-2.5v-61.43c0-4.142-3.358-7.5-7.5-7.5s-7.5 3.358-7.5 7.5v61.43c0 9.649 7.851 17.5 17.5 17.5h252.996c7.001 7.939 14.639 14.645 22.722 20h-280.718c-17.92.001-32.5-14.579-32.5-32.499v-359.39c0-17.92 14.58-32.5 32.5-32.5h47.5v20h-42.5c-9.649 0-17.5 7.851-17.5 17.5v252.96c0 4.142 3.358 7.5 7.5 7.5s7.5-3.358 7.5-7.5v-252.96c0-1.378 1.122-2.5 2.5-2.5h45.21c4.445 9.222 13.886 15.6 24.79 15.6h52.96c4.142 0 7.5-3.358 7.5-7.5s-3.358-7.5-7.5-7.5h-52.96c-6.893 0-12.5-5.607-12.5-12.5v-28.21c0-6.893 5.607-12.5 12.5-12.5h16.83c7.934 0 14.756-5.677 16.223-13.505 2.862-15.352 16.298-26.495 31.947-26.495s29.085 11.143 31.948 26.502c1.466 7.821 8.288 13.498 16.222 13.498h16.83c6.893 0 12.5 5.607 12.5 12.5v28.21c0 6.893-5.607 12.5-12.5 12.5h-42.04c-4.142 0-7.5 3.358-7.5 7.5s3.358 7.5 7.5 7.5h42.04c10.904 0 20.345-6.378 24.79-15.6h45.21c1.378 0 2.5 1.122 2.5 2.5v120.49c-7.856.605-14.397 6.442-15.811 14.308-2.32 12.866-3.817 36.753 10.71 56.683-8.688 4.143-15.546 9.608-20.841 15.085-2.879 2.978-2.798 7.726.18 10.605 2.979 2.879 7.727 2.798 10.605-.18 17.357-17.956 42.888-22.261 73.829-12.454 5.448 1.728 11.208 1.729 16.655 0 26.984-8.557 49.298-6.577 66.321 5.884 19.005 13.912 30.352 40.943 30.352 72.306 0 44.854-36.567 100.083-83.699 104.066z"/></g></g></svg>