<svg id="Capa_1" enable-background="new 0 0 512 512" height="512" viewBox="0 0 512 512" width="512" xmlns="http://www.w3.org/2000/svg"><g><path d="m344.278.603c-48.361 0-87.122 45.21-87.122 93.571l-1.156 38.719 16.636 11.08 14.269-11.08v-45.328c0-31.292 25.368-56.66 56.66-56.66h51.086c12.74 0 25.231 3.522 36.095 10.176 16.083 9.851 34.575 15.064 53.435 15.064 15.364 0 27.819-12.455 27.819-27.819v-.507c0-15.364-12.455-27.819-27.819-27.819h-129.514z" fill="#feaee1"/><path d="m359.018 0c-48.357 0-87.565 39.209-87.565 87.565v45.328l-7.759 6.696-7.694-6.696-10.631-26.182 10.631-19.146c0-48.356 39.209-87.565 87.565-87.565z" fill="#fe93d3"/><path d="m168.435 0h-126.209l-12.756.625c-15.364 0-27.793 11.83-27.793 27.194 0 15.364 10.062 26.156 25.426 26.156 3.639 0 11.581 1.097 11.581 1.097 15.063-1.581 29.645-6.437 42.705-14.276l.062-.037c10.742-6.448 23.035-9.854 35.564-9.854h51.421c1.521 0 3.028.06 4.519.178 6.579.519 13.88.02 19.635 2.595 19.77 8.845 36.648 30.828 36.648 53.887v45.328l8.329 6.696 18.433-6.696v-45.328c0-48.361-39.204-87.565-87.565-87.565z" fill="#feaee1"/><path d="m24.632 47.491c3.781 3.781 8.622 6.468 14.052 7.58-3.606.371-7.232.568-10.868.568-7.685 0-14.629-3.111-19.666-8.149-5.039-5.036-8.15-11.99-8.15-19.675 0-15.36 12.455-27.815 27.815-27.815h16.483c-15.36 0-27.815 12.455-27.815 27.815 0 7.685 3.111 14.639 8.149 19.676z" fill="#fe93d3"/><path d="m241.577 87.565v45.328l-9.096 6.696-7.387-6.696v-45.328c0-31.297-25.363-56.66-56.66-56.66h16.483c31.297 0 56.66 25.364 56.66 56.66z" fill="#fe93d3"/><g><path d="m241.577 369.561h28.845v47.936h-28.845z" fill="#feaee1"/></g><path d="m268.877 408.982h-25.755c-17.07 0-30.905 13.835-30.905 30.905v41.207c0 17.07 13.835 30.905 30.905 30.905h25.755c17.07 0 30.905-13.835 30.905-30.905v-41.207c.001-17.07-13.835-30.905-30.905-30.905zm-1.545 72.113h-22.664c-1.707 0-3.091-1.384-3.091-3.091v-35.026c0-1.707 1.384-3.091 3.091-3.091h22.664c1.707 0 3.091 1.384 3.091 3.091v35.026c0 1.707-1.384 3.091-3.091 3.091z" fill="#ffbee7"/><path d="m291.541 378.076h-49.964l-16.439-2.751c-3.983 0-7.211-3.229-7.211-7.211l-2.367-225.588c0-3.983 3.229-7.211 7.211-7.211l18.806-2.422h49.964c3.983 0 7.211 3.229 7.211 7.211v230.761c.001 3.983-3.228 7.211-7.211 7.211z" fill="#ffbee7"/><path d="m241.577 132.893v245.183h-21.119c-3.987 0-7.211-3.224-7.211-7.211v-230.76c0-3.987 3.224-7.211 7.211-7.211h21.119z" fill="#feaee1"/></g></svg>