<svg height="512" viewBox="0 0 300 300" width="512" xmlns="http://www.w3.org/2000/svg"><g id="color_line" data-name="color line"><path d="m176.85 101.94c0-20.06 5.55-40.29 10.28-53.86h-123.03c4.72 13.57 10.28 33.8 10.28 53.86 0 34.88-16.81 52.09-16.81 52.09s31.19 13 68 13 68.05-13 68.05-13-16.77-17.21-16.77-52.09z" fill="#f4b4c9"/><path d="m50.85 250.2a252.1 252.1 0 0 1 -7.24-53.74s65.84 6 82 32.8c16.17-26.76 82-32.8 82-32.8a252.1 252.1 0 0 1 -7.24 53.74z" fill="#f4b4c9"/><path d="m125.61 229.26c-16.16-26.76-82-32.8-82-32.8 0-29.47 14-42.43 14-42.43s31.19 13 68 13 68.05-13 68.05-13 14 13 14 42.43c0 0-65.84 6-82 32.8" fill="#f4e0e4"/><path d="m196.34 197.93c-.75-21.91-7.52-35.08-11.32-40.81-11.77 3.88-34.27 9.88-59.41 9.88-36.85 0-68-13-68-13s-14 13-14 42.43c0 0 65.84 6 82 32.8 11.97-19.79 51.19-28.23 70.73-31.3z" fill="#ea6094"/><path d="m261.23 114.53c-13.7-5-16.52-14.93-9.93-26.87-12.3 4.53-24.46-2.76-23.3-15.96-3.13 9.16-21.62 10.68-25.19 1.12.39 3.69-1.82 13.67-11.63 10.94-1 3-3.2 9.12-4.29 12.14 4 1.65 16.94 3.3 22.22-7 4.18 1.69 9.63 2.26 14.25.1 2.89 5 7.05 8.7 13.65 9.84-.44 7 1.62 13.48 8.31 18.55-2.82 4.11-4.62 9.86-3.33 15.42-6 1.52-10.44 4.46-13.62 11-7.26-2.52-14.17-1.95-22.19 6.1l9.35 8.83s2.27-5.39 7.2-5.38c8.09 0 10.59 5 10.59 5 1-11.7 11.73-18.15 23.16-16.84-7.98-10.31-5.04-21.32 4.75-26.99z" fill="#ea6094"/><g fill="#3e3a39"><path d="m197.21 150.5c-20-22.82-18.59-65.09-5.36-100.78a5 5 0 1 0 -9.44-3.28c-12.26 33.18-16.45 77.08 3.13 105.23-37.76 13.48-82.22 13.43-119.86 0 19.6-28.23 15.39-72 3.14-105.23a5 5 0 0 0 -9.45 3.28c4.57 13.11 10 32.82 10 52.22 0 31.86-14.95 48.12-15.37 48.57-16.94 17.28-20 51.08-8 100.88 1.76 6.34 11.08 4.12 9.72-2.38a259.91 259.91 0 0 1 -6.91-46.94c20.22 2.63 59.83 11.13 71.81 28.7v21.15a5 5 0 0 0 10 0v-21.19c9.63-15.93 50.44-26.26 71.82-28.62a261 261 0 0 1 -6.91 46.9 5 5 0 1 0 9.71 2.38c11.95-49.85 8.92-83.6-8.03-100.89zm-71.59 70.5c-13.26-16.3-54.49-26.69-76.9-29 .91-17.58 7.07-27.82 10.28-32 41.06 15.75 92.34 15.66 133.17 0 3.24 4.23 9.39 14.47 10.31 32.05-14.48 1.77-58.34 8.81-76.86 28.95z"/><path d="m125.61 138.72a3.94 3.94 0 0 0 0-7.88 3.94 3.94 0 0 0 0 7.88z"/></g></g></svg>