<svg id="Layer_1" height="512" viewBox="0 0 256 256" width="512" xmlns="http://www.w3.org/2000/svg"><g><path d="m226.373 26.583s3.408 12.659 13.222 13.246c0 0-13.1 4.525-13.321 14.202 0 0-2.579-13.572-12.925-14.059 0 0 12.051-1.826 13.024-13.389z" fill="#d7e057"/><path d="m226.273 55.531c-.713 0-1.335-.506-1.472-1.217-.024-.124-2.494-12.418-11.522-12.843-.771-.037-1.388-.651-1.428-1.421-.04-.771.511-1.445 1.273-1.561.441-.069 10.894-1.817 11.754-12.033.061-.725.634-1.301 1.359-1.367.722-.066 1.393.398 1.583 1.102.032.116 3.259 11.626 11.864 12.141.714.043 1.297.584 1.395 1.292s-.319 1.388-.994 1.623c-.121.042-12.118 4.31-12.313 12.819-.018.767-.61 1.396-1.374 1.459-.041.004-.084.006-.125.006zm-7.741-15.73c3.878 1.969 6.23 5.746 7.586 8.877 2.027-4.022 5.942-6.787 8.949-8.427-4.134-1.842-6.783-5.652-8.334-8.723-1.792 4.36-5.27 6.868-8.201 8.273z" fill="#3a312a"/><path d="m204.675 43.563s2.411 8.954 9.352 9.369c0 0-9.266 3.201-9.422 10.045 0 0-1.824-9.6-9.142-9.944-.001.001 8.523-1.291 9.212-9.47z" fill="#d7e057"/><path d="m204.603 64.478c-.714 0-1.337-.507-1.473-1.22-.016-.082-1.704-8.442-7.739-8.726-.77-.037-1.387-.651-1.427-1.421-.04-.771.511-1.445 1.273-1.561.296-.047 7.364-1.243 7.942-8.114.061-.726.635-1.303 1.361-1.368.719-.063 1.392.4 1.582 1.104.042.15 2.254 7.92 7.993 8.263.715.043 1.299.584 1.396 1.293.098.709-.319 1.388-.996 1.622-.081.028-8.282 2.953-8.413 8.662-.018.767-.611 1.397-1.376 1.461-.04.004-.082.005-.123.005zm-4.519-11.527c2.107 1.333 3.523 3.394 4.447 5.28 1.376-2.232 3.515-3.872 5.365-4.973-2.287-1.269-3.884-3.35-4.941-5.224-1.173 2.287-3.015 3.875-4.871 4.917z" fill="#3a312a"/><path d="m204.675 16.906s2.411 8.954 9.352 9.37c0 0-9.266 3.201-9.422 10.045 0 0-1.824-9.6-9.142-9.944-.001-.001 8.523-1.292 9.212-9.471z" fill="#d7e057"/><path d="m204.603 37.821c-.713 0-1.337-.507-1.472-1.22-.016-.082-1.704-8.442-7.739-8.726-.771-.037-1.388-.651-1.428-1.421-.04-.771.511-1.445 1.273-1.56.296-.047 7.364-1.243 7.942-8.114.061-.726.635-1.303 1.36-1.368.732-.063 1.392.399 1.582 1.102.021.079 2.227 7.92 7.994 8.265.714.043 1.299.585 1.396 1.294.098.709-.32 1.388-.996 1.622-.081.028-8.282 2.952-8.413 8.662-.018.767-.611 1.397-1.376 1.461-.04.001-.082.003-.123.003zm-4.519-11.528c2.107 1.333 3.523 3.394 4.447 5.28 1.376-2.233 3.515-3.872 5.365-4.973-2.287-1.269-3.884-3.35-4.941-5.224-1.173 2.287-3.015 3.876-4.871 4.917z" fill="#3a312a"/><path d="m210.647 138.035h18.329l-11.157 35.192h21.776l-18.5 49.723-.333-37.993h-24.5z" fill="#d7e057"/><path d="m221.096 224.45c-.086 0-.173-.007-.26-.022-.712-.125-1.234-.741-1.241-1.464l-.32-36.506h-23.013c-.476 0-.923-.226-1.206-.608s-.368-.876-.228-1.331l14.384-46.922c.193-.63.775-1.061 1.434-1.061h18.33c.478 0 .928.228 1.21.614s.364.884.219 1.339l-10.537 33.239h19.727c.491 0 .952.241 1.232.644s.345.918.174 1.379l-18.5 49.724c-.221.593-.788.975-1.405.975zm-22.805-40.993h22.471c.823 0 1.493.664 1.5 1.487l.262 29.865 14.913-40.082h-19.617c-.478 0-.928-.228-1.21-.614s-.364-.884-.219-1.339l10.537-33.239h-15.171z" fill="#3a312a"/><path d="m174.04 99.652-3.251 10.604h17.911l.244 27.777 13.526-36.353h-15.921l8.157-25.728h-13.401l-2.903 9.471z" fill="#d7e057"/><path d="m188.945 139.533c-.086 0-.173-.007-.26-.023-.712-.125-1.234-.741-1.241-1.464l-.23-26.29h-16.425c-.476 0-.923-.226-1.206-.608s-.368-.876-.228-1.331l3.251-10.604c.242-.793 1.082-1.238 1.874-.995s1.237 1.082.995 1.874l-2.656 8.665h15.883c.823 0 1.493.664 1.5 1.487l.172 19.648 9.938-26.711h-13.762c-.478 0-.928-.228-1.21-.614s-.364-.884-.219-1.339l7.537-23.775h-10.243l-2.578 8.41c-.243.792-1.083 1.238-1.874.995-.792-.243-1.237-1.081-.995-1.873l2.903-9.471c.193-.63.775-1.061 1.434-1.061h13.401c.478 0 .928.228 1.21.614s.364.884.219 1.339l-7.537 23.775h13.871c.491 0 .952.241 1.232.644s.345.918.174 1.379l-13.525 36.353c-.221.594-.788.976-1.405.976z" fill="#3a312a"/><path d="m154.896 135.452h13.401l-8.157 25.728h15.92l-13.525 36.353-.244-27.776h-17.912z" fill="#d7e057"/><path d="m162.536 199.033c-.086 0-.173-.007-.26-.023-.712-.125-1.234-.741-1.241-1.464l-.23-26.29h-16.425c-.476 0-.923-.225-1.206-.608-.283-.382-.368-.876-.228-1.331l10.517-34.305c.193-.63.775-1.061 1.434-1.061h13.401c.479 0 .928.228 1.21.614s.364.884.219 1.339l-7.538 23.775h13.871c.491 0 .952.241 1.232.644s.345.919.174 1.379l-13.525 36.353c-.221.596-.788.978-1.405.978zm-16.128-30.777h15.883c.823 0 1.493.664 1.5 1.487l.172 19.648 9.938-26.711h-13.761c-.479 0-.928-.228-1.21-.614s-.364-.884-.219-1.339l7.538-23.775h-10.243z" fill="#3a312a"/><path d="m111.905 47.773c-8.176 9.52-50.648 37.444-70.77 20.163-6.465-5.552 17.572 4.2 47.359-40.269 6.926-10.341 20.044-12.736 26.509-7.184s5.078 17.77-3.098 27.29z" fill="#87796f"/><path d="m57.571 74.929c-6.516 0-12.552-1.68-17.413-5.855-.644-.553-1.842-1.582-1.534-2.948.318-1.412 1.68-1.783 4.151-2.457 6.625-1.806 24.222-6.604 44.473-36.837 3.847-5.743 9.993-9.696 16.439-10.575 4.77-.651 9.251.475 12.293 3.088 3.516 3.019 5.098 7.8 4.455 13.464-.619 5.45-3.244 11.111-7.392 15.941h-.001c-6.036 7.029-33.478 26.179-55.471 26.179zm-15.306-8.002c18.911 15.909 60.168-10.428 68.502-20.132 3.76-4.378 6.135-9.466 6.687-14.325.527-4.646-.69-8.498-3.428-10.85-2.392-2.055-6.012-2.924-9.934-2.392-5.61.765-10.976 4.231-14.353 9.273-20.873 31.164-39.255 36.176-46.175 38.062-.437.12-.899.246-1.299.364zm69.64-19.154h.01z" fill="#3a312a"/><ellipse cx="124.529" cy="64.215" fill="#f4e0c4" rx="30.752" ry="21.81" transform="matrix(.509 -.861 .861 .509 5.875 138.729)"/><path d="m117.346 94.438c-3.327 0-6.461-.821-9.234-2.462-11.062-6.543-12.698-24.32-3.646-39.628 4.338-7.335 10.463-13.043 17.247-16.071 6.958-3.106 13.789-3.043 19.233.177 11.063 6.543 12.698 24.321 3.646 39.628-4.338 7.336-10.463 13.043-17.247 16.071-3.413 1.524-6.796 2.285-9.999 2.285zm14.359-57.44c-2.786 0-5.754.673-8.769 2.019-6.221 2.776-11.863 8.053-15.887 14.858-8.21 13.883-7.048 29.817 2.591 35.518 4.584 2.712 10.438 2.719 16.483.02 6.22-2.777 11.863-8.054 15.887-14.859 8.21-13.883 7.048-29.817-2.591-35.519-2.298-1.357-4.915-2.037-7.714-2.037zm11.596 38.321h.01z" fill="#3a312a"/><path d="m99.517 46.642c-9.317 15.758-7.032 34.36 5.102 41.533.766.448 1.542.845 2.346 1.179-4.354-7.496-3.85-19.716 2.301-30.121 1.682-2.856 3.65-5.365 5.79-7.531 11.033 3.761 22.46 6.037 33.905 4.778 1.186-10.725-2.499-20.592-10.588-25.375-12.136-7.188-29.526-.224-38.856 15.537z" fill="#87796f"/><path d="m106.964 90.854c-.193 0-.389-.037-.575-.115-.829-.344-1.656-.759-2.528-1.269-12.835-7.589-15.361-27.142-5.635-43.591 0 0 0 0 0-.001 4.682-7.908 11.468-13.946 19.11-17.003 7.782-3.112 15.525-2.779 21.802.939 8.268 4.888 12.604 15.169 11.314 26.831-.077.698-.628 1.249-1.327 1.326-10.101 1.111-21.115-.376-33.648-4.544-1.872 1.994-3.524 4.199-4.919 6.568-5.617 9.503-6.561 21.266-2.297 28.607.323.557.256 1.257-.168 1.742-.291.331-.705.51-1.129.51zm-6.156-43.449c-8.461 14.311-7.001 31.058 3.012 38.445-2.503-8.046-1.011-18.64 4.155-27.38 1.677-2.848 3.701-5.481 6.015-7.822.405-.41 1.008-.551 1.551-.366 11.974 4.082 22.471 5.665 32.042 4.827.75-9.967-3.011-18.598-9.972-22.713-5.46-3.233-12.264-3.494-19.161-.735-7.031 2.812-13.297 8.404-17.642 15.744z" fill="#3a312a"/><path d="m128.383 72.304c-.935 1.581-3.407 1.848-5.521.597-2.115-1.25-3.071-3.546-2.136-5.127s3.407-1.848 5.521-.597 3.071 3.546 2.136 5.127z" fill="#f59689"/><path d="m129.215 91.032c-.046 0-.093-.002-.14-.006-.825-.076-1.432-.807-1.356-1.631.231-2.506-.585-4.333-2.569-5.748-.674-.481-.831-1.418-.35-2.092s1.417-.831 2.092-.35c2.861 2.041 4.145 4.889 3.814 8.466-.071.777-.725 1.361-1.491 1.361z" fill="#3a312a"/><path d="m69.254 134.686 17.318-36.931c3.544-7.557 12.26-11.029 19.943-8.187 8.922 3.305 12.723 13.579 8.681 22.198l-17.092 36.448z" fill="#ea6d7a"/><path d="m98.104 149.715c-.218 0-.436-.047-.637-.142l-28.85-13.529c-.36-.169-.639-.474-.774-.848s-.116-.787.053-1.146l17.318-36.931c3.816-8.138 13.402-12.073 21.821-8.956 4.562 1.69 8.092 5.105 9.939 9.618 1.907 4.656 1.754 9.986-.421 14.624l-17.092 36.448c-.169.36-.474.639-.848.774-.164.059-.337.088-.509.088zm-26.855-15.75 26.134 12.255 16.455-35.09c1.819-3.88 1.951-8.331.361-12.213-1.526-3.726-4.44-6.546-8.205-7.941-6.969-2.579-14.904.679-18.063 7.416z" fill="#3a312a"/><path d="m158.494 228.071c-.239-3.592-3.349-6.312-6.949-6.067l-13.245.882-1.676-75.188c-.064-.951-.469-3.684-2.347-5.861-1.987-2.304-4.331-3.264-6.196-3.597-.199-.036-28.308-3.662-49.197-6.165-7.321-.878-13.762 4.842-13.762 12.215v.001c0 6.634 5.253 12.073 11.883 12.296 4.797.161 39.001 1.309 39.378 1.322h.001l8.392 68.758c.816 5.764 1.588 10.22 7.345 9.827.498-.035 20.293-1.475 20.293-1.475 3.598-.246 6.318-3.356 6.08-6.948z" fill="#f0dcc1"/><path d="m131.419 238.019c-6.552 0-7.388-5.907-8.129-11.142l-8.24-67.513c-3.948-.133-16.224-.545-25.893-.87l-12.202-.41c-7.477-.251-13.333-6.31-13.333-13.795 0-3.945 1.692-7.708 4.643-10.327 2.949-2.616 6.886-3.845 10.798-3.379 20.702 2.481 49.055 6.137 49.283 6.178 1.906.34 4.68 1.326 7.067 4.093 2.269 2.63 2.646 5.824 2.707 6.741l1.645 73.688 11.681-.777c2.139-.148 4.207.551 5.823 1.962 1.614 1.41 2.58 3.364 2.723 5.502.292 4.41-3.061 8.242-7.476 8.543.002 0-19.791 1.44-20.289 1.475-.28.021-.548.031-.808.031zm-53.996-104.532c-2.625 0-5.182.96-7.167 2.721-2.31 2.049-3.634 4.995-3.634 8.082 0 5.858 4.583 10.6 10.434 10.797l11.993.402c11.615.39 27.134.911 27.387.92.738.026 1.347.585 1.437 1.317l8.392 68.758c.887 6.259 1.659 8.794 5.754 8.513.495-.035 20.286-1.475 20.286-1.475 2.774-.19 4.877-2.59 4.694-5.353-.089-1.337-.694-2.559-1.704-3.441-1.011-.884-2.305-1.319-3.647-1.228l-13.248.882c-.403.035-.81-.113-1.112-.39-.302-.276-.478-.664-.487-1.073l-1.676-75.188c-.03-.418-.279-2.939-1.983-4.915-1.812-2.101-3.896-2.845-5.324-3.1-.417-.059-28.262-3.653-49.112-6.153-.428-.051-.857-.076-1.283-.076z" fill="#3a312a"/><path d="m116.385 157.91 7.456 61.128 14.335-1.741-1.552-69.602c-.063-.943-.472-3.681-2.349-5.862-1.982-2.297-4.331-3.261-6.198-3.596-.195-.034-28.305-3.66-49.194-6.163-7.321-.877-13.762 4.843-13.762 12.216 0 6.634 5.259 12.073 11.889 12.295 1.84.061 39.147 1.315 39.375 1.325z" fill="#87796f"/><path d="m123.839 220.538c-.748 0-1.394-.558-1.487-1.318l-7.301-59.855c-6.525-.221-35.962-1.209-38.091-1.281-7.479-.251-13.339-6.31-13.339-13.795 0-3.944 1.692-7.708 4.642-10.326 2.948-2.616 6.882-3.849 10.798-3.379 20.475 2.454 49.02 6.131 49.272 6.174 1.918.345 4.694 1.333 7.078 4.095 2.33 2.707 2.666 6.09 2.71 6.741l1.555 69.67c.017.771-.553 1.429-1.319 1.522l-14.335 1.741c-.062.008-.123.011-.183.011zm-46.416-87.052c-2.626 0-5.183.96-7.168 2.721-2.309 2.049-3.633 4.995-3.633 8.082 0 5.858 4.585 10.601 10.439 10.797.387.013 39.14 1.314 39.391 1.325.732.033 1.333.59 1.421 1.317l7.275 59.64 11.498-1.396-1.521-68.244c-.017-.229-.243-2.891-1.986-4.917-1.808-2.095-3.895-2.841-5.327-3.099-.447-.063-28.03-3.624-49.107-6.15-.428-.051-.856-.076-1.282-.076z" fill="#3a312a"/><path d="m68.673 134.975c3.371-.779 5.377-4.285 4.679-7.668l-1.306-6.378-12.323 2.52 1.36 6.664c.702 3.458 4.124 5.67 7.59 4.862z" fill="#f6e2c6"/><path d="m67.222 136.644c-1.474 0-2.918-.421-4.19-1.237-1.783-1.145-2.997-2.919-3.419-4.995l-1.36-6.663c-.165-.812.358-1.604 1.17-1.77l12.323-2.52c.809-.165 1.604.357 1.77 1.168l1.307 6.378c.878 4.255-1.727 8.486-5.808 9.431-.598.139-1.198.208-1.793.208zm-5.73-12.026 1.061 5.196c.259 1.276 1.005 2.365 2.1 3.068 1.098.704 2.404.93 3.68.632h.003c2.508-.58 4.1-3.228 3.547-5.904l-1.006-4.911z" fill="#3a312a"/><path d="m87.77 108.09-18.714-1.95c-.01.002-.029.016-.024.037l3.02 14.754-12.329 2.523-4.748-23.199c-.589-2.877.876-5.917 3.859-7.137.969-.391 2.032-.48 3.061-.37l27.177 2.819z" fill="#ea6d7a"/><path d="m59.721 124.954c-.698 0-1.323-.49-1.468-1.2l-4.748-23.198c-.752-3.678 1.25-7.39 4.761-8.827 1.144-.462 2.416-.619 3.789-.473l27.172 2.818c.824.086 1.423.823 1.337 1.647-.085.824-.825 1.424-1.647 1.337l-27.178-2.818c-.87-.095-1.678 0-2.344.269-2.206.903-3.423 3.143-2.951 5.446l4.447 21.729 9.389-1.921-2.719-13.284c-.08-.391.011-.816.232-1.148.221-.333.577-.582.968-.66.147-.03.299-.037.449-.021l18.714 1.95c.824.086 1.422.823 1.336 1.647-.085.824-.826 1.427-1.647 1.336l-16.712-1.741 2.618 12.789c.08.39.002.795-.218 1.127-.219.332-.562.563-.951.643l-12.329 2.523c-.1.019-.201.03-.3.03z" fill="#3a312a"/><path d="m43.346 239.094h44.169v-82.235h-55.23v-75.997h-15.88v158.232h12.489z" fill="#87796f"/><g fill="#3a312a"><path d="m87.516 240.594h-44.169c-.829 0-1.5-.671-1.5-1.5s.671-1.5 1.5-1.5h42.669v-79.235h-53.731c-.829 0-1.5-.671-1.5-1.5v-74.497h-12.88v155.232h10.99c.829 0 1.5.671 1.5 1.5s-.671 1.5-1.5 1.5h-12.49c-.829 0-1.5-.671-1.5-1.5v-158.232c0-.829.671-1.5 1.5-1.5h15.88c.829 0 1.5.671 1.5 1.5v74.497h53.731c.829 0 1.5.671 1.5 1.5v82.235c0 .829-.672 1.5-1.5 1.5z"/><path d="m137.955 70.236c-.022 0-.044 0-.066-.001l-7.152-.316c-.828-.037-1.469-.737-1.432-1.565.037-.827.721-1.471 1.565-1.432l4.556.201-2.104-4.046c-.382-.735-.096-1.641.639-2.023.736-.381 1.641-.096 2.023.639l3.302 6.352c.247.476.222 1.047-.066 1.499-.277.432-.754.692-1.265.692z"/><path d="m55.573 129.453c-.384 0-.768-.146-1.061-.439l-9-9c-.586-.586-.586-1.536 0-2.121.586-.586 1.535-.586 2.121 0l9 9c.586.585.586 1.536 0 2.121-.293.293-.677.439-1.06.439z"/><path d="m48.035 149.715c-.422 0-.842-.177-1.139-.523-.54-.629-.467-1.576.161-2.115l9.309-7.99c.629-.538 1.576-.467 2.115.161.54.629.467 1.576-.161 2.115l-9.309 7.99c-.283.243-.63.362-.976.362z"/><path d="m52.502 136.327c-.028 0-.055 0-.083-.002l-12.668-.69c-.827-.045-1.461-.752-1.416-1.579.045-.828.761-1.474 1.579-1.416l12.668.69c.827.045 1.461.752 1.416 1.579-.043.799-.705 1.418-1.496 1.418z"/></g><path d="m68.02 158.362h18v79.23h-18z" fill="#695b51"/></g></svg>