<svg height="512" viewBox="0 0 64 64" width="512" xmlns="http://www.w3.org/2000/svg"><g id="Flat"><g id="Color_copy" data-name="Color copy"><path d="m47 38h-32l.725-5.8a8.356 8.356 0 0 1 1.6-3.974 8.346 8.346 0 0 0 1.675-5.009v-5.217h26l-.66 5.282a6.78 6.78 0 0 0 1.3 4.91 6.78 6.78 0 0 1 1.36 4.068z" fill="#656b76"/><path d="m47 32.26v5.74h-32l.73-5.8a8.341 8.341 0 0 1 1.6-3.97 8.4 8.4 0 0 0 1.67-5.01v-5.22h26l-.65 5.19a4.072 4.072 0 0 1 -2.05 1.57 6.822 6.822 0 0 0 1.34 4.43c.01.01.02.02.02.03a6.945 6.945 0 0 0 3.32 2.46c.01.19.02.39.02.58z" fill="#464a51"/><path d="m43 36v21h-22v-21l4-1.45 7-2.55 7 2.55z" fill="#48cae4"/><path d="m43 36v21h-22v-21l3-1.09v3.09a10.994 10.994 0 0 0 11 11 7 7 0 0 0 7-7v-6.36z" fill="#00b4d8"/><path d="m32 3a13 13 0 0 1 13 13v3a0 0 0 0 1 0 0h-26a0 0 0 0 1 0 0v-3a13 13 0 0 1 13-13z" fill="#656b76"/><path d="m45 16v3h-26v-3a13 13 0 0 1 10.09-12.67 9.988 9.988 0 0 0 9.91 8.67h.22a4.513 4.513 0 0 1 3.76 1.94 4.852 4.852 0 0 0 2.01 1.63c.01.14.01.29.01.43z" fill="#464a51"/><path d="m33.487 44.333a5.446 5.446 0 0 0 5.513-5.269v-4.514l-3-1.093v-3.457h-8v3.457l-3 1.093v4.514a5.446 5.446 0 0 0 5.513 5.269z" fill="#edb88e"/><path d="m41 17h2a2 2 0 0 1 2 2 4 4 0 0 1 -4 4 0 0 0 0 1 0 0v-6a0 0 0 0 1 0 0z" fill="#edb88e"/><path d="m19 17a4 4 0 0 1 4 4 2 2 0 0 1 -2 2h-2a0 0 0 0 1 0 0v-6a0 0 0 0 1 0 0z" fill="#edb88e" transform="matrix(-1 0 0 -1 42 40)"/><path d="m48 33h-2a3 3 0 0 0 -3 3v9h6v-4.184a2.99 2.99 0 0 0 2-2.816v-2a3 3 0 0 0 -3-3z" fill="#ade8f4"/><path d="m43 45h6a2 2 0 0 1 2 2 2 2 0 0 1 -2 2h-6a0 0 0 0 1 0 0v-4a0 0 0 0 1 0 0z" fill="#ade8f4"/><path d="m16 33h2a3 3 0 0 1 3 3v9h-6v-4.184a2.99 2.99 0 0 1 -2-2.816v-2a3 3 0 0 1 3-3z" fill="#ade8f4"/><path d="m13 45h6a2 2 0 0 1 2 2 2 2 0 0 1 -2 2h-6a0 0 0 0 1 0 0v-4a0 0 0 0 1 0 0z" fill="#ade8f4" transform="matrix(-1 0 0 -1 34 94)"/><path d="m30 34a8.868 8.868 0 0 1 -2.49-.36l.49-.18v-3.46h8v1.69a8.9 8.9 0 0 1 -6 2.31z" fill="#da9367"/><path d="m32.29 42.84a3.773 3.773 0 0 1 3.373-2.84h-.663a8 8 0 0 1 -7.8-6.25l-2.2.8v4.51a5.108 5.108 0 0 0 .4 1.922 3.967 3.967 0 0 1 2.6-.982h.048a3.781 3.781 0 0 1 3.668 2.864z" fill="#da9367"/><path d="m32 32a9 9 0 0 1 -9-9v-8a6.436 6.436 0 0 0 5.771-3.586l.2-.414a10.077 10.077 0 0 0 8.039 4h3.99v8a9 9 0 0 1 -9 9z" fill="#f9dbaf"/><path d="m26 16.24v4.76a9 9 0 0 0 9 9 8.872 8.872 0 0 0 3.39-.67 8.995 8.995 0 0 1 -15.39-6.33v-8a6.469 6.469 0 0 0 3.4-.97 6.4 6.4 0 0 0 2.37-2.62l.21-.41a10.117 10.117 0 0 0 8.03 4h3.99v2h-3.99a10.064 10.064 0 0 1 -8.03-4l-.21.41a6.373 6.373 0 0 1 -2.77 2.83z" fill="#edb88e"/><path d="m44.49 20.95a3.968 3.968 0 0 1 -3.49 2.05v-6h1v1a2.982 2.982 0 0 0 2.49 2.95z" fill="#da9367"/><path d="m19.51 20.95a3.968 3.968 0 0 0 3.49 2.05v-6h-1v1a2.982 2.982 0 0 1 -2.49 2.95z" fill="#da9367"/><path d="m34.17 49.476a4.194 4.194 0 0 0 2.18.6 4.252 4.252 0 0 0 1.538-.289 8.581 8.581 0 0 1 3.106-.611h.006l-1.67 1.67a4.239 4.239 0 0 1 -5.16.63 4.224 4.224 0 0 0 -4.294-.027 4.282 4.282 0 0 1 -5.206-.6l-1.67-1.673a7.235 7.235 0 0 1 2.946.543 4.212 4.212 0 0 0 3.884-.243 5.182 5.182 0 0 1 4.34 0z" fill="#0096c7"/><path d="m51 47a2.015 2.015 0 0 1 -2 2h-6v-4h1.18a2.968 2.968 0 0 0 2.82 2z" fill="#48cae4"/><path d="m21 47v2h-6a2.015 2.015 0 0 1 -2-2 2.006 2.006 0 0 1 2-2 2.015 2.015 0 0 0 2 2z" fill="#48cae4"/><path d="m50.82 39a3.01 3.01 0 0 1 -1.82 1.82v4.18h-6v-9a2.968 2.968 0 0 1 2-2.82v.82a5 5 0 0 0 5 5z" fill="#48cae4"/><path d="m21 39v6h-6v-4.18a3.01 3.01 0 0 1 -2-2.82v-2a2.968 2.968 0 0 1 2-2.82v.82a5 5 0 0 0 5 5z" fill="#48cae4"/><path d="m28.882 60h-.3a9.751 9.751 0 0 0 -3.081.5 9.751 9.751 0 0 1 -3.081.5h-1.42a6 6 0 0 1 -6-6v-6h6v5h1.419a9.751 9.751 0 0 1 3.081.5 9.751 9.751 0 0 0 3.081.5h.3z" fill="#f9dbaf"/><path d="m28.88 55v5h-.3a9.741 9.741 0 0 0 -3.08.5 9.741 9.741 0 0 1 -3.08.5h-1.42a6 6 0 0 1 -6-6v-6h6v2a3 3 0 0 0 -3 3v1a3 3 0 0 0 3 3h2a3 3 0 0 0 3-3v-.35a9.73 9.73 0 0 0 2.58.35z" fill="#edb88e"/><path d="m43 49v5h-1.419a9.751 9.751 0 0 0 -3.081.5 9.751 9.751 0 0 1 -3.081.5h-.3a4.735 4.735 0 0 1 -2.119-.5 4.735 4.735 0 0 0 -2.118-.5h-1.882a2 2 0 0 0 -2 2v3a2 2 0 0 0 2 2h1.882a4.735 4.735 0 0 0 2.118-.5 4.735 4.735 0 0 1 2.118-.5h.3a9.751 9.751 0 0 1 3.081.5 9.751 9.751 0 0 0 3.081.5h1.42a6 6 0 0 0 6-6v-6z" fill="#f9dbaf"/><path d="m49 49v6a6 6 0 0 1 -6 6h-1.42a9.741 9.741 0 0 1 -3.08-.5 9.741 9.741 0 0 0 -3.08-.5h-.3a4.721 4.721 0 0 0 -2.12.5 4.721 4.721 0 0 1 -2.12.5h-1.88a2.006 2.006 0 0 1 -2-2v-3a2.006 2.006 0 0 1 2-2h1a4 4 0 0 0 4 4h9a3 3 0 0 0 3-3v-1a3 3 0 0 0 -3-3v-2z" fill="#edb88e"/><path d="m35 28a1 1 0 0 1 -.554-.168 4.4 4.4 0 0 0 -4.89 0 1 1 0 0 1 -1.11-1.664 6.4 6.4 0 0 1 7.11 0 1 1 0 0 1 -.556 1.832z" fill="#da9367"/><path d="m37 22a1 1 0 0 1 -.316-.051l-3-1a1 1 0 0 1 -.391-1.656l2-2a1 1 0 0 1 1.414 1.414l-.855.856 1.464.488a1 1 0 0 1 -.316 1.949z" fill="#da9367"/><path d="m27 22a1 1 0 0 1 -.316-1.949l1.464-.488-.855-.856a1 1 0 0 1 1.414-1.414l2 2a1 1 0 0 1 -.391 1.656l-3 1a1 1 0 0 1 -.316.051z" fill="#da9367"/><g fill="#e53935"><path d="m56 50a1 1 0 0 1 -.9-.553l-.493-.987-2.057 1.372a1 1 0 0 1 -1.11-1.664l3-2a1.009 1.009 0 0 1 .812-.134 1 1 0 0 1 .638.519l.552 1.105 3.106-1.553a1 1 0 1 1 .894 1.79l-4 2a1 1 0 0 1 -.442.105z"/><path d="m56 55a1 1 0 0 1 -.9-.553l-.612-1.224-2.177.726a1 1 0 0 1 -.632-1.9l3-1a1 1 0 0 1 1.211.5l.641 1.282 3.222-.8a1 1 0 1 1 .484 1.94l-4 1a1 1 0 0 1 -.237.029z"/><path d="m58 61h-3a1 1 0 0 1 -.9-.553l-.718-1.447h-2.382a1 1 0 0 1 0-2h3a1 1 0 0 1 .9.553l.718 1.447h2.382a1 1 0 0 1 0 2z"/><path d="m8 50a1 1 0 0 1 -.446-.1l-4-2a1 1 0 0 1 .894-1.79l3.106 1.553.552-1.105a1 1 0 0 1 1.45-.385l3 2a1 1 0 1 1 -1.11 1.664l-2.058-1.377-.493.987a1 1 0 0 1 -.895.553z"/><path d="m8 55a1 1 0 0 1 -.242-.03l-4-1a1 1 0 1 1 .484-1.94l3.222.8.641-1.282a1 1 0 0 1 1.211-.5l3 1a1 1 0 0 1 -.632 1.9l-2.177-.726-.607 1.225a1 1 0 0 1 -.9.553z"/><path d="m9 61h-3a1 1 0 0 1 0-2h2.382l.723-1.447a1 1 0 0 1 .895-.553h3a1 1 0 0 1 0 2h-2.382l-.718 1.447a1 1 0 0 1 -.9.553z"/></g></g></g></svg>