<svg id="Layer_1" viewBox="0 0 5000 5000" xmlns="http://www.w3.org/2000/svg" data-name="Layer 1"><g fill="#fff"><path d="m1628 3548.63h908.2a606.49 606.49 0 0 1 403 152.66c-3.34-3.73-6.49-7.63-9.91-11.26-4.25-4-8.6-7.92-12.94-11.81-2.59-2.3-5.09-4.68-7.72-6.93-5.27-4.56-10.69-8.93-16.12-13.3-2.43-2-4.81-4-7.28-5.92q-11-8.58-22.39-16.66c-3.88-2.75-7.87-5.32-11.81-8-4.14-2.79-8.25-5.65-12.46-8.34s-8.6-5.27-12.92-7.87c-4.05-2.46-8.08-4.95-12.21-7.32-4.4-2.52-8.9-4.91-13.38-7.32-4.16-2.25-8.31-4.53-12.53-6.68-4.53-2.31-9.12-4.5-13.71-6.69-4.3-2.07-8.59-4.12-13-6.08-4.59-2.07-9.23-4-13.88-6s-9-3.76-13.58-5.55-9.25-3.54-13.91-5.24-9.45-3.38-14.21-5-9.27-3.07-13.94-4.52q-7.38-2.28-14.82-4.35c-4.64-1.31-9.29-2.6-14-3.8-5.12-1.31-10.3-2.51-15.47-3.69-4.59-1.05-9.18-2.11-13.82-3.05-5.45-1.11-10.95-2.07-16.45-3-4.45-.78-8.88-1.61-13.36-2.29-5.87-.89-11.82-1.6-17.75-2.33-4.19-.51-8.35-1.1-12.57-1.53-6.73-.67-13.51-1.13-20.29-1.59-3.49-.23-6.95-.58-10.45-.76-10.33-.52-20.73-.81-31.18-.81h-908.14c-295.85 0-547.32 210.72-598.92 501.32h30.6a606.39 606.39 0 0 1 593.32-476.29z"/><path d="m2944.9 2416.58c-68.92-74-113.37-171.1-119.33-278.5h863.23c.93-8.32 2.15-16.55 2.61-25h-890.84c6.66 119.92 61.1 227.16 144.33 303.5z"/><path d="m3271 2609.2c14.94 0 29.59-1.09 44.15-2.53l-5.4-27.05a495 495 0 0 1 -63.75 4.58c-16.28 0-32.35-.91-48.24-2.45l-27.59 138h30l22.58-113c15.9 1.54 31.97 2.45 48.25 2.45z"/><path d="m3762 1694.89a23.88 23.88 0 0 0 -5.75-17 24.25 24.25 0 0 0 -34.13-2.51l-206.4 178.27a244.69 244.69 0 0 1 35 16.37l196.41-169.64a23.84 23.84 0 0 1 14.87-5.49z"/><path d="m3272.32 1764.15a191.87 191.87 0 0 1 121.95 43.69c-36-42.66-88.94-68.69-146.95-68.69a193.52 193.52 0 0 0 -169.32 100.14 243.81 243.81 0 0 1 37.81 5.06 193.28 193.28 0 0 1 156.51-80.2z"/><path d="m3111.63 2769.72-12.82 36.21h33.85l3.97-11.21h28.05 228.59 11.89l-8.84-25h-28.05-228.59z"/><circle cx="1882.06" cy="1661.13" r="37.5"/><path d="m2058.21 3152a316.13 316.13 0 0 1 -199.36-70.54 24.92 24.92 0 0 0 5.78 8.43 317.73 317.73 0 0 0 435 2 24.83 24.83 0 0 0 -17.16-43.11 24.75 24.75 0 0 1 -7.84 18.11 316.52 316.52 0 0 1 -216.42 85.11z"/><path d="m3457.65 1913.71a192.31 192.31 0 0 1 123.48 44.92c-35.51-42.62-88.8-69.92-148.48-69.92a192.69 192.69 0 0 0 -153.1 75.75 241.66 241.66 0 0 1 29.52 98.62h21.7a240.73 240.73 0 0 0 -26.22-73.62 192.69 192.69 0 0 1 153.1-75.75z"/><path d="m2237.87 3032.52c.85-.78 1.81-1.45 2.66-2.25a24.52 24.52 0 0 1 20.33-6.14 138.93 138.93 0 0 0 -11.39-38 109.87 109.87 0 0 0 -35.18-42.15 119.44 119.44 0 0 1 10.18 17.15c10.13 21.25 14.47 45.87 13.4 71.39z"/><path d="m3938.63 2132.71a25 25 0 0 1 4.88-37.26 110.09 110.09 0 0 0 49-91.58c0-54.76-39.55-100.34-94-108.39a25 25 0 0 1 -14.94-41.43 151.6 151.6 0 0 0 -8.49-211.75 25 25 0 0 1 -4.74-30.08 212.72 212.72 0 0 0 25.73-101.44c0-132.42-122-237.84-259.32-207.15a25 25 0 0 1 -26.27-10.52 212.26 212.26 0 0 0 -176.91-94.83c-87.37 0-164.79 52.52-197.24 133.79a25 25 0 0 1 -41.55 7.72c-44.34-47.88-104.49-74.25-169.36-74.25-127.39 0-231 103.64-231 231a228.12 228.12 0 0 0 2.42 31.5 25 25 0 0 1 -29.69 28 154.46 154.46 0 0 0 -30.32-3c-83.94 0-152.23 68.29-152.23 152.22a151.39 151.39 0 0 0 58 119.34 25 25 0 0 1 -11.91 44.33c-74.22 10.8-130.2 75.47-130.2 150.44 0 82.74 67.36 151 150.17 152.08a25 25 0 0 1 16.53 43.46 220.7 220.7 0 0 0 -71.88 162.42c0 115 86.36 209.33 200.88 219.36a25 25 0 0 1 17.78 40 228.93 228.93 0 0 0 -46.78 138.94c0 127.39 103.64 231 231 231a230 230 0 0 0 127.27-38.33 25 25 0 0 1 38.7 18.53c11.08 119.41 109.93 209.45 229.93 209.45 127.39 0 231-103.64 231-231a229.56 229.56 0 0 0 -7-55.28 25 25 0 0 1 5.1-21.94 25.55 25.55 0 0 1 20.68-8.94l4.18.27c3 .22 6.05.44 9.1.44 127.39 0 231-103.64 231-231a230.54 230.54 0 0 0 -34-120.17 25 25 0 0 1 10.53-35.57c81-38.89 131.34-118.65 131.34-208.15a230.75 230.75 0 0 0 -57.39-152.23zm-152.18-382.91-183.61 158.59a242.66 242.66 0 0 1 72.3 154.69h42a25 25 0 0 1 25 25c0 234.65-163.92 431.32-383.14 482.65l29.81 149h25.19a25 25 0 0 1 23.56 16.67l30.44 86.2a25 25 0 0 1 -23.56 33.32h-381a25 25 0 0 1 -23.56-33.32l30.49-86.21a24.94 24.94 0 0 1 23.56-16.67h25.23l29.07-145.3c-226.9-45.53-398.37-246.25-398.37-486.34a25 25 0 0 1 25-25h49.21c8.6-110.06 90.53-199.7 196.95-219.94a243.48 243.48 0 0 1 226.28-154c30.63 0 60 6.26 87.38 16.79l204.83-291.1a74.2 74.2 0 1 1 121.39 85.37l-210.44 299a244.08 244.08 0 0 1 16.78 30.23l222.22-191.92a74.19 74.19 0 0 1 122.54 61.58 73.56 73.56 0 0 1 -25.55 50.71z"/><circle cx="2282.06" cy="1211.13" r="87.5"/><path d="m3605.4 1468.62a23.83 23.83 0 0 1 18.54-9.87c.39-8-2.77-16.08-9.8-21a24.28 24.28 0 0 0 -33.74 5.91l-200.48 284.84a229.62 229.62 0 0 1 27.49 21.46z"/><path d="m3091.58 1913.71a192.36 192.36 0 0 1 123.49 44.92c-35.51-42.62-88.81-69.92-148.49-69.92-100.22 0-182.86 76.63-192.49 174.37h29.34c20.04-85.46 96.68-149.37 188.15-149.37z"/><circle cx="2669.56" cy="1123.63" r="125"/><path d="m1944.56 2282.9c8.22-1.51 16.66-2.32 25-3.48v-80.79h175v-25h-200z"/><path d="m2139.31 3089.2a281.81 281.81 0 0 0 26.92-10.25 135 135 0 0 0 -14.74-52.22c-8.35-16.36-8.1-31 .74-41.17 6.54-7.54 15.47-9.71 20.41-8a46.88 46.88 0 0 1 5.31 2.64c-5.27-10.11-14.44-22.21-30.31-27.64-4.94-1.68-13.87.49-20.41 8-8.84 10.21-9.09 24.81-.74 41.17a134.52 134.52 0 0 1 12.82 87.47z"/><path d="m1544.56 2823.63c0 144.2 61.72 273.95 159.7 365.29-83.28-89.35-134.7-208.79-134.7-340.29 0-275.71 224.29-500 500-500 131.51 0 250.94 51.41 340.3 134.7-91.34-98-221.1-159.7-365.3-159.7-275.71 0-500 224.29-500 500z"/><path d="m1497.34 2501.34c10.84-43.19 12.31-100 14-165.75 4.49-172.12 10.11-386.35 195.66-440.5 117.77-34.38 215.33-26.74 290 22.58a258.15 258.15 0 0 1 28.59 22.1 270.76 270.76 0 0 0 -53.59-47.1c-74.7-49.32-172.26-57-290-22.58-185.55 54.15-191.17 268.38-195.66 440.5-1.73 65.77-3.2 122.56-14 165.75-28.56 114-155.44 219.75-232.13 274.8 16.54.92 35.71 1.48 56.64 1.42 75.96-58.72 175.59-151.79 200.49-251.22z"/></g><path d="m1969.56 2279.42c24.58-3.43 49.5-5.79 75-5.79a550.25 550.25 0 0 1 100 9.27v-84.27h-175z" fill="#30b3c4"/><path d="m1707 1895.09c-185.55 54.15-191.17 268.38-195.66 440.5-1.73 65.77-3.2 122.56-14 165.75-24.9 99.43-124.53 192.5-200.49 251.22 58.35-.2 131.34-5.65 206.22-24.64 29.19-165.59 132.6-305.84 274.64-385-16-96.78-3.9-180.53 33.48-230.06 16.52-21.88 37.06-35.16 57.83-37.43 63.92-6.86 104 34.47 115.47 48.2h130c-9.27-41.46-33.33-121.13-88.86-183.86a258.15 258.15 0 0 0 -28.59-22.1c-74.67-49.32-172.23-56.96-290.04-22.58z" fill="#ffd952"/><path d="m2903.43 2063.08h355.64a192.45 192.45 0 0 0 -44-104.45 192.36 192.36 0 0 0 -123.49-44.92c-91.47 0-168.11 63.91-188.15 149.37z" fill="#f57181"/><path d="m3115.8 1844.35a242.85 242.85 0 0 1 133.7 77.65 242.1 242.1 0 0 1 167.13-82.32 195.44 195.44 0 0 0 -22.36-31.87 192.51 192.51 0 0 0 -278.47 36.51z" fill="#39d5e9"/><path d="m3407.41 1750c3.41 3 6.91 6 10.17 9.16l202.42-287.71a23.39 23.39 0 0 0 3.92-12.7 23.83 23.83 0 0 0 -18.54 9.87z" fill="#ffe998"/><path d="m2152.23 2985.56c-8.84 10.21-9.09 24.81-.74 41.17a135 135 0 0 1 14.74 52.22c4.42-1.91 8.86-3.76 13.16-5.94 11.69-32 11.67-65.76-.06-90.38-.37-.78-1-1.65-1.38-2.46a46.88 46.88 0 0 0 -5.31-2.64c-4.94-1.68-13.87.47-20.41 8.03z" fill="#ff8795"/><path d="m1569.56 2848.63c0 131.5 51.42 250.94 134.7 340.29 89.36 83.29 208.79 134.71 340.3 134.71 275.71 0 500-224.3 500-500 0-131.51-51.42-251-134.7-340.3-89.36-83.29-208.79-134.7-340.3-134.7-275.71 0-500 224.29-500 500zm519.9 79.17c19.19-22.14 49.12-31.18 74.39-22.58 20.25 6.94 37.59 20.51 50.44 38.76a109.87 109.87 0 0 1 35.18 42.15 138.93 138.93 0 0 1 11.39 38 24.06 24.06 0 0 1 21.59 24.6 24.83 24.83 0 0 1 17.16 43.11 317.73 317.73 0 0 1 -435-2 24.92 24.92 0 0 1 -5.78-8.43c-6.55-5.3-13-10.71-19.22-16.57a25 25 0 1 1 34.42-36.28 266.61 266.61 0 0 0 184.18 73.44c8.54 0 17.05-.41 25.47-1.21a86.26 86.26 0 0 0 -1.72-76.26c-17.72-34.72-14.91-70.88 7.5-96.73z" fill="#ffe9de"/><path d="m3457.65 1913.71a192.69 192.69 0 0 0 -153.1 75.75 240.73 240.73 0 0 1 26.22 73.62h294.37a192.54 192.54 0 0 0 -44-104.45 192.31 192.31 0 0 0 -123.49-44.92z" fill="#ffd952"/><path d="m3747.15 1700.36-196.41 169.64c4.06 2.26 8.24 4.34 12.15 6.83l190.9-164.83a24 24 0 0 0 8.3-16.53c0-.19-.07-.36-.06-.54a23.84 23.84 0 0 0 -14.88 5.43z" fill="#30b3c4"/><path d="m3164.68 2794.72h-28.05l-3.97 11.21h276.45l-3.95-11.21h-11.89z" fill="#39d5e9"/><path d="m2944.9 2416.58c79.43 72.87 185.07 117.62 301.1 117.62 229 0 417.8-173.65 442.8-396.12h-863.23c5.96 107.4 50.43 204.5 119.33 278.5z" fill="#39d5e9"/><path d="m3315.15 2606.67c-14.56 1.44-29.21 2.53-44.15 2.53-16.28 0-32.35-.91-48.24-2.45l-22.58 113h137.59z" fill="#30b3c4"/><path d="m3110.8 4028.48c-.13-.71-.33-1.39-.47-2.11a605.39 605.39 0 0 0 -156.76-312.1c-4.71-4.44-9.58-8.7-14.43-13a606.49 606.49 0 0 0 -403-152.66h-908.14a606.39 606.39 0 0 0 -593.36 476.39c-1.85 8.34-4.09 16.5-5.6 25l2106.29 1.42c-.13-.75-.35-1.46-.49-2.21a24.92 24.92 0 0 1 -24.04-20.73z" fill="#f57181"/><path d="m2282.06 1348.63c75.81 0 137.5-61.7 137.5-137.5s-61.69-137.5-137.5-137.5-137.5 61.69-137.5 137.5 61.69 137.5 137.5 137.5zm0-225a87.5 87.5 0 1 1 -87.5 87.5 87.6 87.6 0 0 1 87.5-87.5z" fill="#352f4c"/><path d="m2669.56 1298.63c96.48 0 175-78.52 175-175s-78.52-175-175-175-175 78.51-175 175 78.52 175 175 175zm0-300a125 125 0 1 1 -125 125 125.14 125.14 0 0 1 125-125z" fill="#352f4c"/><path d="m1882.06 1748.63a87.5 87.5 0 1 0 -87.5-87.5 87.61 87.61 0 0 0 87.5 87.5zm0-125a37.5 37.5 0 1 1 -37.5 37.5 37.54 37.54 0 0 1 37.5-37.5z" fill="#352f4c"/><path d="m1994.56 1498.63a25 25 0 0 0 0 50 125 125 0 0 0 0-250 25 25 0 0 0 0 50 75 75 0 0 1 0 150z" fill="#352f4c"/><path d="m4046.07 2284.81a280.37 280.37 0 0 0 -53.59-164.7 159.72 159.72 0 0 0 -48.73-263.75 201.45 201.45 0 0 0 -21.24-236.79 263.13 263.13 0 0 0 23.56-108.79c0-158.32-141.55-285.18-303.78-259.13a262.35 262.35 0 0 0 -436.84 29.45 281.62 281.62 0 0 0 -180-65.56c-155 0-281 126.08-281 281 0 2.15 0 4.33.1 6.55-113.89-4.64-209.92 88-209.92 202.07a200.69 200.69 0 0 0 44.22 126.1c-75.59 29.88-128.37 104.08-128.37 188 0 92.78 63.72 171.81 149.71 195.12a270.47 270.47 0 0 0 -54.89 162.84c0 127.52 86.53 234.28 206.89 262.8a277.45 277.45 0 0 0 -35 135.47c0 155 126.07 281 281 281a279.74 279.74 0 0 0 122.09-27.95c28.79 126.36 140.58 217.6 273.81 217.6 154.95 0 281-126.08 281-281a272.42 272.42 0 0 0 -2.44-35.87c147.8-8 265.57-130.83 265.57-280.61a280 280 0 0 0 -28.66-123.17c83.68-50.4 136.51-142.22 136.51-240.68zm-181.34 208.19a25 25 0 0 0 -10.53 35.57 230.54 230.54 0 0 1 34 120.17c0 127.39-103.64 231-231 231-3 0-6.08-.22-9.1-.44l-4.18-.27a25.55 25.55 0 0 0 -20.68 8.94 25 25 0 0 0 -5.1 21.94 229.56 229.56 0 0 1 7 55.28c0 127.39-103.64 231-231 231-120 0-218.85-90-229.93-209.45a25 25 0 0 0 -38.7-18.53 230 230 0 0 1 -127.27 38.33c-127.39 0-231-103.64-231-231a228.93 228.93 0 0 1 46.78-138.94 25 25 0 0 0 -17.78-40c-114.52-10-200.88-104.34-200.88-219.36a220.7 220.7 0 0 1 71.88-162.42 25 25 0 0 0 -16.53-43.46c-82.81-1.1-150.17-69.34-150.17-152.08 0-75 56-139.64 130.2-150.44a25 25 0 0 0 11.91-44.33 151.39 151.39 0 0 1 -58-119.34c0-83.93 68.29-152.22 152.23-152.22a154.46 154.46 0 0 1 30.32 3 25 25 0 0 0 29.69-28 228.12 228.12 0 0 1 -2.42-31.5c0-127.39 103.64-231 231-231 64.87 0 125 26.37 169.36 74.25a25 25 0 0 0 41.55-7.72c32.45-81.27 109.87-133.79 197.24-133.79a212.26 212.26 0 0 1 176.91 94.83 25 25 0 0 0 26.27 10.52c137.33-30.69 259.32 74.73 259.32 207.15a212.72 212.72 0 0 1 -25.73 101.44 25 25 0 0 0 4.74 30.08 151.6 151.6 0 0 1 8.49 211.75 25 25 0 0 0 14.94 41.43c54.47 8 94 53.63 94 108.39a110.09 110.09 0 0 1 -49 91.58 25 25 0 0 0 -4.88 37.26 230.75 230.75 0 0 1 57.44 152.1c-.05 89.59-50.39 169.35-131.39 208.28z" fill="#352f4c"/><path d="m1164 2793.82c3.81.63 54.86 9 129.78 9 57.11 0 128.13-5 202.58-21.95-1.09 14.11-1.82 28.33-1.82 42.73 0 303.27 246.73 550 550 550s550-246.73 550-550c0-251.27-169.43-463.57-400-529v-146a25 25 0 0 0 -25-25h-3.8c-10.59-54.36-48.46-194.77-165.83-272.47-87.62-58.05-199.34-67.82-331.91-29.07-220.55 64.38-227 308.76-231.61 487.18-1.59 60.2-3.08 117.07-12.55 154.91-35.7 142.43-266.19 282.15-268.53 283.54a25 25 0 0 0 8.69 46.1zm1245.84-310.49c83.28 89.35 134.7 208.79 134.7 340.3 0 275.7-224.29 500-500 500-131.51 0-250.94-51.42-340.3-134.71-98-91.34-159.7-221.09-159.7-365.29 0-275.71 224.29-500 500-500 144.22 0 273.98 61.72 365.32 159.7zm-558.74-340.33c9.28-12.31 18.14-17.29 23.34-17.85a74.63 74.63 0 0 1 31.34 3.18c-6.61 4.49-11.22 11.7-11.22 20.31v146a545.31 545.31 0 0 0 -69.82 25c-14.98-111.01 16.02-162.95 26.36-176.64zm293.46 55.64v84.27a550.25 550.25 0 0 0 -100-9.27c-25.5 0-50.42 2.36-75 5.79-8.34 1.16-16.78 2-25 3.48v-109.28h200zm-672.22 277.71c10.84-43.19 12.31-100 14-165.75 4.49-172.12 10.11-386.35 195.66-440.5 117.77-34.38 215.33-26.74 290 22.58a270.76 270.76 0 0 1 53.59 47.1c55.53 62.73 79.59 142.4 88.86 183.86h-130c-11.43-13.73-51.55-55.06-115.47-48.2-20.77 2.27-41.31 15.55-57.83 37.43-37.38 49.53-49.45 133.28-33.48 230.06-142 79.16-245.45 219.41-274.64 385-74.88 19-147.87 24.44-206.22 24.64-20.93.06-40.1-.5-56.64-1.42 76.73-55.06 203.61-160.78 232.17-274.81z" fill="#352f4c"/><path d="m2511.16 3473.63h-908.16c-321 0-593.75 229.17-648.66 544.92a25 25 0 0 0 49.27 8.54c.12-.72.34-1.41.47-2.14 51.6-290.6 303.07-501.32 598.92-501.32h908.2c10.45 0 20.85.29 31.18.81 3.5.18 7 .53 10.45.76 6.78.46 13.56.92 20.29 1.59 4.22.43 8.38 1 12.57 1.53 5.93.73 11.88 1.44 17.75 2.33 4.48.68 8.91 1.51 13.36 2.29 5.5 1 11 1.92 16.45 3 4.64.94 9.23 2 13.82 3.05 5.17 1.18 10.35 2.38 15.47 3.69 4.68 1.2 9.33 2.49 14 3.8q7.44 2.09 14.82 4.35 7 2.17 13.94 4.52 7.14 2.38 14.21 5c4.66 1.7 9.3 3.43 13.91 5.24s9.07 3.66 13.58 5.55 9.29 3.92 13.88 6c4.36 2 8.65 4 13 6.08 4.59 2.19 9.18 4.38 13.71 6.69 4.22 2.15 8.37 4.43 12.53 6.68 4.48 2.41 9 4.8 13.38 7.32 4.13 2.37 8.16 4.86 12.21 7.32 4.32 2.6 8.67 5.15 12.92 7.87s8.32 5.55 12.46 8.34c3.94 2.66 7.93 5.23 11.81 8q11.4 8.07 22.39 16.66c2.47 1.93 4.85 4 7.28 5.92 5.43 4.37 10.85 8.74 16.12 13.3 2.63 2.25 5.13 4.63 7.72 6.93 4.34 3.89 8.69 7.79 12.94 11.81 8.31 7.87 16.47 15.91 24.34 24.24a605.39 605.39 0 0 1 156.76 312.1c.14.72.34 1.4.47 2.11a24.92 24.92 0 0 0 24 20.68c.2 0 .37.1.56.1a24.49 24.49 0 0 0 4.25-.37 25 25 0 0 0 20.41-28.85c-54.35-316.64-327.25-546.44-648.98-546.44z" fill="#352f4c"/><path d="m2083.68 3100.74c-8.42.8-16.93 1.21-25.47 1.21a266.61 266.61 0 0 1 -184.16-73.39 25 25 0 1 0 -34.42 36.28c6.17 5.86 12.67 11.27 19.22 16.57a317.34 317.34 0 0 0 415.76-14.57 25 25 0 0 0 -34.08-36.57c-.85.8-1.81 1.47-2.66 2.25 1.07-25.56-3.27-50.14-13.4-71.39a119.44 119.44 0 0 0 -10.18-17.15c-12.85-18.25-30.19-31.82-50.44-38.76-25.27-8.6-55.2.44-74.39 22.58-22.41 25.85-25.22 62-7.5 96.68a86.26 86.26 0 0 1 1.72 76.26zm43.55-140.18c6.54-7.54 15.47-9.71 20.41-8 15.87 5.43 25 17.53 30.31 27.64.42.81 1 1.68 1.38 2.46 11.73 24.62 11.75 58.41.06 90.38-4.3 2.18-8.74 4-13.16 5.94a281.81 281.81 0 0 1 -26.92 10.25 134.52 134.52 0 0 0 -12.82-87.47c-8.35-16.39-8.1-30.99.74-41.2z" fill="#352f4c"/><path d="m3689.48 1637.52-222.22 191.92a244.08 244.08 0 0 0 -16.78-30.23l210.44-299a74.2 74.2 0 1 0 -121.39-85.37l-204.83 291.1c-27.42-10.53-56.75-16.79-87.38-16.79a243.48 243.48 0 0 0 -226.28 154c-106.42 20.24-188.35 109.88-196.95 219.94h-49.21a25 25 0 0 0 -25 25c0 240.09 171.47 440.81 398.37 486.34l-29.07 145.3h-25.18a24.94 24.94 0 0 0 -23.56 16.67l-30.49 86.21a25 25 0 0 0 23.56 33.32h381a25 25 0 0 0 23.49-33.33l-30.47-86.21a25 25 0 0 0 -23.56-16.67h-25.23l-29.81-149c219.22-51.33 383.14-248 383.14-482.65a25 25 0 0 0 -25-25h-42a242.66 242.66 0 0 0 -72.3-154.69l183.61-158.59a74.15 74.15 0 0 0 7.67-104.64 74.34 74.34 0 0 0 -104.57-7.63zm-109.08-193.9a24.28 24.28 0 0 1 33.74-5.91c7 5 10.19 13 9.8 21a23.39 23.39 0 0 1 -3.92 12.7l-202.44 287.67c-3.26-3.21-6.76-6.12-10.17-9.16a229.62 229.62 0 0 0 -27.49-21.46zm-333.08 295.53c58 0 110.92 26 146.95 68.69a195.44 195.44 0 0 1 22.36 31.87 242.1 242.1 0 0 0 -167.13 82.29 248.44 248.44 0 0 0 -171.5-82.71 193.52 193.52 0 0 1 169.32-100.14zm-180.74 149.56c59.68 0 113 27.3 148.49 69.92a192.45 192.45 0 0 1 44 104.45h-385c9.65-97.74 92.29-174.37 192.51-174.37zm301.69 881h28.05l8.84 25 4 11.2h-310.3l12.82-36.2h256.64zm-198.1-50 27.59-138c15.89 1.54 32 2.45 48.24 2.45a495 495 0 0 0 63.75-4.58l5.4 27.05 22.62 113h-167.6zm521.24-606.64c-.46 8.45-1.68 16.68-2.61 25-25 222.47-213.78 396.12-442.8 396.12-116 0-221.67-44.75-301.1-117.62-83.23-76.34-137.67-183.57-144.33-303.5zm-66.27-50h-316.07a241.66 241.66 0 0 0 -29.52-98.62 192.69 192.69 0 0 1 153.1-75.75c59.68 0 113 27.3 148.48 69.92a192.54 192.54 0 0 1 44.01 104.46zm128.65-351.07-190.9 164.87c-3.91-2.49-8.09-4.57-12.15-6.83a244.69 244.69 0 0 0 -35-16.37l206.4-178.27a24.25 24.25 0 0 1 34.13 2.51 23.88 23.88 0 0 1 5.75 17c0 .18.07.35.06.54a24 24 0 0 1 -8.29 16.55z" fill="#352f4c"/></svg>