<svg id="Layer_1" height="512" viewBox="0 0 64 64" width="512" xmlns="http://www.w3.org/2000/svg" data-name="Layer 1"><path d="m22.4 12.912c1.362 0 4.09 4.088 4.09 4.088 5.456-4.092 5.456-15 5.456-15 10.911 5.456 9.547 24.551 9.547 24.551a10.185 10.185 0 0 0 4.092-4.092c3.815 11.441-.906 17.341-5.807 20.316a16.126 16.126 0 0 1 -16.091.677c-5.819-3.208-11.007-11.104-1.287-30.54z" fill="#e65c5e"/><path d="m30.949 42.29a11.908 11.908 0 0 1 -5.814-1.465c-7.589-4.183-5.552-14.186-1.73-22.989.207.277.407.56.589.831l1.759 2.639 2.537-1.9c3.683-2.762 5.33-7.608 6.065-11.5 4.893 6.55 4.155 18.3 4.145 18.443l-.361 5.238 4.7-2.344a11.207 11.207 0 0 0 1.079-.619c.512 5.155-1.373 8.973-5.691 11.593a14.045 14.045 0 0 1 -7.278 2.073z" fill="#ffc44d"/><path d="m45.21 55.36-2.21-.741v-4.619a6 6 0 0 0 -6-6h-10a6 6 0 0 0 -6 6v4.619l-2.21.741 2.21 6.64v1h22v-1z" fill="#3186f2"/><path d="m21 50v4.62l1.58-.53 2.01 6.05.83-5.41-.25-.76a5.109 5.109 0 0 0 -2.6-6.18 4.559 4.559 0 0 0 -.99-.37 5.99 5.99 0 0 0 -.58 2.58z" fill="#2c77d9"/><path d="m43 50v4.62l-1.58-.53-2.01 6.05-.83-5.41.25-.76a5.109 5.109 0 0 1 2.6-6.18 4.559 4.559 0 0 1 .99-.37 5.99 5.99 0 0 1 .58 2.58z" fill="#2c77d9"/><g fill="#ffc173"><circle cx="32" cy="35" r="8"/><path d="m22.675 53.563-.282.594-3.415 1.143-.581-.3a2.677 2.677 0 0 1 -1.297-1.532 2.674 2.674 0 0 1 1.7-3.382l.619-.206a2.674 2.674 0 0 1 3.381 1.691 2.67 2.67 0 0 1 -.125 1.992z"/><path d="m41.325 53.563.282.594 3.415 1.143.581-.3a2.677 2.677 0 0 0 1.297-1.532 2.674 2.674 0 0 0 -1.691-3.382l-.619-.206a2.674 2.674 0 0 0 -3.39 1.691 2.67 2.67 0 0 0 .125 1.992z"/></g><path d="m43.649 63.216 2.45-7.361a3.671 3.671 0 0 0 -.578-6.718l-.618-.206a3.678 3.678 0 0 0 -1.028-.169 7.031 7.031 0 0 0 -6.875-5.762h-.9a9 9 0 1 0 -8.2 0h-.9a7.031 7.031 0 0 0 -6.875 5.762 3.607 3.607 0 0 0 -1.028.169l-.618.206a3.67 3.67 0 0 0 -.578 6.718l2.45 7.361 1.9-.632-2.2-6.593 1.894-.632 1.67 5.029a1 1 0 0 0 1.96-.086l1.41-9.15-1.976-.3-.775 5.048-.643-1.937a3.637 3.637 0 0 0 -1.5-4.711 5 5 0 0 1 4.909-4.252h10a5 5 0 0 1 4.913 4.248 3.637 3.637 0 0 0 -1.5 4.711l-.647 1.941-.778-5.048-1.976.3 1.41 9.15a1 1 0 0 0 1.945.129l1.685-5.072 1.894.632-2.2 6.593zm-21.877-10.082-.1.2-2.609.874-.2-.108a1.673 1.673 0 0 1 .25-3.069l.618-.206a1.649 1.649 0 0 1 .528-.086 1.673 1.673 0 0 1 1.514 2.391zm3.228-18.134a7 7 0 1 1 7 7 7.008 7.008 0 0 1 -7-7zm17.325 18.338-.1-.2a1.673 1.673 0 0 1 2.042-2.3l.619.206a1.674 1.674 0 0 1 .249 3.069l-.2.108z"/><path d="m32 35a4 4 0 0 0 -4 4h2a2 2 0 0 1 4 0h2a4 4 0 0 0 -4-4z"/><path d="m52.174 22.331a2.728 2.728 0 0 0 .611-.893 2.764 2.764 0 0 0 .215-1.061 2.831 2.831 0 0 0 -.307-1.283 2.826 2.826 0 0 0 -1.136.671 2.762 2.762 0 0 0 -.613.892 2.719 2.719 0 0 0 -.218 1.059 2.793 2.793 0 0 0 .31 1.284 2.8 2.8 0 0 0 1.138-.669z"/><path d="m44.484 7.267a2.719 2.719 0 0 0 .559-.926 2.782 2.782 0 0 0 .157-1.071 2.82 2.82 0 0 0 -.38-1.263 2.815 2.815 0 0 0 -1.095.733 2.753 2.753 0 0 0 -.562.926 2.719 2.719 0 0 0 -.163 1.07 2.8 2.8 0 0 0 .385 1.264 2.789 2.789 0 0 0 1.099-.733z"/><path d="m13.359 18.165a2.791 2.791 0 0 0 .933.933 2.788 2.788 0 0 0 .622-1.164 2.707 2.707 0 0 0 .055-1.081 2.763 2.763 0 0 0 -.369-1.017 2.813 2.813 0 0 0 -.931-.934 2.825 2.825 0 0 0 -.619 1.164 2.764 2.764 0 0 0 -.058 1.081 2.711 2.711 0 0 0 .367 1.018z"/><path d="m21.2 40.311c-4.768-5.008-4.186-14.017 1.672-26.088a17.964 17.964 0 0 1 2.791 3.335 1 1 0 0 0 1.432.245c4.493-3.369 5.539-10.745 5.782-14.1 8.7 5.977 7.636 22.6 7.624 22.775a1 1 0 0 0 1.444.966 10.332 10.332 0 0 0 3.287-2.684c1.723 6.626.49 11.83-3.676 15.487l1.32 1.5c3.6-3.16 7.157-9.127 3.663-19.609a1 1 0 0 0 -.878-.681 1.017 1.017 0 0 0 -.966.55 9.538 9.538 0 0 1 -2.135 2.635c.03-5.165-.8-18.862-10.162-23.542a1 1 0 0 0 -1.447.9c0 .1-.061 9.342-4.269 13.521-1.188-1.638-2.9-3.609-4.279-3.609a1 1 0 0 0 -.895.552c-6.758 13.518-7.35 23.351-1.756 29.225z"/></svg>