<svg height="512" viewBox="0 0 58 58" width="512" xmlns="http://www.w3.org/2000/svg"><g id="Page-1" fill="none" fill-rule="evenodd"><g id="030---Frustrated"><circle id="Oval" cx="29" cy="29" fill="#f0c419" r="29"/><path id="Path" d="m9 27c-.52483271-.0000353-.96033826-.4058027-.9974319-.9293229-.03709365-.5235203.33684751-.9866403.8564319-1.0606771l10.558-1.51-5.823-2.588c-.5047882-.2242276-.7322276-.8152117-.508-1.32.2242276-.5047882.8152117-.7322276 1.32-.508l9 4c.4038668.1827639.6392087.609603.5782001 1.0486804-.0610087.4390775-.4038052.7855858-.8422001.8513196l-14 2c-.04688715.00874-.09434358.0140872-.142.016z" fill="#35495e"/><path id="Path" d="m49 27c-.0478455.0001196-.0956369-.0032225-.143-.01l-14-2c-.4383949-.0657338-.7811914-.4122421-.8422001-.8513196-.0610086-.4390774.1743333-.8659165.5782001-1.0486804l9-4c.3265408-.1450498.70566-.104874.9945472.1053937.2888873.2102676.4436536.5586825.4060001.914-.0376536.3553175-.2620065.6635565-.5885473.8086063l-5.822 2.582 10.559 1.51c.5197764.0740625.8937687.5374814.8563995 1.0611762-.0373692.5236949-.4733733.9293151-.9983995.9288238z" fill="#35495e"/><g fill="#e57e25"><path id="Path" d="m23.834 16.113c-2.6519057-.0190709-5.1278802-1.3302103-6.634-3.513-.3313708-.4418278-.2418278-1.0686292.2-1.4s1.0686292-.2418278 1.4.2c1.2959533 1.9752873 3.6317313 3.0045336 5.964 2.628.5347426-.1281296 1.0726091.1995262 1.2040327.7334688.1314235.5339426-.1929104 1.0738187-.7260327 1.2085312-.4623089.1014262-.9347392.1494074-1.408.143z"/><path id="Path" d="m34.166 16.113c-.4732608.0064074-.9456911-.0415738-1.408-.143-.5362685-.1322722-.8637722-.6742315-.7315-1.2105s.6742315-.8637722 1.2105-.7315c2.3316309.3737404 4.6656599-.6549077 5.963-2.628.2143594-.2858125.5649147-.4355547.9196152-.3928203.3547006.0427344.6596589.2714531.8.6.1403412.3285469.0947442.7070078-.1196152.9928203-1.5063519 2.1825287-3.9821797 3.4935903-6.634 3.513z"/><path id="Path" d="m36.33 39.76c-2.96-1.95-4.67-2.76-7.33-2.76-2.61 0-4.37.81-7.31 2.74l2.81-3.86c1.4251289-.5943857 2.9559476-.8937458 4.5-.88 1.5488654-.0201709 3.0849097.282951 4.51.89h.01z"/></g><path id="Path" d="m30 41h-2c-.5522847 0-1-.4477153-1-1s.4477153-1 1-1h2c.5522847 0 1 .4477153 1 1s-.4477153 1-1 1z" fill="#f29c1f"/><path id="Path" d="m27 31.6c.0003865.5424746-.1711593 1.0711157-.49 1.51l-6.31 8.67-.01-.01c-.7124118-2.7942453-3.0754378-4.8589094-5.94-5.19l-.02-.02 8.54-6.97c1.0273865-.846801 2.5303067-.7731709 3.47.17.485376.4895704.7584118 1.1506042.76 1.84z" fill="#d1d4d1"/><path id="Path" d="m43.77 36.56-.02.02c-2.8645622.3310906-5.2275882 2.3957547-5.94 5.19l-.01.01-6.31-8.67c-.3188407-.4388843-.4903865-.9675254-.49-1.51.0015882-.6893958.274624-1.3504296.76-1.84.9396933-.9431709 2.4426135-1.016801 3.47-.17z" fill="#d1d4d1"/><path id="Path" d="m18.509 48.276c1.7399527-1.8385398 2.3474258-4.4753593 1.5872953-6.8898707-.7601305-2.4145115-2.7685739-4.2277946-5.247957-4.7380136-2.4793831-.5102189-5.04060505.3626973-6.6923383 2.2808843-1.36144113-1.3039677-3.35812281-1.6945509-5.1105634-.9997086s-2.93895343 2.3475613-3.03691328 4.2301813c-.09795985 1.8826199.91061529 3.6495576 2.58147668 4.5225273-2.28218359 2.867304-1.95627107 7.0117299.74605054 9.4870587 2.70232162 2.4753287 6.85936846 2.437297 9.51594946-.0870587 2.156208 1.4832118 5.1019.9757422 6.6374986-1.1434763 1.5355987-2.1192184 1.1004578-5.0764602-.9804986-6.6635237z" fill="#ecf0f1"/><path id="Path" d="m39.491 48.276c-1.7399527-1.8385398-2.3474258-4.4753593-1.5872953-6.8898707.7601305-2.4145115 2.7685739-4.2277946 5.247957-4.7380136 2.4793831-.5102189 5.0406051.3626973 6.6923383 2.2808843 1.3614411-1.3039677 3.3581228-1.6945509 5.1105634-.9997086s2.9389534 2.3475613 3.0369133 4.2301813c.0979598 1.8826199-.9106153 3.6495576-2.5814767 4.5225273 2.2821836 2.867304 1.9562711 7.0117299-.7460505 9.4870587-2.7023217 2.4753287-6.8593685 2.437297-9.5159495-.0870587-2.156208 1.4832118-5.1019.9757422-6.6374986-1.1434763-1.5355987-2.1192184-1.1004578-5.0764602.9804986-6.6635237z" fill="#ecf0f1"/></g></g></svg>