<svg id="&#x421;&#x43B;&#x43E;&#x439;_1" height="512" viewBox="0 0 512 512" width="512" xmlns="http://www.w3.org/2000/svg"><path d="m62.449 507.8h387.756a11.49 11.49 0 0 0 11.009-14.834c-8.953-28.983-25.178-53.4-37.64-74.83-23.847-41.069-46.363-79.857-40.393-115.478 2.9-17.47 9.655-44.509 17.467-75.839 15.05-60.35 37.346-146.794 39.939-210.78a11.446 11.446 0 0 0 -11.487-11.831h-147.8a11.478 11.478 0 0 0 -11.489 11.468v299.857a13.654 13.654 0 0 1 -14.954 13.56c-7.136-.669-12.338-7.128-12.338-14.282v-299.135a11.478 11.478 0 0 0 -11.485-11.468h-148.066a11.506 11.506 0 0 0 -11.493 12.072c3.51 72.309 24.751 149.779 39.872 210.541 7.812 31.33 14.567 58.369 17.467 75.839 5.97 35.621-16.546 74.409-40.393 115.478-12.057 20.785-28.643 49.153-36.909 74.627a11.487 11.487 0 0 0 10.937 15.035zm154.589-119.936a13.67 13.67 0 0 1 18.7-4.836c9.35 5.512 16.177 13.643 21.149 22.893a.115.115 0 0 0 .206 0c4.628-9.045 10.738-17.039 18.8-22.448a13.623 13.623 0 1 1 15.25 22.578c-13.817 9.331-19.958 40.695-21.118 62.592-.034 4.052-.171 6.947-.239 8.173a13.623 13.623 0 0 1 -13.612 12.77h-.444a13.63 13.63 0 0 1 -13.2-13.622c0-1.124 0-3.644.171-7.151-.034-17.776-3.616-52.205-20.81-62.32a13.571 13.571 0 0 1 -4.853-18.629z" fill="#ffdeeb"/><g fill="#ff5090"><ellipse cx="167.594" cy="374.623" rx="13.549" ry="13.525"/><path d="m167.594 403.215a28.592 28.592 0 1 1 28.644-28.592 28.651 28.651 0 0 1 -28.644 28.592zm0-48.791a20.2 20.2 0 1 0 20.235 20.2 20.24 20.24 0 0 0 -20.235-20.2z"/><path d="m167.594 418.367a43.784 43.784 0 1 1 30.988-12.812 43.576 43.576 0 0 1 -30.988 12.812zm0-79.095a35.351 35.351 0 1 0 35.415 35.351 35.423 35.423 0 0 0 -35.415-35.351z"/><ellipse cx="343.859" cy="374.623" rx="13.549" ry="13.525"/><path d="m343.859 403.215a28.592 28.592 0 1 1 28.641-28.592 28.651 28.651 0 0 1 -28.641 28.592zm0-48.791a20.2 20.2 0 1 0 20.235 20.2 20.24 20.24 0 0 0 -20.235-20.2z"/><path d="m343.859 418.367a43.783 43.783 0 1 1 30.988-12.812 43.576 43.576 0 0 1 -30.988 12.812zm0-79.095a35.351 35.351 0 1 0 35.414 35.351 35.423 35.423 0 0 0 -35.414-35.351z"/></g><path d="m32.209 512a4.205 4.205 0 0 1 -4.106-5.119c7.513-33.329 26.507-66.044 44.877-97.681 22.183-38.208 43.137-74.3 38.24-103.624-2.8-16.766-9.464-43.5-17.182-74.45-9-36.083-19.194-76.981-27.174-117.175-9.316-46.92-13.564-82.851-12.99-109.844a4.2 4.2 0 0 1 8.407.179c-1.271 59.614 22.535 155.097 39.919 224.814 7.76 31.124 14.462 58 17.316 75.1 5.394 32.3-16.3 69.661-39.259 109.212-18.057 31.088-36.72 63.237-43.95 95.312a4.2 4.2 0 0 1 -4.098 3.276z" fill="#220dba"/><path d="m256.155 319.722a4.2 4.2 0 0 1 -4.2-4.2v-311.322a4.2 4.2 0 0 1 8.409 0v311.326a4.2 4.2 0 0 1 -4.209 4.196z" fill="#220dba"/><path d="m479.791 512a4.2 4.2 0 0 1 -4.1-3.276c-7.23-32.075-25.9-64.225-43.948-95.317-22.963-39.551-44.653-76.909-39.259-109.212 2.854-17.093 9.556-43.972 17.316-75.1 17.384-69.712 41.19-165.19 39.919-224.809a4.2 4.2 0 0 1 8.407-.179c.575 26.993-3.673 62.923-12.99 109.843-7.98 40.194-18.177 81.091-27.174 117.175-7.717 30.952-14.382 57.683-17.181 74.449-4.9 29.326 16.057 65.415 38.24 103.623 18.369 31.639 37.364 64.354 44.876 97.683a4.206 4.206 0 0 1 -4.106 5.12z" fill="#220dba"/><path d="m256.157 480.171h-.134a4.2 4.2 0 0 1 -4.072-4.195c0-.222 0-2.16.144-5.331.114-14.886-1.665-58.286-25.424-72.264a4.2 4.2 0 1 1 4.27-7.231c7.877 4.635 14.318 12.129 19.144 22.275a97 97 0 0 1 6.894 20.854 114.437 114.437 0 0 1 6.884-20.786c4.579-10.093 10.4-17.565 17.29-22.207a4.2 4.2 0 1 1 4.7 6.958c-20.8 14.007-24.633 57.521-25.338 72.562-.033 3.232-.152 5.208-.166 5.433a4.2 4.2 0 0 1 -4.192 3.932z" fill="#220dba"/><path d="m359.235 185.097-40.914 73.825 25.951.672-12.764 60.447 40.067-75.42-27.359-1.958z" fill="#ff5090"/><path d="m175.777 184.428-26.677 80.056 25.635-4.084-1.458 61.758 25.553-81.469-27.257 3.077z" fill="#ff5090"/></svg>