<svg id="Layer_1" height="512" viewBox="0 0 64 64" width="512" xmlns="http://www.w3.org/2000/svg" data-name="Layer 1"><path d="m3 63c.625-4.467 5-4.49 5-9 0-4-2-4-2-9 0-4.507 4-5 4-9 0-4.509-2-4-2-9 0-16 10-26 24-26 14 0 24 10 24 26 0 5-2 4.491-2 9 0 4 4 4.493 4 9 0 5-2 5-2 9 0 4.51 4.375 4.533 5 9z" fill="#c67a60"/><path d="m61 63h-4c-.63-4.47-5-4.49-5-9 0-4 2-4 2-9 0-4.51-4-5-4-9 0-4.51 2-4 2-9 0-15.23-9.06-25.02-22-25.92.66-.06 1.32-.08 2-.08 14 0 24 10 24 26 0 5-2 4.49-2 9 0 4 4 4.49 4 9 0 5-2 5-2 9 0 4.51 4.37 4.53 5 9z" fill="#b26049"/><path d="m43 63c-5-1.886-5-9.429-5-9.429v-1.571h-12v1.571s0 7.543-5 9.429z" fill="#ffd29d"/><path d="m36 14s3 10 14 10c0 0 0 30-18 30s-18-30-18-30 17-1 22-10z" fill="#ffd29d"/><path d="m50 24s0 30-18 30a12.345 12.345 0 0 1 -1.5-.08c16.5-1.61 16.5-29.92 16.5-29.92a14.257 14.257 0 0 1 -12.87-7.5 11.739 11.739 0 0 0 1.87-2.5s3 10 14 10z" fill="#ffc08d"/><path d="m38.09 54.86a15.966 15.966 0 0 1 -6.09 1.14 15.966 15.966 0 0 1 -6.09-1.14 12.464 12.464 0 0 0 .09-1.29v-.89a14.3 14.3 0 0 0 12 0v.89a12.464 12.464 0 0 0 .09 1.29z" fill="#ffc08d"/><path d="m51 54a1 1 0 0 1 -.707-.293l-6-6a1 1 0 0 1 1.414-1.414l6 6a1 1 0 0 1 -.707 1.707z" fill="#8fdbcd"/><path d="m51.379 50.55h4.243v9.899h-4.243z" fill="#8fefdd" transform="matrix(.707 -.707 .707 .707 -23.575 54.086)"/><circle cx="38" cy="39" fill="#8fefdd" r="12"/><circle cx="38" cy="39" fill="#ffd29d" r="10"/><g fill="#ffaa8d"><circle cx="33" cy="36" r="1"/><circle cx="32" cy="42" r="1"/><circle cx="38" cy="46" r="1"/><circle cx="44" cy="41" r="1"/><circle cx="42" cy="34" r="1"/><circle cx="38" cy="39" r="1"/></g></svg>