<?xml version="1.0"?>
<svg xmlns="http://www.w3.org/2000/svg" data-name="&#x421;&#x43B;&#x43E;&#x439; 1" id="&#x421;&#x43B;&#x43E;&#x439;_1" viewBox="0 0 2039 1997.57"><defs><style>.cls-1{fill:#55f9da;}.cls-2{fill:#25a58c;}.cls-3{fill:none;stroke:#000;stroke-linecap:round;stroke-linejoin:round;stroke-width:39px;}.cls-4{fill:#ffbf9c;}.cls-5{fill:#ffa071;}.cls-6{fill:#af1166;}</style></defs><title/><path class="cls-1" d="M2478.26,1511.71,2523,1158.78l-747.77,40-798.23-40,34,293.69c136,103.9,364.75,214.81,722,214.81C2088.29,1667.28,2329.65,1587.2,2478.26,1511.71Z" transform="translate(-730.5 -751.22)"/><path class="cls-2" d="M1733,1667.28c-357.21,0-586-110.91-722-214.81l36,310.27-70,414H2523L2453,1711l25.26-199.28C2329.65,1587.2,2088.29,1667.28,1733,1667.28Z" transform="translate(-730.5 -751.22)"/><polyline class="cls-3" points="1486.74 423.67 1792.5 407.57 1742.5 933.07 1766.82 1172.6"/><polyline class="cls-3" points="279.69 1124.8 296.5 972.54 246.5 407.57 540.53 422.53"/><path class="cls-4" d="M1582.61,1095.61c-54.36-14.49-134.08-25.37-134.08-25.37s-77,35.33-76.1,54.36-1.81,80.63.91,90.59c1,3.79-2.72,11.46-7.78,19.51a118.28,118.28,0,0,1-41,39.35c-76.56,44.3-340.41,198.08-449,275.88-127.74,91.5-127.28,92-125,135,.92,17.38,32.61,48,38,79.72s160.35,319.79,282.65,412.19l339.72-85.16s-5.6-2.61-14.57-6.87l-175.51,54.52s-325.85-313-319.85-399,288-306,346-338c38-21,153.47-46.7,228.44-61.92,36.48-31.06,118.43-183.46,152.47-186.78C1627.9,1153.59,1637,1110.1,1582.61,1095.61Z" transform="translate(-730.5 -751.22)"/><path class="cls-5" d="M901,1740.28c-6,86,319.85,399,319.85,399l175.51-54.52c-29.55-14.06-95.66-46.2-118.6-62.88-27.59-20.07-145.49-186-212.64-235a81,81,0,0,1-25.67-30.92h0a42.82,42.82,0,0,1,6.18-46c60.69-71.07,258.57-298.81,327.25-328.57,0,0,63.87-28.54,93.76-35.78,2.5-.61,5.46-2.44,8.79-5.27-75,15.22-190.4,40.93-228.44,61.92C1189,1434.28,907,1654.28,901,1740.28Z" transform="translate(-730.5 -751.22)"/><path class="cls-5" d="M2600.92,1740.28c-6-86-288-306-346-338-38.46-21.22-156.07-47.28-230.94-62.42,3.57,3.13,6.73,5.14,9.38,5.78,29.9,7.25,93.76,35.78,93.76,35.78,68.68,29.76,266.56,257.5,327.25,328.57a42.82,42.82,0,0,1,6.18,46h0a81,81,0,0,1-25.67,30.92c-67.14,48.94-185,214.88-212.64,235-22.74,16.54-87.94,48.28-117.84,62.52l176.67,54.88S2606.92,1826.28,2600.92,1740.28Z" transform="translate(-730.5 -751.22)"/><path class="cls-4" d="M2624.46,1549.93c-108.61-77.8-372.46-231.58-449-275.88a118.28,118.28,0,0,1-41-39.35c-5.05-8-8.81-15.71-7.78-19.51,2.72-10,0-71.57.91-90.59s-76.1-54.36-76.1-54.36-79.72,10.87-134.08,25.37-45.3,58-45.3,58c33.85,3.3,115.11,154.1,151.88,186.27,74.88,15.15,192.48,41.2,230.94,62.42,58,32,340,252,346,338s-319.85,399-319.85,399l-176.67-54.88c-9.41,4.48-15.33,7.24-15.33,7.24l339.72,85.16c122.3-92.4,277.21-380.49,282.65-412.19s37.13-62.34,38-79.72C2751.75,1641.88,2752.2,1641.43,2624.46,1549.93Z" transform="translate(-730.5 -751.22)"/><rect class="cls-4" height="195" width="327" x="852" y="1150.57"/><path class="cls-4" d="M1939.6,1723.76c0,147.78-118.92,267.57-212.21,267.57s-212.21-119.8-212.21-267.57,95-267.57,212.21-267.57S1939.6,1576,1939.6,1723.76Z" transform="translate(-730.5 -751.22)"/><path class="cls-6" d="M1727.39,1445.95s-182,139.88-182.21,298.77c-.09,72.69,52.21,180.49,52.21,180.49l-3.54,140.7L1473,2079.55s-41.92-274.89-35.09-355.79S1509,1453.74,1727.39,1445.95Z" transform="translate(-730.5 -751.22)"/><path class="cls-6" d="M1733,1455.95s93.81-48.74,222.48,0,134,137.48,213,157.95,142.06,49.21,156.69,130.11-152.28,166.18-192.25,163.26-1.79,73.5,105.84,122c0,0-182.85,112.88-213.07,110s-125.75-3.9-137.44-56.54,20.5-220.53,20.5-220.53S2007.89,1569,1733,1455.95Z" transform="translate(-730.5 -751.22)"/><path class="cls-3" d="M1727.39,1455.95s-192,129.88-192.21,288.77c-.09,72.69,62.21,180.49,62.21,180.49l-3.54,140.7L1473,2079.55s-41.92-274.89-35.09-355.79S1509,1463.74,1727.39,1455.95Z" transform="translate(-730.5 -751.22)"/><path class="cls-3" d="M1732,1455.95s94.81-58.74,223.48-10,134,137.48,213,157.95,142.06,49.21,156.69,130.11-152.28,166.18-192.25,163.26c-31.66-2.32-1.74,45.15,65.56,89.12,24.91,16.27,23.37,53.21-2.92,67.13-62.25,33-150.71,77.61-169.86,75.75-30.22-2.92-125.75-3.9-137.44-56.54s20.5-220.53,20.5-220.53S2006.89,1569,1732,1455.95Z" transform="translate(-730.5 -751.22)"/><path class="cls-5" d="M1733.83,840.63l20.93,64.4a6.83,6.83,0,0,0,6.5,4.72H1829a6.83,6.83,0,0,1,4,12.36l-54.78,39.8a6.83,6.83,0,0,0-2.48,7.64l20.93,64.4a6.83,6.83,0,0,1-10.52,7.64l-54.78-39.8a6.83,6.83,0,0,0-8,0l-54.78,39.8A6.83,6.83,0,0,1,1658,1034l20.93-64.4a6.83,6.83,0,0,0-2.48-7.64l-54.78-39.8a6.83,6.83,0,0,1,4-12.36h67.72a6.83,6.83,0,0,0,6.5-4.72l20.93-64.4A6.83,6.83,0,0,1,1733.83,840.63Z" transform="translate(-730.5 -751.22)"/><path class="cls-5" d="M1451.86,775.44l20.93,64.4a6.83,6.83,0,0,0,6.5,4.72H1547a6.83,6.83,0,0,1,4,12.36l-54.78,39.8a6.83,6.83,0,0,0-2.48,7.64l20.93,64.4a6.83,6.83,0,0,1-10.52,7.64l-54.78-39.8a6.83,6.83,0,0,0-8,0l-54.78,39.8a6.83,6.83,0,0,1-10.52-7.64l20.93-64.4a6.83,6.83,0,0,0-2.48-7.64l-54.78-39.8a6.83,6.83,0,0,1,4-12.36h67.72a6.83,6.83,0,0,0,6.5-4.72l20.93-64.4A6.83,6.83,0,0,1,1451.86,775.44Z" transform="translate(-730.5 -751.22)"/><path class="cls-1" d="M2750,2185.28s-233-110-1008-110-992,110-992,110v544H2750Z" transform="translate(-730.5 -751.22)"/><path class="cls-3" d="M2750,2729.28v-544s-233-110-1008-110-992,110-992,110v544" transform="translate(-730.5 -751.22)"/><path class="cls-3" d="M1733.83,840.63l20.93,64.4a6.83,6.83,0,0,0,6.5,4.72H1829a6.83,6.83,0,0,1,4,12.36l-54.78,39.8a6.83,6.83,0,0,0-2.48,7.64l20.93,64.4a6.83,6.83,0,0,1-10.52,7.64l-54.78-39.8a6.83,6.83,0,0,0-8,0l-54.78,39.8A6.83,6.83,0,0,1,1658,1034l20.93-64.4a6.83,6.83,0,0,0-2.48-7.64l-54.78-39.8a6.83,6.83,0,0,1,4-12.36h67.72a6.83,6.83,0,0,0,6.5-4.72l20.93-64.4A6.83,6.83,0,0,1,1733.83,840.63Z" transform="translate(-730.5 -751.22)"/><path class="cls-3" d="M1451.86,775.44l20.93,64.4a6.83,6.83,0,0,0,6.5,4.72H1547a6.83,6.83,0,0,1,4,12.36l-54.78,39.8a6.83,6.83,0,0,0-2.48,7.64l20.93,64.4a6.83,6.83,0,0,1-10.52,7.64l-54.78-39.8a6.83,6.83,0,0,0-8,0l-54.78,39.8a6.83,6.83,0,0,1-10.52-7.64l20.93-64.4a6.83,6.83,0,0,0-2.48-7.64l-54.78-39.8a6.83,6.83,0,0,1,4-12.36h67.72a6.83,6.83,0,0,0,6.5-4.72l20.93-64.4A6.83,6.83,0,0,1,1451.86,775.44Z" transform="translate(-730.5 -751.22)"/><path class="cls-5" d="M2010.86,775.44l20.93,64.4a6.83,6.83,0,0,0,6.5,4.72H2106a6.83,6.83,0,0,1,4,12.36l-54.78,39.8a6.83,6.83,0,0,0-2.48,7.64l20.93,64.4a6.83,6.83,0,0,1-10.52,7.64l-54.78-39.8a6.83,6.83,0,0,0-8,0l-54.78,39.8a6.83,6.83,0,0,1-10.52-7.64l20.93-64.4a6.83,6.83,0,0,0-2.48-7.64l-54.78-39.8a6.83,6.83,0,0,1,4-12.36h67.72a6.83,6.83,0,0,0,6.5-4.72l20.93-64.4A6.83,6.83,0,0,1,2010.86,775.44Z" transform="translate(-730.5 -751.22)"/><path class="cls-3" d="M2010.86,775.44l20.93,64.4a6.83,6.83,0,0,0,6.5,4.72H2106a6.83,6.83,0,0,1,4,12.36l-54.78,39.8a6.83,6.83,0,0,0-2.48,7.64l20.93,64.4a6.83,6.83,0,0,1-10.52,7.64l-54.78-39.8a6.83,6.83,0,0,0-8,0l-54.78,39.8a6.83,6.83,0,0,1-10.52-7.64l20.93-64.4a6.83,6.83,0,0,0-2.48-7.64l-54.78-39.8a6.83,6.83,0,0,1,4-12.36h67.72a6.83,6.83,0,0,0,6.5-4.72l20.93-64.4A6.83,6.83,0,0,1,2010.86,775.44Z" transform="translate(-730.5 -751.22)"/><line class="cls-3" x1="997" x2="997" y1="371.57" y2="587.57"/><path class="cls-3" d="M1634.45,1369.25s-6.14-39.94-31.13-83.26" transform="translate(-730.5 -751.22)"/><path class="cls-3" d="M1825.92,1337.25s10.2-47,44.16-92.61" transform="translate(-730.5 -751.22)"/><path class="cls-3" d="M1400.94,2081.67s-93.28-38-123.17-59.76c-27.59-20.07-145.49-186-212.64-235a81,81,0,0,1-25.67-30.92h0a42.82,42.82,0,0,1,6.18-46c60.69-71.07,258.57-298.81,327.24-328.57,0,0,63.87-28.54,93.76-35.78s124.11-188.43,161.25-192.06c0,0,9.06-43.48-45.3-58s-134.08-25.37-134.08-25.37-77,35.33-76.1,54.36-1.81,80.63.91,90.59c1,3.79-2.72,11.46-7.78,19.51a118.28,118.28,0,0,1-41,39.35c-76.56,44.3-340.41,198.08-449,275.88-127.73,91.5-127.28,92-125,135,.91,17.38,32.61,48,38,79.72,4.58,26.74,115.49,235.83,223.48,356.11" transform="translate(-730.5 -751.22)"/><path class="cls-3" d="M2222.24,2021.91c27.59-20.07,145.49-186,212.64-235a81,81,0,0,0,25.67-30.92h0a42.82,42.82,0,0,0-6.18-46c-60.69-71.07-258.57-298.81-327.24-328.57,0,0-63.87-28.54-93.76-35.78s-124.11-188.43-161.25-192.06c0,0-9.06-43.48,45.3-58s134.08-25.37,134.08-25.37,77,35.33,76.1,54.36,1.81,80.63-.91,90.59c-1,3.79,2.72,11.46,7.78,19.51a118.28,118.28,0,0,0,41,39.35c76.56,44.3,340.41,198.08,449,275.88,127.73,91.5,127.28,92,125,135-.91,17.38-32.61,48-38,79.72-4.58,26.74-115.49,235.83-223.48,356.11" transform="translate(-730.5 -751.22)"/><path class="cls-3" d="M1903,1871.72c-43,72.09-111.9,119.61-170.65,119.61-55.31,0-113.62-42.1-156.83-107.18" transform="translate(-730.5 -751.22)"/><path class="cls-3" d="M925.5,2401.78s693-127,917-97,718,70,907.5,62.5" transform="translate(-730.5 -751.22)"/><path class="cls-3" d="M2034.47,1740.23a339.89,339.89,0,0,1-5,69.55c-25,145-38,231-22,265" transform="translate(-730.5 -751.22)"/><path class="cls-3" d="M2050.5,1613.78s21,33,62,54,146,43,76,119" transform="translate(-730.5 -751.22)"/><path class="cls-3" d="M1709.18,1469.35c-29.84,22.59-53.58,136.2-74.68,214.43-13.56,50.28-45.53,90.69-75.35,133.39-23.41,33.51-38.73,67.1-35.65,104.61" transform="translate(-730.5 -751.22)"/></svg>
