<svg id="Capa_1" enable-background="new 0 0 512 512" height="512" viewBox="0 0 512 512" width="512" xmlns="http://www.w3.org/2000/svg"><g><g><g><path d="m83.806 457.999 50.267-9.841 9.485-15.896-9.485-14.674-63.471 12.426c-.827-4.125-1.268-8.388-1.268-12.753 0-6.336.967-12.746 2.671-19.131l62.068-12.152 9.485-14.05-9.485-16.52-47.015 9.205c14.75-24.071 35.181-44.866 47.015-55.93l9.485-20.086-9.485-19.393-9.507 7.79c-3.48 2.853-85.232 70.644-85.232 140.267 0 52.239 42.5 94.738 94.739 94.738l9.485-15-9.485-15c-20.271.001-38.387-9.37-50.267-24z" fill="#ff2e56"/></g><path d="m143.58 276.995-9.507-7.79v39.479c9.071 8.481 23.195 22.68 35.939 39.689l-35.939 7.036v30.57l53.179-10.411c4.927 9.633 8.689 19.611 10.453 29.563l-63.632 12.458v30.57l61.956-12.13c-8.065 26.572-32.783 45.971-61.956 45.971v30c52.239 0 94.739-42.499 94.739-94.738 0-69.623-81.751-137.414-85.232-140.267z" fill="#ca4148"/></g><g><g><path d="m83.806 188.794 50.267-9.841 9.485-15.895-9.485-14.674-63.471 12.426c-.827-4.125-1.268-8.388-1.268-12.753 0-6.336.967-12.746 2.671-19.131l62.068-12.152 9.485-14.05-9.485-16.52-47.015 9.205c14.75-24.071 35.181-44.866 47.015-55.93l9.485-20.086-9.485-19.393-9.507 7.79c-3.48 2.853-85.232 70.644-85.232 140.267 0 52.239 42.5 94.738 94.739 94.738l9.485-15-9.485-15c-20.271 0-38.387-9.371-50.267-24.001z" fill="#ff2e56"/></g><path d="m143.58 7.79-9.507-7.79v39.479c9.071 8.481 23.195 22.68 35.939 39.689l-35.939 7.036v30.57l53.179-10.411c4.927 9.633 8.689 19.611 10.453 29.563l-63.632 12.458v30.57l61.956-12.13c-8.065 26.573-32.783 45.972-61.956 45.972v30c52.239 0 94.739-42.499 94.739-94.738 0-69.624-81.751-137.415-85.232-140.268z" fill="#ca4148"/><g><path d="m327.66 188.794 50.267-9.841 9.485-15.895-9.485-14.674-63.471 12.426c-.827-4.125-1.268-8.388-1.268-12.753 0-6.336.967-12.746 2.671-19.131l62.068-12.152 9.485-14.05-9.485-16.52-47.015 9.205c14.75-24.071 35.181-44.866 47.015-55.93l9.485-20.086-9.485-19.393-9.507 7.79c-3.48 2.853-85.232 70.644-85.232 140.267 0 52.239 42.5 94.738 94.739 94.738l9.485-15-9.485-15c-20.271 0-38.387-9.371-50.267-24.001z" fill="#ff2e56"/></g><path d="m387.434 7.79-9.507-7.79v39.479c9.071 8.481 23.195 22.68 35.939 39.689l-35.939 7.036v30.57l53.179-10.411c4.927 9.633 8.689 19.611 10.453 29.563l-63.632 12.458v30.57l61.956-12.13c-8.065 26.573-32.783 45.972-61.956 45.972v30c52.239 0 94.739-42.499 94.739-94.738 0-69.624-81.752-137.415-85.232-140.268z" fill="#ca4148"/></g><g><path d="m313.188 417.261c0-43.205 44.7-89.842 64.739-108.577l5.831-15.58-5.831-23.898-9.507 7.79c-3.48 2.853-85.232 70.644-85.232 140.266 0 52.239 42.5 94.739 94.739 94.739l5.831-12.325-5.831-17.676c-35.698 0-64.739-29.042-64.739-64.739z" fill="#ff2e56"/></g><path d="m387.434 276.995-9.507-7.79v39.479c20.039 18.735 64.739 65.372 64.739 108.577 0 35.697-29.042 64.739-64.739 64.739v30c52.239 0 94.739-42.5 94.739-94.739 0-69.622-81.752-137.413-85.232-140.266z" fill="#ca4148"/></g></svg>