<svg id="Layer_1" enable-background="new 0 0 100 100" height="512" viewBox="0 0 100 100" width="512" xmlns="http://www.w3.org/2000/svg"><g><path d="m66.07 41.33c5.85-.32 13.55-1.14 16.64-6.98 1.98-3.73 1.23-8.22-.73-11.79-4.34-7.88-13.77-11.21-22.35-10.66-8.37.53-16.76 3.93-23.91 8.2-6.47 3.86-12.16 8.92-16.62 15-4.21 5.74-7.03 12.27-8.87 19.12-1.87 6.97-2.5 14.46-.76 21.52.54 2.22 1.36 4.35 2.37 6.4.38.76 1.09.89 1.7.65.65-.09 1.2-.55 1.09-1.41-.33-2.66.51-5.37 1.47-7.82 1.46-3.72 3.64-7.21 6.08-10.37 5.04-6.52 11.57-11.85 18.93-15.54 7.74-3.88 16.34-5.85 24.96-6.32zm-44.26 17.62c-3.93 4.56-7.75 10.11-9.41 16.08-1.39-5.6-1.14-11.59.06-17.23 1.29-6.05 3.43-11.95 6.62-17.26 7.59-12.64 21.09-21.73 35.42-24.9 8.29-1.83 18.19-.66 23.67 6.55 2.23 2.93 3.73 7.19 1.99 10.56-2.88 5.59-10.95 5.29-16.22 5.72-8.2.67-16.27 2.66-23.69 6.26-7.02 3.42-13.35 8.3-18.44 14.22z"/><path d="m90.59 63.03c-2.24-5.53-7.47-9-13.12-10.37-5.6-1.35-11.73-1.15-17.36-.07-5.4 1.04-10.63 3.19-15.11 6.39-8.51 6.09-16.22 16.79-15.37 27.71v.01c0 1.09 1.2 1.68 2.09 1.36.48-.14.86-.52.9-1.12.49-1.64 1.66-3.06 2.82-4.27 1.8-1.89 3.89-3.46 6.12-4.81 5.35-3.24 11.5-5.14 17.75-5.44 3.32-.16 6.65.08 9.91.71 3.41.66 6.6 2 9.97 2.77 3.85.87 8.35.71 10.83-2.82 2.04-2.88 1.84-6.91.57-10.05zm-3.26 8.67c-2.72 3.26-8.1 1.13-11.32.09-6.03-1.95-12.48-2.86-18.8-2.21-6.44.66-12.73 2.79-18.16 6.33-1.97 1.28-4.16 2.88-5.96 4.77 1.48-6.7 6.01-12.84 11.06-17.23 7.98-6.93 18.95-9.6 29.34-8.45 5.63.62 11.48 3.15 14.05 8.51 1.22 2.54 1.6 6.03-.21 8.19z"/></g></svg>