<svg id="Capa_1" enable-background="new 0 0 512 512" height="512" viewBox="0 0 512 512" width="512" xmlns="http://www.w3.org/2000/svg"><g><g><path d="m85.213 504.5-29.16-103.09c-5.03-17.78-7.47-35.86-7.47-53.77 0-59.38 26.84-116.8 74.89-154.87 25.6-20.28 36.37-54.04 27.23-85.4l-29.11-99.87h268.81l-29.11 99.87c-9.14 31.36 1.63 65.12 27.23 85.4 48.05 38.07 74.89 95.49 74.89 154.87 0 17.91-2.44 35.99-7.47 53.77l-29.16 103.09" fill="#ffddce"/><g fill="#ffcbbe"><path d="m189.513 192.77c-24.1 38.07-37.57 95.49-37.57 154.87 0 17.91 1.23 35.99 3.75 53.77l14.63 103.09h-85.11l-29.16-103.09c-5.03-17.78-7.47-35.86-7.47-53.77 0-59.38 26.84-116.8 74.89-154.87 25.6-20.28 36.37-54.04 27.23-85.4l-29.11-99.87h66.98l14.6 99.87c4.59 31.36-.82 65.12-13.66 85.4z"/><path d="m296 340.926v163.57h-40v-141.53c16.84 0 31.62-8.79 40-22.04z"/><path d="m269.216 361.086c-4.19 1.23-8.63 1.88-13.22 1.88-16.84 0-31.62-8.79-40-22.04h11.967c8.109 0 15.85 3.22 21.695 8.841 5.434 5.225 12.116 9.159 19.558 11.319z"/></g><path d="m325.254 196.36c-1.022 0-2.033.047-3.037.116-2.493-13.78-14.543-24.236-29.042-24.236-4.342 0-8.461.945-12.173 2.628-1.237-15.167-13.93-27.092-29.416-27.092-14.827 0-27.098 10.931-29.202 25.174-5.673-2.384-11.903-3.703-18.442-3.703-26.313 0-47.644 21.331-47.644 47.644 0 23.203 16.591 42.523 38.555 46.767-1.49 3.528-2.314 7.406-2.314 11.477 0 16.305 13.218 29.523 29.523 29.523 12.812 0 23.714-8.163 27.799-19.571 5.366 5.529 12.871 8.971 21.184 8.971 12.438 0 23.072-7.696 27.42-18.582 7.427 5.69 16.709 9.078 26.788 9.078 24.354 0 44.097-19.743 44.097-44.097.001-24.354-19.742-44.097-44.096-44.097z" fill="#b3e59f"/><path d="m247.343 167.51c0 5.23 1.74 10.06 4.67 13.93-2.6-.44-5.26-.67-7.98-.67-26.31 0-47.64 21.33-47.64 47.64 0 16.44 8.33 30.93 20.99 39.49-3.47 4.09-5.56 9.37-5.56 15.15 0 9.53 5.69 17.73 13.85 21.39-1.18.15-2.38.22-3.6.22-16.31 0-29.53-13.22-29.53-29.53 0-4.07.83-7.94 2.32-11.47-21.97-4.25-38.56-23.57-38.56-46.77 0-26.31 21.33-47.64 47.65-47.64 6.54 0 12.77 1.32 18.44 3.7 2.1-14.24 14.37-25.17 29.2-25.17 2.02 0 3.99.2 5.9.59-6.13 4.15-10.15 11.18-10.15 19.14z" fill="#95d6a4"/></g><g><path d="m300.008 334.586c-3.5-2.214-8.133-1.171-10.348 2.33-7.346 11.615-19.93 18.549-33.662 18.549s-26.317-6.934-33.663-18.549c-2.214-3.5-6.846-4.544-10.348-2.33-3.501 2.214-4.544 6.847-2.33 10.348 8.757 13.845 22.926 22.845 38.845 25.012v134.553c0 4.142 3.358 7.5 7.5 7.5s7.5-3.358 7.5-7.5v-134.555c15.915-2.168 30.081-11.167 38.836-25.01 2.214-3.501 1.171-8.133-2.33-10.348z"/><path d="m450.749 258.973c-13.376-27.914-33.284-52.839-57.57-72.081-23.32-18.474-33.01-48.863-24.687-77.422l29.11-99.87c1.159-3.977-1.125-8.14-5.102-9.299-3.976-1.159-8.14 1.125-9.299 5.102l-29.11 99.869c-10.039 34.444 1.647 71.097 29.772 93.376 22.51 17.834 40.961 40.935 53.358 66.806 12.227 25.515 18.69 53.934 18.69 82.185 0 17.468-2.418 34.872-7.187 51.728l-29.159 103.089c-1.127 3.986 1.19 8.131 5.175 9.258.683.193 1.37.285 2.045.285 3.271 0 6.279-2.158 7.213-5.46l29.159-103.089c5.145-18.185 7.753-36.963 7.753-55.811.001-30.48-6.971-61.141-20.161-88.666z"/><path d="m63.276 399.368c-4.769-16.857-7.187-34.26-7.187-51.728 0-2.144.039-4.311.115-6.441.149-4.139-3.086-7.616-7.226-7.764-4.129-.151-7.616 3.086-7.764 7.226-.083 2.309-.125 4.657-.125 6.979 0 18.849 2.609 37.626 7.753 55.811l29.16 103.089c.935 3.303 3.941 5.46 7.213 5.46.676 0 1.363-.092 2.045-.285 3.986-1.127 6.303-5.272 5.175-9.258z"/><path d="m157.908 105.273-29.11-99.869c-1.159-3.977-5.326-6.261-9.299-5.102-3.977 1.159-6.261 5.322-5.102 9.299l29.11 99.869c8.323 28.558-1.367 58.948-24.687 77.422-38.766 30.716-65.126 74.412-74.224 123.038-.762 4.072 1.921 7.99 5.993 8.751.466.087.93.129 1.388.129 3.54 0 6.689-2.517 7.364-6.122 8.433-45.07 32.865-85.571 68.794-114.04 28.126-22.279 39.812-58.931 29.773-93.375z"/><path d="m369.322 248.175c-3.901-1.39-8.191.648-9.581 4.55-5.18 14.549-19.038 24.325-34.485 24.325-8.115 0-15.802-2.602-22.229-7.524-1.863-1.427-4.286-1.899-6.549-1.277-2.263.623-4.103 2.268-4.975 4.447-3.368 8.422-11.397 13.864-20.456 13.864-6.002 0-11.617-2.378-15.809-6.695-1.804-1.859-4.437-2.656-6.97-2.105-2.531.549-4.6 2.364-5.472 4.802-3.124 8.731-11.455 14.598-20.728 14.598-12.147 0-22.03-9.883-22.03-22.03 0-2.957.582-5.834 1.729-8.553.879-2.083.772-4.452-.293-6.447-1.064-1.995-2.972-3.403-5.192-3.832-18.823-3.642-32.484-20.214-32.484-39.406 0-22.133 18.011-40.14 40.15-40.14 5.376 0 10.605 1.049 15.541 3.117 2.137.896 4.567.753 6.585-.385 2.018-1.139 3.395-3.145 3.734-5.437 1.578-10.698 10.941-18.765 21.78-18.765 11.381 0 21.016 8.872 21.934 20.196.197 2.432 1.564 4.615 3.665 5.854 2.102 1.239 4.674 1.379 6.897.375 2.887-1.304 5.947-1.965 9.093-1.965 10.658 0 19.767 7.601 21.66 18.074.681 3.765 4.089 6.413 7.903 6.148.996-.07 1.795-.102 2.517-.102 15.448 0 29.306 9.779 34.484 24.334 1.389 3.903 5.68 5.942 9.58 4.552 3.903-1.388 5.941-5.677 4.552-9.58-7.002-19.683-25.265-33.171-45.965-34.238-5.27-14.33-18.997-24.188-34.731-24.188-2.223 0-4.418.196-6.577.585-3.727-10.808-12.36-19.344-23.098-23.044v-13.151c0-4.142-3.358-7.5-7.5-7.5s-7.5 3.358-7.5 7.5v11.289c-13.941 1.181-26.016 10.268-31.211 22.957-4.342-1.081-8.805-1.626-13.344-1.626-30.41 0-55.15 24.736-55.15 55.14 0 23.606 15.051 44.328 36.766 51.997-.35 2.05-.526 4.135-.526 6.243 0 20.418 16.611 37.03 37.03 37.03 12.191 0 23.411-6.029 30.238-15.676 5.617 3.312 12.035 5.076 18.742 5.076 12.194 0 23.277-5.862 30.115-15.463 7.375 3.914 15.568 5.953 24.095 5.953 21.776 0 41.314-13.782 48.616-34.294 1.388-3.905-.649-8.194-4.551-9.583z"/></g></g></svg>