<svg id="Capa_1" enable-background="new 0 0 511.844 511.844" height="512" viewBox="0 0 511.844 511.844" width="512" xmlns="http://www.w3.org/2000/svg"><g><g><path d="m178.844 110.351h127.494v317.839h-127.494z" fill="#d8ecfe" transform="matrix(.707 .707 -.707 .707 261.456 -92.671)"/><path d="m385.485 187.417-224.746 224.746-75.597-75.596 90.152 90.152 224.746-224.746z" fill="#cde2ff"/><path d="m131.193 225.391h127.494v183.061h-127.494z" fill="#9cf8d2" transform="matrix(.707 .707 -.707 .707 281.194 -45.019)"/><path d="m290.182 282.72-129.443 129.443-75.597-75.596 90.152 90.152 129.444-129.444z" fill="#6cf5c2"/><path d="m175.294 426.719-90.152-90.152-20.471 20.471c-6.229 6.229-6.229 16.328 0 22.558l1.002 32.089c.587 18.807 15.696 33.915 34.503 34.503l32.089 1.002c6.229 6.229 16.328 6.229 22.558 0z" fill="#8d9ca8"/><path d="m160.739 412.163-20.471 20.471c-6.229 6.229-16.328 6.229-22.558 0l-32.089-1.002c-5.682-.177-11.022-1.688-15.73-4.217 5.844 10.876 17.16 18.363 30.285 18.773l32.089 1.002c6.229 6.229 16.328 6.229 22.558 0l20.471-20.471z" fill="#7a8c98"/><path d="m443.283 170.737-102.159-102.158c-3.796-3.796-9.95-3.796-13.746 0l-23.493 23.493c-3.796 3.796-3.796 9.95 0 13.746l102.158 102.158c3.796 3.796 9.95 3.796 13.746 0l23.493-23.493c3.797-3.796 3.797-9.95.001-13.746z" fill="#b3dafe"/><path d="m443.283 170.737-14.555-14.555c3.796 3.796 3.796 9.95 0 13.746l-23.493 23.493c-3.796 3.796-9.95 3.796-13.746 0l-43.802-43.801 58.357 58.357c3.796 3.796 9.95 3.796 13.746 0l23.493-23.493c3.796-3.797 3.796-9.951 0-13.747z" fill="#8ac9fe"/><path d="m395.876 61.7h40.668v67.902h-40.668z" fill="#60b7ff" transform="matrix(.707 .707 -.707 .707 189.541 -266.29)"/><path d="m389.36 92.459h67.902v20.584h-67.902z" fill="#26a6fe" transform="matrix(.707 -.707 .707 .707 51.329 329.422)"/><path d="m499.357 77.738-65.234-65.234c-6.881-6.881-18.037-6.881-24.918 0l-1.604 1.604c-6.881 6.881-6.881 18.037 0 24.918l65.234 65.234c6.881 6.881 18.037 6.881 24.918 0l1.604-1.604c6.881-6.881 6.881-18.037 0-24.918z" fill="#b3dafe"/><g><path d="m499.357 77.738-14.555-14.555c6.881 6.881 6.881 18.037 0 24.918l-1.604 1.604c-6.881 6.881-18.037 6.881-24.918 0l14.555 14.555c6.881 6.881 18.037 6.881 24.918 0l1.604-1.604c6.881-6.881 6.881-18.037 0-24.918z" fill="#8ac9fe"/></g></g><g><path d="m504.66 72.435-65.233-65.233c-8.7-9.045-25.691-10.145-35.524-.001-10.457 8.566-12.289 26.744-1.604 37.129l12.935 12.935-37.407 37.407-31.398-31.398c-6.714-6.712-17.638-6.714-24.353 0l-23.493 23.493c-5.964 5.876-7.261 17.949.7 25.053l-239.916 239.915c-8.375 8.375-9.078 21.562-2.109 30.745l.919 29.438c.271 8.672 3.12 16.703 7.795 23.363l-63.758 63.759c-2.929 2.93-2.929 7.678 0 10.607 1.464 1.464 3.384 2.196 5.303 2.196s3.839-.732 5.303-2.196l63.759-63.759c6.66 4.675 14.691 7.524 23.363 7.795l29.434.919c4.056 3.088 8.983 4.759 14.168 4.759 6.264 0 12.153-2.439 16.582-6.868l188.828-188.827c2.929-2.93 2.929-7.678 0-10.607-2.929-2.928-7.678-2.928-10.606 0l-33.61 33.61-79.544-79.545 19.973-19.973 23.783 23.784c1.464 1.464 3.384 2.196 5.303 2.196s3.839-.732 5.303-2.196c2.929-2.93 2.929-7.678 0-10.607l-23.783-23.783 19.25-19.25 23.784 23.784c1.464 1.464 3.384 2.196 5.303 2.196s3.839-.732 5.303-2.196c2.929-2.93 2.929-7.678 0-10.607l-23.783-23.783 24.259-24.259 79.545 79.545-26.28 26.28c-2.929 2.93-2.929 7.678 0 10.607 2.929 2.928 7.678 2.928 10.606 0l26.28-26.281c5.835 6.308 17.242 8.297 25.053.7l23.493-23.493c5.711-5.643 7.279-17.092 0-24.354l-31.397-31.397 17.864-17.864c2.929-2.93 2.929-7.678 0-10.607-2.929-2.928-7.678-2.928-10.606 0l-17.864 17.865-18.15-18.15 37.407-37.407 41.692 41.692c4.897 4.896 11.33 7.345 17.762 7.345s12.865-2.448 17.762-7.345c10.657-8.953 12.088-26.828 1.604-37.131zm-355.141 369.452c-1.596 1.596-3.718 2.475-5.975 2.475s-4.379-.879-5.975-2.475c-1.35-1.35-3.162-2.134-5.07-2.193l-32.088-1.002c-14.812-.463-26.778-12.429-27.241-27.241l-1.002-32.089c-.06-1.907-.844-3.72-2.193-5.068-3.295-3.295-3.295-8.657 0-11.951l15.168-15.168 79.545 79.545zm144.612-144.612-118.837 118.837-79.545-79.545 90.5-90.5 23.784 23.784c1.464 1.464 3.384 2.196 5.303 2.196s3.839-.732 5.303-2.196c2.929-2.93 2.929-7.678 0-10.607l-23.783-23.783 17.73-17.73zm144.498-119.665c0 .42-.113 1.032-.65 1.569l-23.492 23.493c-.866.865-2.275.867-3.141 0l-102.158-102.158c-.075-.628-1.338-.402 0-3.139l23.492-23.493c.601.135-.111-1.399 3.141 0l102.158 102.159c.537.537.65 1.15.65 1.569zm55.425-80.257-1.604 1.604c-3.945 3.947-10.365 3.946-14.312 0l-65.233-65.234c-3.538-3.577-4.412-11.093 1.604-15.915 3.015-2.865 9.103-4.61 14.311.001l65.234 65.233c3.945 3.945 3.945 10.365 0 14.311z"/><path d="m148.505 142.758c1.464 1.464 3.384 2.196 5.303 2.196s3.839-.732 5.303-2.196c2.929-2.93 2.929-7.678 0-10.607l-17.371-17.371c-2.929-2.928-7.678-2.928-10.606 0-2.929 2.93-2.929 7.678 0 10.607z"/><path d="m191.266 126.77c4.142 0 7.5-3.357 7.5-7.5v-27.822c0-4.143-3.358-7.5-7.5-7.5s-7.5 3.357-7.5 7.5v27.821c0 4.143 3.358 7.501 7.5 7.501z"/><path d="m108.07 182.146h27.822c4.142 0 7.5-3.357 7.5-7.5s-3.358-7.5-7.5-7.5h-27.822c-4.142 0-7.5 3.357-7.5 7.5s3.358 7.5 7.5 7.5z"/><circle cx="182.984" cy="365.365" r="7.689"/><circle cx="208.482" cy="340.672" r="7.689"/></g></g></svg>