<svg id="Flat" height="512" viewBox="0 0 512 512" width="512" xmlns="http://www.w3.org/2000/svg"><g><path d="m360.967 148.6-22.173-11.186a30.005 30.005 0 0 0 -18.066-27.219l-27.028-11.725a27.684 27.684 0 0 0 -53.7-10.6v-1.678l-6.576-3.181a30 30 0 0 0 -42.213 19.905l-4.111 54.363a39.992 39.992 0 0 0 -50.617 31.821l-6.092 36.549a30 30 0 0 0 7.394 25.113l63.826 70.208a20 20 0 0 1 4.98 16.421l-22.591 150.609v16h136v-16l-22.42-149.467a20 20 0 0 1 6.279-17.723l28.621-26.184a29.994 29.994 0 0 0 9.167-16.251l3.857-19.284 30.625-74.891a30 30 0 0 0 -15.162-35.6z" fill="#fbb8b0"/><g fill="#d877ff"><path d="m281.107 204.105c-.353-.017-.706-.039-1.062-.039-17.648 0-31.955 20.58-31.955 45.967a63.789 63.789 0 0 0 2.23 16.863c.658.451 1.326.892 2.016 1.306l19.664 11.798z"/><path d="m328 191.105c-.354-.017-.706-.039-1.062-.039-17.648 0-31.955 20.58-31.955 45.967a63.831 63.831 0 0 0 2.229 16.863c.659.451 1.327.892 2.017 1.306l14.664 7.8z"/><path d="m373.079 191.661c-16.481-.624-32.3 16.84-36.1 40.6a63.877 63.877 0 0 0 -.465 17c.579.55 1.169 1.09 1.785 1.608l7.944 6.419z"/></g><path d="m316 376a27.907 27.907 0 0 0 -20 8.412 27.982 27.982 0 0 0 -40 0 27.982 27.982 0 0 0 -40 0 28 28 0 1 0 0 39.176 27.982 27.982 0 0 0 40 0 27.982 27.982 0 0 0 40 0 28 28 0 1 0 20-47.588z" fill="#f553a3"/><g fill="#fdd9ed"><path d="m248 16h16v32h-16z"/><path d="m153.688 37.496h16v44.712h-16z" transform="matrix(.901 -.433 .433 .901 -9.966 75.977)"/><path d="m327.956 51.852h44.712v16h-44.712z" transform="matrix(.433 -.901 .901 .433 144.567 349.627)"/><path d="m42.018 150.847h16v30.511h-16z" transform="matrix(.4 -.917 .917 .4 -122.224 145.505)"/><path d="m88 168.713h16v34.915h-16z" transform="matrix(.4 -.917 .917 .4 -113.028 199.688)"/><path d="m392 275.203h16v87.287h-16z" transform="matrix(.4 -.917 .917 .4 -52.228 557.913)"/><path d="m457.982 336.752h16v21.782h-16z" transform="matrix(.4 -.917 .917 .4 -39.039 635.652)"/><path d="m446.726 158.102h30.511v16h-30.511z" transform="matrix(.917 -.4 .4 .917 -27.873 198.655)"/><path d="m398.543 178.17h34.915v16h-34.915z" transform="matrix(.917 -.4 .4 .917 -39.738 181.941)"/><path d="m68.356 310.847h87.287v16h-87.287z" transform="matrix(.917 -.4 .4 .917 -118.189 71.419)"/><path d="m35.127 339.644h21.782v16h-21.782z" transform="matrix(.917 -.4 .4 .917 -135.215 47.43)"/><path d="m439.716 36h56.569v16h-56.569z" transform="matrix(.707 -.707 .707 .707 105.961 343.813)"/><path d="m364.402 100h79.196v16h-79.196z" transform="matrix(.707 -.707 .707 .707 41.961 317.304)"/><path d="m79.431 368h113.137v16h-113.137z" transform="matrix(.707 -.707 .707 .707 -226.039 206.294)"/><path d="m12.402 452h79.196v16h-79.196z" transform="matrix(.707 -.707 .707 .707 -310.039 171.5)"/><path d="m36 15.716h16v56.569h-16z" transform="matrix(.707 -.707 .707 .707 -18.225 44)"/><path d="m100 68.402h16v79.196h-16z" transform="matrix(.707 -.707 .707 .707 -44.735 108)"/><path d="m368 319.431h16v113.137h-16z" transform="matrix(.707 -.707 .707 .707 -155.744 376)"/><path d="m452 420.402h16v79.196h-16z" transform="matrix(.707 -.707 .707 .707 -190.538 460)"/><path d="m384 248h112v16h-112z"/><path d="m16 248h88v16h-88z"/></g><path d="m328.967 236.38 24.4-91.618-14.576-7.353v-.082l-31.791 119.346-3.376-2.026c-5.275-3.165-10.779-10.049-15.559-19.441l20.823-130.148-15.148-6.569-27.77 173.563-9.518-5.71a31.99 31.99 0 0 1 -15.519-28.485l17.108-167.085a27.811 27.811 0 0 0 -17.757 16.348l-11.125 108.647a32.1 32.1 0 0 1 -28.059 10.683l-27.107-3.388-1.984 15.876 27.107 3.388a47.637 47.637 0 0 0 5.925.369 48.131 48.131 0 0 0 21.9-5.288l-1.954 19.081c-.016.165-.028.33-.035.5a47.982 47.982 0 0 0 23.266 43.079l19.664 11.8a8 8 0 0 0 12.015-5.6l4.421-27.627a45.548 45.548 0 0 0 11.076 9.73l12.488 7.493a8 8 0 0 0 11.846-4.8l4.106-15.414q1.434 1.372 2.979 2.622l16.229 13.123 2.46-12.3 1.933-4.726-10.562-8.539a32.161 32.161 0 0 1 -7.906-9.449z" fill="#fbaaa1"/><path d="m184.639 156.648a27.729 27.729 0 0 0 -.554 5.463c0 20.665 23.01 37.5 51.819 38.307a39.846 39.846 0 0 0 11.388-20.876l.708-3.542-60.3-18.553c-1.018-.314-2.039-.57-3.061-.799z" fill="#d877ff"/></g></svg>