<?xml version="1.0"?>
<svg xmlns="http://www.w3.org/2000/svg" viewBox="0 0 64 64" width="512" height="512"><g id="_08-Dizziness" data-name="08-Dizziness"><path d="M53,63H11l14-3s2,2,7,2,7-2,7-2Z" style="fill:#34c1ad"/><polygon points="7.47 11 5 9.63 3.03 10.72 2.53 11 3 8.11 1 6.06 3.76 5.63 5 3 6.24 5.63 9 6.06 7.29 7.81 7 8.11 7.47 11" style="fill:#fedb03"/><polygon points="48.5 4.83 48.76 6.44 48.85 7 47 5.98 45.15 7 45.33 5.85 45.5 4.83 44 3.29 46.07 2.98 47 1 47.93 2.98 50 3.29 48.5 4.83" style="fill:#fedb03"/><polygon points="59 8 60.24 10.63 63 11.06 61 13.11 61.47 16 59 14.63 56.53 16 56.98 13.25 57 13.11 55 11.06 57.76 10.63 58.24 9.61 59 8" style="fill:#fedb03"/><path d="M51.88,14.99A6.574,6.574,0,0,0,46.66,12c-3.72.11-4.66,2-4.66,2s-4-5-9-5c-4,0-7,0-14,4a47.248,47.248,0,0,1-5.5,2.68A38.4,38.4,0,0,1,6,18a8.613,8.613,0,0,0,8,5s-4,2-4,8,3,8,3,8l.24-.06A7.87,7.87,0,0,1,13,37V36a3,3,0,0,1,3-3h2V28l6-5v6a11.365,11.365,0,0,0,3.99-.75,19.608,19.608,0,0,0,8-6.23L35,26a7.458,7.458,0,0,0,6-5s1,6,5,8v4h2a3,3,0,0,1,3,3v1a8.1,8.1,0,0,1-.06.99L51,38l2.43-4.05A4.018,4.018,0,0,0,54,31.89V21A10.509,10.509,0,0,0,51.88,14.99Z" style="fill:#5e3616"/><path d="M39,53.25V60s-2,2-7,2-7-2-7-2V53.25a14.875,14.875,0,0,0,14,0Z" style="fill:#f2b59d"/><path d="M39,53.25a14.875,14.875,0,0,1-14,0A13.626,13.626,0,0,1,18,44a6.72,6.72,0,0,1-4.76-5.06A7.87,7.87,0,0,1,13,37V36a3,3,0,0,1,3-3h2V28l6-5v6a11.365,11.365,0,0,0,3.99-.75,19.608,19.608,0,0,0,8-6.23L35,26a7.458,7.458,0,0,0,6-5s1,6,5,8v4h2a3,3,0,0,1,3,3v1a8.1,8.1,0,0,1-.06.99A6.887,6.887,0,0,1,46,44,13.626,13.626,0,0,1,39,53.25Z" style="fill:#f2c4b2"/><path d="M39,53.25a14.875,14.875,0,0,1-14,0V60a5.44,5.44,0,0,0,1.328.859L39,55.429Z" style="fill:#ed9776"/><path d="M46,42V35h1a2,2,0,0,1,2,2v1.117a4,4,0,0,1-2.735,3.8Z" style="fill:#f2a283"/><path d="M18,42V35H17a2,2,0,0,0-2,2v1.117a4,4,0,0,0,2.735,3.8Z" style="fill:#f2a283"/><ellipse cx="32" cy="40" rx="1" ry="2" style="fill:#d9896d"/><path d="M36,51H28s0-5,4-5S36,51,36,51Z" style="fill:#d9896d"/><path d="M46,29c-4-2-5-8-5-8a7.458,7.458,0,0,1-6,5l.99-3.98a19.608,19.608,0,0,1-8,6.23A11.365,11.365,0,0,1,24,29V23l-6,5v5H46Z" style="fill:#ad706d"/><path d="M27.99,31.25a18.89,18.89,0,0,0,7.255-5.311c-.083.019-.159.044-.245.061l.99-3.98a19.608,19.608,0,0,1-8,6.23A11.365,11.365,0,0,1,24,29v3A11.365,11.365,0,0,0,27.99,31.25Z" style="fill:#875755"/><path d="M41,24s1,6,5,8V29c-4-2-5-8-5-8a7.35,7.35,0,0,1-5.2,4.8L35,29A7.458,7.458,0,0,0,41,24Z" style="fill:#875755"/><polygon points="24 23 18 28 18 31 24 26 24 23" style="fill:#875755"/><path d="M14,23s-4,2-4,8,3,8,3,8l.24-.06A7.87,7.87,0,0,1,13,37V36a3,3,0,0,1,3-3h2V28l-5,2C11,27,14,23,14,23Z" style="fill:#3b220e"/><path d="M46,29v4h2a3,3,0,0,1,3,3V31A7.651,7.651,0,0,1,46,29Z" style="fill:#3b220e"/><path d="M42,41a5,5,0,0,0,0,10c.029,0,.055-.008.084-.008A13.266,13.266,0,0,0,46,44c.169-.043.324-.112.486-.168A4.983,4.983,0,0,0,42,41Z" style="fill:#f2a283"/><path d="M27,46a4.989,4.989,0,0,0-9.489-2.164c.162.056.32.121.489.164a13.266,13.266,0,0,0,3.916,6.992c.029,0,.055.008.084.008A5,5,0,0,0,27,46Z" style="fill:#f2a283"/><path d="M48.911,6.892a.408.408,0,0,1-.084-.033L48.85,7,47,5.98,45.15,7l.123-.786a.478.478,0,0,1-.335.082A115.943,115.943,0,0,0,31,5.5c-9.611,0-18.414,1.041-23.549,2.784l-.291.1a.484.484,0,0,1-.112.018L7.47,11,5,9.63,3.787,10.3l0,.009a1.281,1.281,0,0,0-.263.513A.806.806,0,0,0,3.5,11c0,1.132,2.641,2.908,10.084,4.188A105.181,105.181,0,0,0,31,16.5a94.723,94.723,0,0,0,20.762-2,22.316,22.316,0,0,0,4.956-1.683L55,11.06l2.76-.43.252-.536c-.04-.039-.07-.079-.113-.118C56.611,8.807,53.417,7.709,48.911,6.892Z" style="fill:none"/><path d="M63.948,10.738a1,1,0,0,0-.8-.671l-2.236-.341-1.01-2.151a1,1,0,0,0-1.81,0l-.25.532a26.424,26.424,0,0,0-8.221-2.6l-.056-.34L50.716,3.99A1,1,0,0,0,50.151,2.3l-1.545-.237-.7-1.492a1,1,0,0,0-1.81,0l-.7,1.492L43.849,2.3a1,1,0,0,0-.565,1.686l.669.686A119.779,119.779,0,0,0,31,4,96.435,96.435,0,0,0,10,6a.961.961,0,0,0-.049-.263,1,1,0,0,0-.8-.671L6.915,4.726,5.905,2.575a1,1,0,0,0-1.81,0L3.085,4.726.849,5.067A1,1,0,0,0,.284,6.754L1.932,8.442l-.391,2.4a1,1,0,0,0,.411.978.963.963,0,0,0,.258.13C4.2,16.367,20.09,18,31,18c10.421,0,19.635-1.189,24.7-3.1l-.154.943a1,1,0,0,0,1.471,1.036L59,15.776l1.988,1.1a1,1,0,0,0,1.06-.058,1,1,0,0,0,.411-.978l-.391-2.4,1.648-1.688A1,1,0,0,0,63.948,10.738ZM46.224,3.963a1,1,0,0,0,.754-.563L47,3.353l.022.047a1,1,0,0,0,.754.563l.149.023-.141.145a1,1,0,0,0-.271.859l.023.138L47.484,5.1a1,1,0,0,0-.968,0l-.052.028.023-.138a1,1,0,0,0-.271-.859l-.141-.145ZM3.915,6.622a1,1,0,0,0,.754-.564L5,5.354l.331.7a1,1,0,0,0,.754.564l.84.128-.186.191-.074.024L6.678,7l-.394.4a1,1,0,0,0-.271.86l.141.861-.67-.37a1,1,0,0,0-.968,0l-.67.37.141-.861a1,1,0,0,0-.271-.86L3.075,6.75Zm.173,4.658.912-.5,1.988,1.1a1,1,0,0,0,1.06-.058,1,1,0,0,0,.411-.978L8.094,8.6C13.171,6.99,21.817,6,31,6a116.409,116.409,0,0,1,13.178.721l-.019.118A1,1,0,0,0,45.63,7.875L47,7.118l1.37.757a1,1,0,0,0,1.06-.058.991.991,0,0,0,.248-.265,23.723,23.723,0,0,1,7.065,2.226l-1.894.289a1,1,0,0,0-.565,1.687l1.1,1.124C50.759,14.772,41.391,16,31,16,14.175,16,4.982,13.07,4.088,11.28Zm56.2,1.127a1,1,0,0,0-.271.86l.141.861-.67-.37a1,1,0,0,0-.968,0l-.67.37.041-.252.038-.021-.027-.044.089-.544a1,1,0,0,0-.271-.86l-.641-.657.84-.128a1,1,0,0,0,.754-.564l.331-.7.331.7a1,1,0,0,0,.754.564l.84.128Z"/><path d="M32,45c-3.955,0-5,3.925-5,6a1,1,0,0,0,1,1h8a1,1,0,0,0,1-1C37,48.925,35.955,45,32,45Zm-2.9,5c.209-1.187.862-3,2.9-3,2.023,0,2.682,1.813,2.9,3Z"/><path d="M52.157,17.419A8.891,8.891,0,0,1,53,21V31.892a3.01,3.01,0,0,1-.427,1.544l-.792,1.318A3.992,3.992,0,0,0,48,32H47V29a1,1,0,0,0-.553-.895C42.958,26.361,42,20.89,41.986,20.834a1,1,0,0,0-.942-.829,1.025,1.025,0,0,0-1.013.746A6.176,6.176,0,0,1,36.4,24.539l.574-2.3a1,1,0,0,0-1.784-.824c-.044.062-4.289,5.912-10.186,6.529V23a1,1,0,0,0-1.64-.768l-6,5A1,1,0,0,0,17,28v4H16a4,4,0,0,0-4,4v.08A11.738,11.738,0,0,1,11,31c0-5.259,3.312-7.036,3.447-7.1A1,1,0,0,0,14,22a7.57,7.57,0,0,1-6.468-3.306c.7-.169,1.643-.421,2.772-.781L9.7,16.008a31.687,31.687,0,0,1-3.861,1.006,1,1,0,0,0-.764,1.358,9.544,9.544,0,0,0,6.48,5.357A10.5,10.5,0,0,0,9,31c0,6.461,3.305,8.738,3.445,8.832l.015-.022a7.739,7.739,0,0,0,4.692,4.978A15.145,15.145,0,0,0,32,56a15.814,15.814,0,0,0,6-1.184v4.7A10.527,10.527,0,0,1,32,61a10.527,10.527,0,0,1-6-1.485V56H24v3.191L10.791,62.022l.418,1.956,13.538-2.9C25.646,61.727,27.924,63,32,63s6.354-1.273,7.253-1.923l13.538,2.9.418-1.956L40,59.191V53.819a14.6,14.6,0,0,0,6.848-9.031A7.909,7.909,0,0,0,51.865,38.5l2.423-4.038A5,5,0,0,0,55,31.892V21a10.794,10.794,0,0,0-1.022-4.41ZM50,37a6.021,6.021,0,0,1-4.246,6.031,1,1,0,0,0-.734.772A13.1,13.1,0,0,1,32,54,13.1,13.1,0,0,1,18.98,43.8a1,1,0,0,0-.734-.772A6.021,6.021,0,0,1,14,37V36a2,2,0,0,1,2-2h2a1,1,0,0,0,1-1V28.468l4-3.333V29a1,1,0,0,0,1,1,11.881,11.881,0,0,0,2.5-.29A5.2,5.2,0,0,1,22,32v1.261A5.5,5.5,0,0,0,25.5,43H26V41h-.5a3.5,3.5,0,0,1,0-7H26a2,2,0,0,1,0,4h-.5a.5.5,0,0,1,0-1H27V35H25.5a2.5,2.5,0,0,0,0,5H26a3.991,3.991,0,0,0,1.039-7.846,5.71,5.71,0,0,0,1.864-3.2,18.573,18.573,0,0,0,5.172-3.376l-.045.179A1,1,0,0,0,35.2,26.98a8.871,8.871,0,0,0,5.509-3.287A11.32,11.32,0,0,0,45,29.587V33a1,1,0,0,0,1,1h2a2,2,0,0,1,2,2Z"/><path d="M42,12.5C40.518,10.972,37.114,8,33,8c-4.059,0-7.266,0-14.5,4.132q-.994.568-1.958,1.056l.908,1.782q1-.51,2.042-1.1C26.266,10,29.09,10,33,10c4.449,0,8.183,4.58,8.22,4.625a.994.994,0,0,0,.78.362.794.794,0,0,0,.085,0,1.023,1.023,0,0,0,.8-.512c.032-.056.822-1.378,3.805-1.467a4.5,4.5,0,0,1,2.731.924L50.584,12.3a6.477,6.477,0,0,0-3.956-1.3A7.306,7.306,0,0,0,42,12.5Z"/><path d="M42,32.556V32c-2.757,0-5-1.794-5-4H35a5.647,5.647,0,0,0,2.323,4.451A5.5,5.5,0,0,0,39.5,43H40V41h-.5a3.5,3.5,0,0,1,0-7H40a2,2,0,0,1,0,4h-.5a.5.5,0,0,1,0-1H41V35H39.5a2.5,2.5,0,0,0,0,5H40a3.987,3.987,0,0,0,2-7.444Z"/></g></svg>
