<svg id="_x30_1" enable-background="new 0 0 490.809 494.247" height="512" viewBox="0 0 490.809 494.247" width="512" xmlns="http://www.w3.org/2000/svg"><g><g><g><path d="m202.329 277.597c6.15 8.22 13.71 15.08 22.22 20.36-26.12 10.21-50.01 25.46-70.28 44.9l8.54-72.61 19.43-19.43z" fill="#656d78"/></g><g><path d="m466.809 246.117c0 2.67-.31 5.33-.92 7.91-.61 2.59-1.52 5.1-2.72 7.49l-4.36 8.73-12.26 18.76c-31.66-35.65-56.54-76.88-73.32-121.64l-3.14-8.38 4.24 5.09c18.67 22.39 42.83 39.55 70.13 49.79 6.72 2.52 12.31 6.99 16.21 12.63 3.91 5.64 6.14 12.44 6.14 19.62z" fill="#656d78"/></g><g><path d="m309.919 164.467c-4.6 3.94-9.64 7.28-15.02 9.97-10.14 5.07-21.45 7.81-33.09 7.81-17.48 0-34.44-5.95-48.09-16.87l-18.91-15.13c0 18.26-6.46 35.85-18.12 49.72-2.99-1.11-6.24-1.72-9.63-1.72-12.06 0-22.75 7.8-26.42 19.29l-4.07 12.73-.04-.01-9.4-32.89c-2.87-10.03-4.32-20.41-4.32-30.84 0-31 12.57-59.08 32.89-79.39 20.31-20.32 48.39-32.89 79.39-32.89 28.78 0 56.06 8.93 78.67 24.6s40.55 38.08 50.66 65.03l5.66 15.1.01.01 3.14 8.38c16.78 44.76 41.66 85.99 73.32 121.64 5.1 5.75 10.38 11.36 15.83 16.81 6.54 6.54 11.65 14.25 15.12 22.63s5.31 17.44 5.31 26.69c0 13.21-3.73 25.85-10.42 36.67-6.68 10.82-16.32 19.81-28.14 25.72l-9.44 4.72v-16-35.68c0-15.15-5.42-29.22-14.56-40.17s-22.02-18.8-36.92-21.51c-22.52-4.09-41.02-20.14-48.26-41.86l-.89-2.67c2.99-7.86 4.63-16.39 4.63-25.3 0-4.48-.42-8.94-1.26-13.31l6.79-4.52c3.27-2.18 5.89-5.1 7.69-8.47 1.8-3.36 2.78-7.16 2.78-11.09 0-5.36-2.17-10.22-5.69-13.73-3.51-3.52-8.37-5.69-13.73-5.69-3.01 0-5.98.7-8.68 2.05l-5.5 2.75z" fill="#656d78"/></g><g><path d="m232.029 302.077 14.4 21.61c7.74 11.59 20.75 18.56 34.69 18.56 11.51 0 21.94-4.66 29.48-12.21 7.55-7.54 12.21-17.97 12.21-29.48v-16.53c4.78-5.85 8.64-12.48 11.37-19.67l.89 2.67c7.24 21.72 25.74 37.77 48.26 41.86 14.9 2.71 27.78 10.56 36.92 21.51s14.56 25.02 14.56 40.17v35.68h-64v80h-144l-12.95-84.15-22.05 17.15-41.63-41.63 4.09-34.76c20.27-19.44 44.16-34.69 70.28-44.9 2.42 1.5 4.92 2.88 7.48 4.11z" fill="#75b1f2"/></g><g><path d="m434.809 422.247v64h-64v-80h64z" fill="#f0d0b4"/></g><g><path d="m150.179 377.617 41.63 41.63-32.09 24.96c-8.37 6.51-18.66 10.04-29.26 10.04-13.16 0-25.07-5.33-33.69-13.96-8.63-8.62-13.96-20.53-13.96-33.69v-.91c0-4.93.76-9.83 2.27-14.52l51.49-160.9 4.07-12.73c3.67-11.49 14.36-19.29 26.42-19.29 3.39 0 6.64.61 9.63 1.72 3.79 1.4 7.19 3.6 9.99 6.41 5.03 5.02 8.13 11.95 8.13 19.62v.76c0 4-.86 7.91-2.49 11.49-1.36 2.99-3.26 5.75-5.64 8.13l-4.44 4.44-19.43 19.43-8.54 72.61z" fill="#f0d0b4"/></g><g><path d="m354.809 201.667c0 3.93-.98 7.73-2.78 11.09-1.8 3.37-4.42 6.29-7.69 8.47l-6.79 4.52c-.19-1.02-.4-2.04-.64-3.05-1.26-5.35-3.14-10.54-5.62-15.48l-10.08-20.17 5.5-2.75c2.7-1.35 5.67-2.05 8.68-2.05 5.36 0 10.22 2.17 13.73 5.69 3.52 3.51 5.69 8.37 5.69 13.73z" fill="#f0d0b4"/></g><g><path d="m322.809 284.027v16.53c0 11.51-4.66 21.94-12.21 29.48-7.54 7.55-17.97 12.21-29.48 12.21-13.94 0-26.95-6.97-34.69-18.56l-14.4-21.61v-.01c10.95 5.32 23.09 8.18 35.59 8.18 19.66 0 37.46-7.97 50.34-20.85 1.71-1.71 3.33-3.5 4.85-5.37z" fill="#f0d0b4"/></g><g><path d="m192.319 238.247c1.63-3.58 2.49-7.49 2.49-11.49v-.76c0-7.67-3.1-14.6-8.13-19.62-2.8-2.81-6.2-5.01-9.99-6.41 11.66-13.87 18.12-31.46 18.12-49.72l18.91 15.13c13.65 10.92 30.61 16.87 48.09 16.87 11.64 0 22.95-2.74 33.09-7.81 5.38-2.69 10.42-6.03 15.02-9.97l11.29 22.58 10.08 20.17c2.48 4.94 4.36 10.13 5.62 15.48.24 1.01.45 2.03.64 3.05.84 4.37 1.26 8.83 1.26 13.31 0 8.91-1.64 17.44-4.63 25.3-2.73 7.19-6.59 13.82-11.37 19.67-1.52 1.87-3.14 3.66-4.85 5.37-12.88 12.88-30.68 20.85-50.34 20.85-12.5 0-24.64-2.86-35.59-8.18-2.56-1.23-5.06-2.61-7.48-4.11-8.51-5.28-16.07-12.14-22.22-20.36l-20.09-26.78 4.44-4.44c2.38-2.38 4.28-5.14 5.64-8.13z" fill="#f0d0b4"/></g></g><g><path d="m291.294 130.448c-7.609 7.608-17.725 11.799-28.485 11.799s-20.876-4.19-28.485-11.799l-9.858-9.858-11.313 11.313 9.858 9.858c10.63 10.631 24.765 16.485 39.799 16.485s29.168-5.854 39.799-16.485l1.858-1.858-11.313-11.313z"/><path d="m468.036 300.16c-31.257-31.256-56.424-67.02-75.079-106.617 14.599 11.765 31.043 21.195 48.694 27.814 10.263 3.849 17.158 13.798 17.158 24.759 0 4.084-.965 8.173-2.792 11.825l-4.364 8.728 14.311 7.156 4.364-8.728c2.932-5.863 4.481-12.427 4.481-18.981 0-17.593-11.067-33.563-27.54-39.741-25.952-9.732-49.048-26.13-66.792-47.423l-3.381-4.057-5.185-13.828c-10.494-27.984-29.026-51.775-53.591-68.799-24.565-17.023-53.348-26.022-83.235-26.022-66.32 0-120.275 53.956-120.275 120.275 0 11.177 1.557 22.294 4.627 33.042l8.751 30.627-50.73 158.533c-1.757 5.489-2.648 11.196-2.648 16.961v.911c0 30.686 24.965 55.65 55.651 55.65 12.312 0 24.446-4.163 34.166-11.723l43.4-33.756 11.92 77.478h222.863v-67.056l5.021-2.51c26.511-13.254 42.979-39.901 42.979-69.542-.001-20.765-8.088-40.29-22.774-54.976zm-313.233 137.735c-6.926 5.387-15.571 8.353-24.344 8.353-21.863 0-39.65-17.787-39.65-39.65v-.911c0-4.107.635-8.173 1.886-12.084l55.56-173.626c2.628-8.211 10.186-13.729 18.807-13.729 10.888 0 19.747 8.858 19.747 19.747v.76c0 5.274-2.054 10.233-5.784 13.963l-25.837 25.836-13.68 116.286c-1.496 12.713-7.304 24.699-16.355 33.75l11.313 11.314c9.266-9.267 15.867-20.939 19.122-33.565l24.157 24.157zm26.57-174.897 14.553 19.404c3.773 5.031 8.05 9.603 12.726 13.676-15.73 7.319-30.453 16.392-44.019 27.142l5.797-49.279zm157.075-59.361-6.43-12.86c1.093-.338 2.231-.531 3.374-.531 6.295 0 11.417 5.122 11.417 11.417 0 4.167-1.663 8.092-4.55 10.972-1.085-3.074-2.353-6.083-3.811-8.998zm-31.41-27.044 17.1 34.2c4.364 8.729 6.671 18.502 6.671 28.261 0 34.845-28.349 63.193-63.193 63.193-23.047 0-45.062-11.008-58.891-29.445l-15.934-21.245c1.593-1.651 3.011-3.427 4.241-5.309h3.889c14.084 0 26.746-7.825 33.044-20.422l-14.311-7.155c-3.311 6.622-9.726 10.911-17.008 11.501.106-1.129.163-2.268.163-3.417v-.76c0-11.656-5.609-22.025-14.269-28.554 6.376-9.599 10.748-20.39 12.842-31.689l7.343 5.875c15.01 12.008 33.863 18.621 53.085 18.621 16.203-.001 31.945-4.889 45.228-13.655zm7.699 126.065c-1.089 17.601-15.746 31.589-33.617 31.589-11.29 0-21.769-5.608-28.031-15.002l-1.666-2.499c5.307.985 10.725 1.501 16.192 1.501 17.639 0 33.945-5.801 47.122-15.589zm-95.14 84.1c-.523-3.397-.788-6.865-.788-10.306v-.316c0-10.468 2.474-20.949 7.155-30.311l-14.311-7.156c-5.786 11.573-8.845 24.528-8.845 37.467v.316c0 4.253.328 8.539.974 12.739l1.458 9.474-12.768 9.931-33.896-33.896 3.294-28.002c18.212-16.994 39.071-30.39 62.091-39.87.834.465 1.676.917 2.524 1.355l13.291 19.937c9.236 13.855 24.692 22.127 41.344 22.127 27.398 0 49.689-22.29 49.689-49.688v-13.839c.943-1.247 1.848-2.522 2.717-3.825 10.29 17.599 27.844 30.131 48.374 33.864 26.022 4.731 44.909 27.361 44.909 53.811v27.678h-64v-44.687c0-5.159 2.009-10.009 5.657-13.656l-11.313-11.314c-6.67 6.67-10.343 15.537-10.343 24.971v44.687c0 8.822 7.178 16 16 16v64h-129.138zm159.212 91.489v-64h48v64zm64-68.999v-38.678c0-16.788-5.897-32.377-15.872-44.629 11.494 5.146 20.266 14.787 24.282 26.836l15.179-5.059c-5.851-17.555-19.143-31.348-36.468-37.844-24.099-9.037-43.71-26.692-55.221-49.714l-4.746-9.491-14.311 7.156 4.746 9.491c6.458 12.916 15.125 24.367 25.513 33.936-.384-.076-.764-.165-1.151-.236-19.653-3.573-35.786-17.564-42.102-36.514l-.035-.105c2.698-7.964 4.184-16.481 4.184-25.345 0-3.164-.198-6.329-.579-9.473l2.546-1.698c8.787-5.858 14.033-15.66 14.033-26.22 0-15.118-12.299-27.417-27.417-27.417-3.617 0-7.236.736-10.575 2.129l-5.064-10.129c2.744-2.732 5.307-5.668 7.655-8.799l1.801-2.402-12.801-9.6-1.801 2.401c-12.397 16.53-32.135 26.398-52.796 26.398-15.603 0-30.906-5.368-43.09-15.115l-31.912-25.53v16.645c0 14.608-4.658 28.842-13.179 40.615-2.13-.397-4.323-.615-6.567-.615-11.935 0-22.74 5.845-29.292 15.242l-2.949-10.32c-2.662-9.318-4.012-18.957-4.012-28.646 0-57.498 46.778-104.275 104.275-104.275 53.94 0 102.906 33.934 121.845 84.439l8.808 23.489c20.032 53.419 50.644 100.959 90.985 141.3 11.663 11.663 18.086 27.17 18.086 43.664.002 22.738-12.198 43.251-31.998 54.113z"/><path d="m159.386 146.953c-2.19 8.76-8.078 16.101-16.155 20.139l7.155 14.311c12.26-6.13 21.198-17.272 24.522-30.569l3.662-14.646-15.522-3.881z"/><path d="m65.619 161.743 35.72-11.907-5.06-15.178-60.28 20.093 15.162 15.162-50.292 12.573 3.881 15.522 77.707-19.427z"/><path d="m71.458 98.896 32.821 10.94 5.06-15.178-63.179-21.06 7.757 23.271-48.299-18.113-5.618 14.982 79.701 29.887z"/><path d="m66.329 43.308 51.483 41.186 9.995-12.494-28.517-22.813 24-8-51.483-41.187-9.995 12.494 28.517 22.814z"/><path d="m258.809 222.247h6.111c14.084 0 26.746-7.825 33.044-20.422l-14.311-7.155c-3.571 7.141-10.749 11.578-18.733 11.578h-6.111z"/><path d="m246.839 277.778-2.687 4.031 13.313 8.875 2.687-4.031c6.849-10.273 18.31-16.406 30.657-16.406v-16c-17.709 0-34.146 8.797-43.97 23.531z"/></g></g></svg>