<?xml version="1.0" encoding="iso-8859-1"?>
<!-- Generator: Adobe Illustrator 19.0.0, SVG Export Plug-In . SVG Version: 6.00 Build 0)  -->
<svg xmlns="http://www.w3.org/2000/svg" xmlns:xlink="http://www.w3.org/1999/xlink" version="1.1" id="Capa_1" x="0px" y="0px" viewBox="0 0 512 512" style="enable-background:new 0 0 512 512;" xml:space="preserve" width="512" height="512">
<g>
	<circle style="fill:#C38C66;" cx="250.608" cy="199.111" r="60.952"/>
	<path style="fill:#B57F5F;" d="M250.608,170.667c-58.349,0-105.651,45.482-105.651,101.587c0,16.063,3.983,31.195,10.886,44.698   l198.255-24.38c1.412-6.56,2.161-13.352,2.161-20.318C356.259,216.149,308.957,170.667,250.608,170.667z"/>
	<path style="fill:#F6D190;" d="M361.584,462.703l-56.049-25.477c-8.704-3.956-14.292-12.635-14.292-22.196v-33.062h-81.27v33.062   c0,9.561-5.588,18.239-14.292,22.196l-56.049,25.477c-11.605,5.275-19.056,16.846-19.056,29.594v3.449   c0,8.977,7.277,16.254,16.254,16.254h227.556c8.977,0,16.254-7.277,16.254-16.254v-3.449   C380.64,479.549,373.189,467.978,361.584,462.703z"/>
	<path style="fill:#ECBD83;" d="M209.973,405.298c10.559,5.015,22.078,8.188,34.198,8.97c2.16,0.139,4.308,0.208,6.437,0.208   c14.512,0,28.246-3.228,40.634-8.859v-23.649h-81.27V405.298z"/>
	<path style="fill:#FFE09F;" d="M226.227,227.556c-8.127,24.381-30.596,38.834-40.331,46.089   c-6.537,4.872-11.403,11.475-14.114,18.927h-2.444c-8.977,0-16.254,7.277-16.254,16.254c0,8.977,7.277,16.254,16.254,16.254h0.786   c4.96,38.544,35.579,70.418,75.095,72.968c47.324,3.055,86.659-34.482,86.659-79.741v-66.371L226.227,227.556z"/>
	<path style="fill:#FFFFFF;" d="M250.608,329.651c-8.754,0-16.911,5.9-24.02,15.986c-2.636,3.74-0.118,8.903,4.457,8.903h39.125   c4.575,0,7.093-5.163,4.457-8.903C267.519,335.551,259.362,329.651,250.608,329.651z"/>
	<path style="fill:#966A5B;" d="M209.981,316.952c-2.984,0.004-5.849-1.643-7.278-4.492c-2.008-4.016-0.381-8.897,3.635-10.905   l1.714-0.857l-1.714-0.857c-4.016-2.008-5.643-6.889-3.635-10.905c2.008-4.02,6.889-5.647,10.905-3.635l16.254,8.127   c2.754,1.377,4.492,4.19,4.492,7.27c0,3.079-1.738,5.893-4.492,7.27l-16.254,8.127   C212.441,316.679,211.203,316.952,209.981,316.952z"/>
	<path style="fill:#966A5B;" d="M291.235,316.952c-1.222,0-2.46-0.274-3.627-0.857l-16.254-8.127   c-2.754-1.377-4.492-4.19-4.492-7.27c0-3.079,1.738-5.893,4.492-7.27l16.254-8.127c4.024-2.012,8.889-0.385,10.905,3.635   c2.008,4.016,0.381,8.897-3.635,10.905l-1.714,0.857l1.714,0.857c4.016,2.008,5.643,6.889,3.635,10.905   C297.084,315.31,294.219,316.952,291.235,316.952z"/>
	<path style="fill:#FFE07D;" d="M242.481,113.778c-4.492,0-8.127-3.639-8.127-8.127c0-11.488,6.071-17.556,10.508-21.988   c3.984-3.976,5.746-5.929,5.746-10.484c0-4.571-1.762-6.528-5.746-10.516c-4.437-4.437-10.508-10.512-10.508-22.012   c0-11.496,6.071-17.571,10.508-22.008c3.984-3.988,5.746-5.944,5.746-10.516c0-4.488,3.635-8.127,8.127-8.127   c4.492,0,8.127,3.639,8.127,8.127c0,11.496-6.071,17.571-10.508,22.008c-3.984,3.988-5.746,5.944-5.746,10.516   c0,4.575,1.762,6.532,5.746,10.52c4.436,4.437,10.508,10.512,10.508,22.008c0,11.484-6.071,17.552-10.508,21.984   c-3.984,3.98-5.746,5.929-5.746,10.488C250.608,110.139,246.973,113.778,242.481,113.778z"/>
	<path style="fill:#FFEAA8;" d="M170.203,141.794c-2.984,0-5.857-1.647-7.278-4.496c-4.96-9.929-2-17.853,0.159-23.643   c1.841-4.913,2.579-7.23,0.849-10.683c-1.73-3.468-4.032-4.274-9.071-5.758c-5.929-1.75-14.048-4.143-19.016-14.083   c-4.968-9.933-2.016-17.865,0.143-23.655c1.841-4.925,2.579-7.246,0.841-10.714c-2.008-4.016-0.381-8.897,3.635-10.905   c4.008-2.004,8.889-0.381,10.905,3.635c4.968,9.937,2.016,17.869-0.151,23.659c-1.833,4.925-2.571,7.246-0.833,10.714   c1.73,3.468,4.032,4.274,9.071,5.758c5.929,1.75,14.048,4.143,19.016,14.079c4.96,9.929,2,17.853-0.159,23.643   c-1.841,4.913-2.579,7.23-0.849,10.69c2.008,4.012,0.381,8.893-3.635,10.901C172.664,141.52,171.425,141.794,170.203,141.794z"/>
	<path style="fill:#FFE07D;" d="M123.695,205.317c-2.087,0-4.206-0.766-5.849-2.238c-6.929-6.23-4.984-14.825-3.825-19.964   c0.246-1.091,0.611-2.706,0.746-3.849c-1.119,0.254-2.69,0.786-3.754,1.147c-5,1.694-13.341,4.516-20.262-1.718   c-6.929-6.23-4.992-14.829-3.833-19.964c0.349-1.552,0.937-4.143,0.77-4.964c-3.341-3-3.421-7.817-0.413-11.155   c3-3.337,8.349-3.27,11.667-0.278c6.929,6.23,4.992,14.829,3.833,19.964c-0.246,1.099-0.611,2.722-0.746,3.865   c1.127-0.25,2.698-0.786,3.762-1.147c5.008-1.69,13.349-4.512,20.262,1.718c6.929,6.23,4.984,14.825,3.825,19.964   c-0.349,1.544-0.937,4.135-0.77,4.952c3.333,3,3.413,7.81,0.413,11.147C127.997,204.496,125.862,205.317,123.695,205.317z"/>
	<path style="fill:#FFEAA8;" d="M316.473,134.524c-1.222,0-2.46-0.274-3.627-0.857c-4.016-2.012-5.643-6.893-3.635-10.905   c4.968-9.929,13.087-12.317,19.016-14.06c5.032-1.48,7.325-2.278,9.056-5.734c1.738-3.468,1-5.79-0.833-10.71   c-2.167-5.79-5.119-13.722-0.151-23.663c4.968-9.937,13.087-12.329,19.016-14.079c5.04-1.484,7.341-2.286,9.071-5.754   c2.016-4.016,6.889-5.643,10.905-3.635c4.016,2.008,5.643,6.889,3.635,10.905c-4.968,9.937-13.087,12.329-19.016,14.075   c-5.04,1.488-7.341,2.29-9.071,5.754c-1.738,3.472-1,5.798,0.841,10.718c2.159,5.79,5.111,13.722,0.143,23.659   c-4.968,9.929-13.087,12.317-19.016,14.06c-5.032,1.48-7.325,2.278-9.056,5.734C322.322,132.881,319.457,134.524,316.473,134.524z"/>
	<path style="fill:#FFE07D;" d="M386.791,194.738c-3.857,0-7.476-1.23-10.135-2.135c-1.5-0.508-4.056-1.246-4.849-1.29   c-3.341,3.004-8.135,2.575-11.135-0.762c-3-3.337-2.381-8.635,0.952-11.635c6.936-6.23,15.278-3.397,20.254-1.706   c1.063,0.361,2.627,0.893,3.754,1.147c-0.135-1.143-0.5-2.762-0.746-3.857c-1.159-5.135-3.095-13.734,3.833-19.968   c6.921-6.238,15.27-3.413,20.254-1.714c1.508,0.504,3.905,1.361,4.857,1.282c3.349-3.004,8.127-2.567,11.135,0.758   c3,3.337,2.389,8.631-0.944,11.635c-6.921,6.234-15.278,3.409-20.262,1.718c-1.064-0.361-2.635-0.897-3.762-1.147   c0.135,1.143,0.5,2.766,0.746,3.865c1.159,5.135,3.095,13.734-3.833,19.968C393.687,193.802,390.148,194.738,386.791,194.738z"/>
	<path style="fill:#F6D190;" d="M193.719,316.952c0,0-0.254-13.852-0.254-19.302c0-3.683-0.224-9.095,4.95-13.027   c9.625-7.314,26.461-19.212,37.147-38.233l-9.335-18.835c-6.384,19.153-21.549,32.105-32.508,40.328   c-2.992,2.245-5.736,4.205-7.823,5.761c-6.537,4.872-11.403,11.475-14.114,18.927h-2.444c-8.977,0-16.254,7.277-16.254,16.254   c0,8.977,7.277,16.254,16.254,16.254h0.786c4.96,38.544,35.579,70.418,75.095,72.968c6.104,0.394,12.246,0.097,18.017-0.789   C224.024,391.473,193.719,357.771,193.719,316.952z"/>
	<path style="fill:#785353;" d="M226.219,308.825c-1.222,0-2.46-0.274-3.627-0.857l-16.254-8.127   c-4.016-2.008-5.643-6.889-3.635-10.905c2.008-4.02,6.889-5.647,10.905-3.635l16.254,8.127c4.016,2.008,5.643,6.889,3.635,10.905   C232.068,307.183,229.203,308.825,226.219,308.825z"/>
	<path style="fill:#785353;" d="M274.994,308.825c1.222,0,2.46-0.274,3.627-0.857l16.254-8.127   c4.016-2.008,5.643-6.889,3.635-10.905c-2.008-4.02-6.889-5.647-10.905-3.635l-16.254,8.127c-4.016,2.008-5.643,6.889-3.635,10.905   C269.145,307.183,272.01,308.825,274.994,308.825z"/>
	<path style="fill:#C38C66;" d="M250.608,170.667c-40.213,0-75.18,21.61-93.032,53.404   c113.138,27.467,169.986,82.379,190.038,106.016c2.964,3.494,8.644,1.343,8.644-3.24v-54.593   C356.259,216.149,308.957,170.667,250.608,170.667z"/>
	<path style="fill:#D19A6E;" d="M250.608,170.667c-21.221,0-41.009,6.036-57.561,16.392   c91.486,44.822,140.282,99.722,163.212,132.811v-47.616C356.259,216.149,308.957,170.667,250.608,170.667z"/>
	<path style="fill:#CCF49F;" d="M361.584,462.703l-29.543-13.429c-19.379,23.42-48.661,38.345-81.433,38.345   s-62.054-14.925-81.433-38.345l-29.543,13.429c-11.605,5.275-19.056,16.846-19.056,29.594v3.449   c0,8.977,7.277,16.254,16.254,16.254h227.556c8.977,0,16.254-7.277,16.254-16.254v-3.449   C380.64,479.549,373.189,467.978,361.584,462.703z"/>
</g>















</svg>
