<svg id="Capa_1" enable-background="new 0 0 512.001 512.001" height="512" viewBox="0 0 512.001 512.001" width="512" xmlns="http://www.w3.org/2000/svg"><g><g><g><g><path d="m321.481 228.185c-4.142 0-7.5-3.358-7.5-7.5v-15.012c0-4.142 3.358-7.5 7.5-7.5s7.5 3.358 7.5 7.5v15.012c0 4.142-3.358 7.5-7.5 7.5z"/></g><g><path d="m190.521 228.185c-4.142 0-7.5-3.358-7.5-7.5v-14.33c0-4.142 3.358-7.5 7.5-7.5s7.5 3.358 7.5 7.5v14.33c0 4.142-3.358 7.5-7.5 7.5z"/></g></g><path d="m384.64 504.5h-140.814l-38.741-31.653-44.12 31.653h-56.671l23.067-120.412h257.279z" fill="#fe7ab6"/><g><path d="m354.61 384.088h30.03v120.412h-30.03z" fill="#fe5ca7"/></g><g fill="#ae6c6c"><path d="m335.76 332.359h-159.519c-54.239 0-97.153-45.902-93.509-100.018l8.264-122.694c3.872-57.492 51.636-102.147 109.258-102.147h111.493c57.622 0 105.386 44.655 109.258 102.147l8.264 122.694c3.645 54.116-39.269 100.018-93.509 100.018z"/><path d="m335.76 332.359h-159.519c-54.239 0-97.153-45.902-93.509-100.018l8.264-122.694c3.872-57.492 51.636-102.147 109.258-102.147h111.493c57.622 0 105.386 44.655 109.258 102.147l8.264 122.694c3.645 54.116-39.269 100.018-93.509 100.018z"/><path d="m335.76 332.359h-159.519c-54.239 0-97.153-45.902-93.509-100.018l8.264-122.694c3.872-57.492 51.636-102.147 109.258-102.147h111.493c57.622 0 105.386 44.655 109.258 102.147l8.264 122.694c3.645 54.116-39.269 100.018-93.509 100.018z"/></g><path d="m429.269 232.341-8.264-122.694c-3.872-57.492-51.636-102.147-109.258-102.147h-30.081c57.622 0 105.386 44.655 109.258 102.147l8.264 122.694c3.645 54.117-39.269 100.018-93.508 100.018h30.081c54.239 0 97.153-45.902 93.508-100.018z" fill="#9b5e5e"/><path d="m24.29 504.5h103.071v-120.412h-37.464c-25.498 0-47.331 18.273-51.822 43.373z" fill="#fe5ca7"/><path d="m384.64 504.5h103.071l-13.784-77.039c-4.491-25.1-26.324-43.373-51.822-43.373h-37.465z" fill="#fe7ab6"/><path d="m473.927 427.461c-4.491-25.1-26.324-43.373-51.822-43.373h-37.465v.03c24.922.625 46.077 18.683 50.49 43.343l13.784 77.039h38.797z" fill="#fe5ca7"/><path d="m144.108 94.45v171.443c0 36.707 29.757 66.464 66.464 66.464v51.731l45.429 35.696 45.429-35.696v-51.731c36.707 0 66.464-29.757 66.464-66.464v-171.443z" fill="#fed2a4"/><path d="m337.891 94.45v171.443c0 33.43-24.68 61.081-56.814 65.752-5.51.801-9.65 5.425-9.65 10.993v33.438c0 5.058-2.322 9.836-6.299 12.961l-24.128 18.959 15.001 11.787 45.429-35.696v-51.731c36.707 0 66.464-29.757 66.464-66.464v-171.442z" fill="#ffbd86"/><path d="m256.001 94.45s-29.25 87.132-111.893 87.132l-8.32-100.354z" fill="#ae6c6c"/><path d="m256.001 94.45s29.25 87.132 111.893 87.132l8.32-94.484z" fill="#ae6c6c"/><path d="m256.001 419.784 45.429-35.696h26.738s-14.035 63.535-44.465 63.552c-27.702.016-27.702-27.856-27.702-27.856z" fill="#fcc8e2"/><path d="m256.001 233.071c-17.805 0-32.239 14.434-32.239 32.239v1.896h64.477v-1.896c0-17.806-14.433-32.239-32.238-32.239z" fill="#f2fbff"/><path d="m256.001 419.784-45.429-35.696h-26.738s14.035 63.535 44.465 63.552c27.702.016 27.702-27.856 27.702-27.856z" fill="#ffdbeb"/><g><path d="m256.001 275.55v60.627c0 12.702-4.29 25.031-12.175 34.989v133.334h-82.861l17.996-150.16-6.82-35.42c-1.15-5.97.68-12.12 4.9-16.49l20.16-20.89 3.03-28.146c.518-4.809 4.577-8.454 9.413-8.454h15.747c16.905 0 30.61 13.705 30.61 30.61z" fill="#ffbd86"/></g><path d="m225.391 244.94h-15.747c-1.827 0-3.542.522-4.999 1.428 12.38 3.924 21.353 15.503 21.353 29.182v60.627c0 12.702-4.29 25.031-12.175 34.989v133.334h30.002v-133.334c7.885-9.958 12.175-22.287 12.175-34.989v-60.627c.001-16.905-13.704-30.61-30.609-30.61z" fill="#f6a96c"/><path d="m410.856 65.78c0 15.884-12.877 28.761-28.761 28.761s-28.761-12.877-28.761-28.761c0-11.791 15.848-40.415 24.016-54.384 2.124-3.632 7.366-3.632 9.49 0 8.168 13.968 24.016 42.592 24.016 54.384z" fill="#c8effe"/></g><g><path d="m321.481 228.185c4.142 0 7.5-3.358 7.5-7.5v-15.012c0-4.142-3.358-7.5-7.5-7.5s-7.5 3.358-7.5 7.5v15.012c0 4.142 3.358 7.5 7.5 7.5z"/><path d="m190.521 198.854c-4.142 0-7.5 3.358-7.5 7.5v14.33c0 4.142 3.358 7.5 7.5 7.5s7.5-3.358 7.5-7.5v-14.33c0-4.142-3.358-7.5-7.5-7.5z"/><path d="m127.361 436.308c-4.142 0-7.5 3.358-7.5 7.5v60.692c0 4.142 3.358 7.5 7.5 7.5s7.5-3.358 7.5-7.5v-60.692c0-4.142-3.358-7.5-7.5-7.5z"/><path d="m495.094 503.179-13.785-77.04c-5.137-28.712-30.037-49.552-59.205-49.552h-113.173v-36.727h26.83c28.33 0 54.587-11.396 73.935-32.089 19.351-20.696 28.96-47.663 27.058-75.936l-8.27-122.693-.06-.84c-.304-4.131-3.895-7.225-8.03-6.93-4.131.304-7.234 3.899-6.93 8.03l8.324 123.441c1.62 24.083-6.566 47.054-23.049 64.683-13.885 14.851-31.948 24.079-51.725 26.617 2.338-1.837 4.587-3.817 6.723-5.952 13.964-13.976 21.654-32.55 21.654-52.301v-133.61c0-4.142-3.358-7.5-7.5-7.5s-7.5 3.358-7.5 7.5v41.533c-28.545-1.993-53.18-15.469-73.31-40.152-16.673-20.444-23.868-41.298-23.972-41.604-1.807-6.018-11.605-7.418-14.218.008-.069.205-7.074 20.737-23.673 41.232-20.181 24.916-44.916 38.515-73.607 40.517v-41.534c0-4.142-3.358-7.5-7.5-7.5s-7.5 3.358-7.5 7.5v133.61c0 22.761 10.528 44.239 28.342 58.221-20.004-2.579-38.254-11.982-52.159-27.091-16.165-17.564-24.184-40.355-22.58-64.176l8.27-122.69c1.744-25.901 13.146-49.93 32.108-67.659 18.962-17.731 43.7-27.495 69.659-27.495h111.5c16.938 0 33.484 4.18 48.265 12.136-9.42 18.031-14.182 30.991-14.182 38.644 0 19.995 16.267 36.261 36.262 36.261s36.261-16.267 36.261-36.261c0-10.181-8.425-29.752-25.042-58.169-2.357-4.032-6.551-6.439-11.22-6.439-4.668 0-8.862 2.407-11.219 6.438-1.275 2.181-2.485 4.291-3.664 6.367-16.984-9.162-35.999-13.977-55.461-13.977h-111.5c-29.776 0-58.153 11.201-79.904 31.538-21.75 20.337-34.829 47.898-36.829 77.607l-8.27 122.69c-1.883 27.965 7.531 54.722 26.508 75.342 17.586 19.109 41.091 30.463 66.72 32.378l2.898 15.054-2.634 21.981-78.844-.002c-29.168 0-54.068 20.84-59.205 49.552l-13.785 77.04c-.729 4.077 1.984 7.974 6.062 8.704.447.08.891.119 1.33.119 3.563 0 6.724-2.55 7.374-6.181l13.785-77.04c3.856-21.552 22.545-37.194 44.439-37.194h29.964v17.141c0 4.142 3.358 7.5 7.5 7.5s7.5-3.358 7.5-7.5v-17.139h32.082l-13.425 112.018c-.493 4.113 2.441 7.846 6.554 8.339.303.036.604.054.902.054 3.744 0 6.981-2.799 7.438-6.608l17.996-150.16c.092-.77.064-1.549-.082-2.311l-6.82-35.421c-.687-3.563.409-7.25 2.932-9.863l5.153-5.34-.857 8.592c-.411 4.122 2.597 7.796 6.719 8.207.253.025.504.038.753.038 3.807 0 7.068-2.888 7.454-6.756l2.99-29.994c.002-.014.006-.027.008-.041l3.03-28.146c.108-1.001.949-1.757 1.956-1.757h15.747c12.743 0 23.11 10.367 23.11 23.11v60.627c0 10.965-3.749 21.737-10.555 30.333-1.049 1.325-1.62 2.966-1.62 4.656v133.333c0 4.142 3.358 7.5 7.5 7.5s7.5-3.358 7.5-7.5v-57.14c1.818-1.558 3.372-3.254 4.688-5.021 5.594 7.717 16.099 12.86 27.693 12.801 15.805-.009 29.416-12.17 40.452-36.146 4.884-10.61 8.12-21.109 9.843-27.403h43.139v112.909c0 4.142 3.358 7.5 7.5 7.5s0 0 0 0c4.142 0 7.5-3.358 7.5-7.5v-112.913h29.964c21.894 0 40.583 15.642 44.439 37.194l13.785 77.04c.65 3.631 3.811 6.181 7.374 6.181.438 0 .883-.039 1.33-.119 4.078-.73 6.792-4.627 6.062-8.704zm-112.999-485.019c15.634 27.122 21.261 42.356 21.261 47.62 0 11.724-9.538 21.261-21.261 21.261s-21.262-9.538-21.262-21.261c-1.4-3.178 11.519-31.819 21.262-47.62zm-189.321 234.431-2.754 25.59-18.374 19.038c-2.21 2.289-3.952 4.93-5.184 7.777-9.452-10.682-14.851-24.563-14.851-39.106v-77.05c33.067-2.073 62.42-17.9 85.263-46.103 8.634-10.66 14.891-21.275 19.127-29.612 4.236 8.337 10.493 18.951 19.127 29.611 22.843 28.204 52.196 44.031 85.263 46.104v77.051c0 15.747-6.132 30.556-17.263 41.697-11.139 11.139-25.947 17.273-41.697 17.273-4.142 0-7.5 3.358-7.5 7.5v48.081l-37.931 29.8-4.674-3.672v-32.887c7.869-10.857 12.175-24.071 12.175-37.507v-60.626c0-.282-.015-.56-.021-.84h24.762c4.142 0 7.5-3.358 7.5-7.5v-1.9c0-21.913-17.828-39.74-39.74-39.74-10.815 0-20.945 4.307-28.393 11.94-.734-.042-17.964-.069-17.964-.069-8.689-.001-15.942 6.513-16.871 15.15zm52.455-9.567c3.306-1.599 6.971-2.454 10.772-2.454 11.717 0 21.557 8.186 24.101 19.14h-20.063c-3.177-6.922-8.36-12.737-14.81-16.686zm38.469 197.116c-10.864.112-18.105-6.274-19.825-17.003l40.152-31.547h14.398c-5.561 18.517-18.061 48.54-34.725 48.55z"/><path d="m335.88 126.464c-13.285 4.92-20.979-2.923-21.815-3.837-2.713-2.421-6.803-2.447-9.548-.061l-.414.36c-3.346 2.908-3.317 8.121.076 10.973 5.371 4.516 12.843 9.209 23.254 9.209 4.171 0 8.816-.754 13.885-2.663 4.463-1.681 6.384-7.159 3.474-11.378-1.959-2.842-5.675-3.802-8.912-2.603z"/><path d="m199.999 121.827c-6.304 4.406-13.385 8.59-24.03 4.58-4.143-1.56-8.801.786-9.922 5.206-.946 3.728 1.253 7.579 4.86 8.916 4.983 1.848 9.551 2.579 13.661 2.579 10.489 0 17.995-4.764 24.032-9.246 3.79-2.814 4.041-8.392.498-11.51-2.553-2.247-6.312-2.473-9.099-.525z"/></g></g></svg>