<svg height="512" viewBox="0 0 52 58" width="512" xmlns="http://www.w3.org/2000/svg"><g id="Page-1" fill="none" fill-rule="evenodd"><g id="003---Cramps" fill-rule="nonzero"><path id="Shape" d="m49.244 29c-2.458-6.146-6.5-10.8-7.244-16-.4824522-3.94184251.0085367-7.94185698 1.43-11.65.1185459-.30760039.0767115-.65397933-.111659-.92451151-.1883706-.27053218-.4987181-.42994637-.828341-.42548849h-32.98c-.3296229-.00445788-.63997044.15495631-.82834099.42548849-.18837056.27053218-.2302049.61691112-.11165901.92451151 1.42146326 3.70814302 1.9124522 7.70815749 1.43 11.65-.767 5.324-4.987 10.083-7.422 16.457l23.422 9.543z" fill="#fdd7ad"/><path id="Shape" d="m22.188 32.244c-.5215986-1.6164619.0331715-3.3861327 1.3842185-4.4155433 1.3510471-1.0294105 3.2044897-1.0946421 4.6245641-.1627606 1.4200743.9318814 2.097884 2.6581719 1.6912174 4.3073039z" fill="#e64c3c"/><path id="Shape" d="m31.657 26.343c-.2653486.0007185-.5199469-.1047939-.707-.293-1.3127752-1.3129091-3.0933608-2.0505051-4.95-2.0505051s-3.6372248.737596-4.95 2.0505051c-.3923789.3789722-1.0160848.3735524-1.4018186-.0121814s-.3911536-1.0094397-.0121814-1.4018186c1.6878306-1.6878512 3.9770325-2.6360779 6.364-2.6360779s4.6761694.9482267 6.364 2.6360779c.2859079.2859943.3714219.7160366.216678 1.0896546-.1547439.3736179-.5192821.6172591-.923678.6173454z" fill="#c03a2b"/><path id="Shape" d="m34.485 23.515c-.2651948-.0000566-.5195073-.1054506-.707-.293-4.2989198-4.2878198-11.2570802-4.2878198-15.556 0-.3923789.3789722-1.0160848.3735524-1.4018186-.0121814s-.3911536-1.0094397-.0121814-1.4018186c5.0796931-5.0691318 13.3043069-5.0691318 18.384 0 .2859079.2859943.3714219.7160366.216678 1.0896546-.1547439.3736179-.5192821.6172591-.923678.6173454z" fill="#c03a2b"/><path id="Shape" d="m19 17c-.2163702 0-.4269038-.0701779-.6-.2l-4-3c-.2977259-.2231651-.4469308-.5931765-.3872941-.960446.0596366-.3672694.3182524-.6710595.6712941-.788554l1.465-.488-1.856-1.856c-.3789722-.39237889-.3735524-1.01608478.0121814-1.40181858.3857338-.38573379 1.0094397-.39115363 1.4018186-.01218142l3 3c.245167.2450788.3459191.5996472.2662601.9370267-.0796591.3373795-.3283645.609437-.6572601.7189733l-1.189.4 2.473 1.851c.3443443.2582582.4847973.7078856.3486833 1.1162278-.136114.4083421-.5182529.6837722-.9486833.6837722z" fill="#f0c419"/><path id="Shape" d="m21.008 46.987c2.377 1.481 2.867 7.526 2.962 9.973.0126332.2725464-.0873187.5383038-.2764258.7349752-.1891072.1966714-.450742.3069644-.7235742.3050248h-21.04c-.52606419.0012903-.96317698-.4052246-1-.93-.50703788-7.0150837-.48363802-14.0584402.07-21.07.22301253-2.24312.76166369-4.44351 1.6-6.536z" fill="#fdd7ad"/><path id="Shape" d="m49.21 29c.9488983 2.2288204 1.5524978 4.5892654 1.79 7 .553638 7.0115598.5770379 14.0549163.07 21.07-.036823.5247754-.4739358.9312903-1 .93h-21.04c-.2728322.0019396-.534467-.1083534-.7235742-.3050248-.1891071-.1966714-.289059-.4624288-.2764258-.7349752.1-2.465.592-8.58 3.014-10z" fill="#fdd7ad"/><path id="Shape" d="m26 31c7.6090564-.1315284 14.9813284-2.6675956 21.061-7.245.2373047-.177294.5410005-.2402557.8292299-.1719147.2882294.0683411.5313275.2609512.6637701.5259147l2.288 4.574c.1027176.2078392.1323135.4442538.084.671-1.026 4.746-3.026 6.718-6.926 9.646-4 3-12 7-14 9-1.0377386 1.1415404-2.4641245 1.8547334-4 2-1.5358755-.1452666-2.9622614-.8584596-4-2-2-2-10-6-14-9-3.9-2.928-5.9-4.9-6.926-9.646-.04831352-.2267462-.01871764-.4631608.084-.671l2.288-4.574c.13244261-.2649635.37554065-.4575736.66377006-.5259147.28822941-.068341.59192521-.0053793.82922994.1719147 6.0796716 4.5774044 13.4519436 7.1134716 21.061 7.245z" fill="#ecf0f1"/><path id="Shape" d="m33 17c-.4304304 0-.8125693-.2754301-.9486833-.6837722-.136114-.4083422.004339-.8579696.3486833-1.1162278l2.473-1.855-1.189-.4c-.3288956-.1095363-.577601-.3815938-.6572601-.7189733-.079659-.3373795.0210931-.6919479.2662601-.9370267l3-3c.3923789-.37897221 1.0160848-.37355237 1.4018186.01218142.3857338.3857338.3911536 1.00943969.0121814 1.40181858l-1.856 1.856 1.465.488c.3549582.1165914.6153176.4213315.6750674.7901388.0597497.3688074-.0910768.7401629-.3910674.9628612l-4 3c-.1730962.1298221-.3836298.2-.6.2z" fill="#f0c419"/><path id="Shape" d="m49.48 25.96c-6.59 7.34-18.87 9.04-23.48 9.04s-16.89-1.7-23.48-9.04l.93-1.85c.13011974-.2666124.37315755-.4606424.66196695-.5284835.28880941-.0678412.59281754-.0023119.82803305.1784835 6.0809527 4.5736428 13.4521949 7.1077261 21.06 7.24 7.6078051-.1322739 14.9790473-2.6663572 21.06-7.24.2352155-.1807954.5392236-.2463247.828033-.1784835.2888095.0678411.5318473.2618711.661967.5284835z" fill="#d1d4d1"/></g></g></svg>