<svg id="Capa_1" enable-background="new 0 0 512.478 512.478" height="512" viewBox="0 0 512.478 512.478" width="512" xmlns="http://www.w3.org/2000/svg"><g><g><g><path d="m335.732 400.288c-47.192 14.258-100.351-6.805-129.117-45.741-6.638-8.985-4.61-18.974-8.277-29.648-.251-.732-6.49-4.237-7.264-4.237l-9.136-1.946c-11.719 0-10.261-4.407-10.563-16.122-.318-12.337-.312-17.512 11.953-17.512l-.477-5.078c.949 0 9.298 1.576 9.372.631.882-11.221-3.952-23.904.219-33.624 29.644-69.079 131.723-105.31 155.34-180.363 3.996-12.699 5.15-23.536 5.561-29.657v-20.353c0-5.047 4.091-9.138 9.138-9.138h133.136c5.047 0 9.138 4.091 9.138 9.138v478.724c0 5.047-4.091 9.138-9.138 9.138h-106.5c-5.047 0-9.138-4.091-9.138-9.138v-121.224s-25.346 20.439-44.247 26.15z" fill="#f1b0a2"/><g><path d="m495.617 7.5h-30c5.047 0 9.138 4.091 9.138 9.138v478.724c0 5.047-4.091 9.138-9.138 9.138h30c5.047 0 9.138-4.091 9.138-9.138v-478.724c0-5.047-4.091-9.138-9.138-9.138z" fill="#eb9c8d"/></g><path d="m160.998 302.442c-.318-12.337 9.588-22.437 21.853-22.437.949 0 1.726-.735 1.8-1.681.882-11.221 3.626-21.589 7.798-31.31 7.565 6.04 16.847 15.615 22.577 29.613 9.403 22.971 9.281 57.983-9.503 76.403-6.13-8.583-11.089-18-14.552-28.078-.251-.732-.933-1.227-1.706-1.227h-5.921c-11.72 0-22.044-9.568-22.346-21.283z" fill="#695d69"/></g><g><g><path d="m18.813 385.888c-22.503 37.812-9.583 86.867 28.968 108.592 36.789 20.732 83.991 8.262 105.778-27.912 18.534-30.773 13.484-69.097-9.82-94.072-.763-.818-1.183-1.896-1.138-3.013l1.334-33.16c.132-3.291-3.439-5.417-6.269-3.731l-28.506 16.985c-.963.574-2.114.719-3.198.438-32.936-8.534-68.873 5.163-87.149 35.873z" fill="#fd4755"/></g><g><path d="m143.739 372.497c-.763-.818-1.182-1.896-1.138-3.013l1.334-33.16c.132-3.291-3.439-5.417-6.269-3.731l-24.16 14.396-.905 22.495c-.045 1.117.375 2.195 1.138 3.013 23.304 24.976 28.354 63.299 9.82 94.072-11.878 19.721-31.314 32.376-52.495 36.468 31.546 6.146 65.11-7.604 82.495-36.468 18.534-30.774 13.484-69.097-9.82-94.072z" fill="#fb2b3a"/></g></g></g><path d="m105.148 380.285c-3.351-2.434-8.042-1.693-10.476 1.658l-26.881 36.988c-1.983 2.73-2.389 6.219-1.084 9.331 1.304 3.113 4.075 5.271 7.417 5.771l13.284 1.987-21.627 29.76c-2.435 3.351-1.693 8.041 1.658 10.477 1.332.967 2.874 1.434 4.403 1.434 2.319-.001 4.606-1.072 6.073-3.092l26.881-36.988c1.983-2.73 2.389-6.219 1.084-9.331-1.304-3.113-4.075-5.271-7.417-5.771l-13.284-1.987 21.627-29.76c2.435-3.351 1.693-8.041-1.658-10.477zm32.132-111.757c1.994 6.382 8.5 5.203 9.395 4.923 3.954-1.235 6.158-5.441 4.922-9.396l-6.737-21.567c-1.234-3.953-5.438-6.156-9.395-4.923-3.954 1.235-6.158 5.441-4.922 9.396zm-32.821 46.927c.742 0 1.497-.111 2.243-.345l20.711-6.484c3.953-1.237 6.154-5.445 4.917-9.398s-5.446-6.152-9.398-4.916l-20.711 6.484c-3.953 1.237-6.154 5.445-4.917 9.398 1.003 3.207 3.962 5.261 7.155 5.261zm-1.913-39.887 21.445 11.232c1.111.582 2.301.858 3.474.858 2.701 0 5.31-1.464 6.65-4.022 1.922-3.669.505-8.201-3.164-10.123l-21.445-11.232c-3.671-1.923-8.203-.506-10.124 3.164-1.922 3.669-.505 8.201 3.164 10.123zm48.883 61.058c.173-4.275-2.004-8.291-5.681-10.479-3.678-2.189-8.246-2.188-11.92.003l-27.312 16.274c-36.386-8.807-74.941 7.354-94.147 39.628-11.95 20.077-15.217 43.568-9.201 66.147 6.014 22.573 20.55 41.33 40.93 52.815 51.449 28.995 99.214-2.899 115.885-30.577 19.488-32.354 15.401-74.111-9.832-102.046zm-4.295 126.073c-19.628 32.588-62.547 43.916-95.671 25.247-16.831-9.485-28.834-24.973-33.8-43.608-4.967-18.643-2.27-38.039 7.595-54.614 16.053-26.97 48.468-40.315 78.822-32.447 3.058.793 6.226.348 8.919-1.255l23.193-13.82-1.084 26.978c-.127 3.127.991 6.123 3.147 8.434 21.515 23.056 25.165 58.044 8.879 85.085zm348.483-462.699h-133.136c-9.174 0-16.638 7.464-16.638 16.638v20.098c-.653 9.434-2.407 18.739-5.215 27.662-11.809 37.526-45.688 65.951-78.451 93.44-63.001 52.86-80.163 80.152-84.519 115.12-5.995 1.061-11.49 3.958-15.835 8.416-5.573 5.719-8.529 13.27-8.323 21.262.407 15.764 13.794 28.589 29.842 28.589h1.932c3.504 9.096 15.607 37.045 47.711 58.562 1.282.859 2.732 1.271 4.168 1.271 2.417 0 4.791-1.167 6.237-3.326 2.306-3.441 1.385-8.1-2.056-10.405-10.054-6.737-18.868-14.866-26.124-23.949 16.781-21.534 16.393-56.044 6.755-79.591-4.454-10.882-11.287-20.541-20.339-28.788 14.084-28.571 41.547-51.636 70.191-75.669 34.412-28.872 69.995-58.728 83.118-100.43 3.189-10.135 5.171-20.701 5.89-31.405.011-.168.017-.335.017-.503v-20.354c0-.903.735-1.638 1.638-1.638h133.136c.903 0 1.638.734 1.638 1.638v80.182c0 4.143 3.358 7.5 7.5 7.5s7.5-3.357 7.5-7.5v-80.182c.001-9.174-7.463-16.638-16.637-16.638zm-287.533 279.468c9.18 22.426 6.375 46.101-1.997 60.544-3.244-5.615-5.952-11.467-8.023-17.495-1.292-3.764-4.828-6.292-8.8-6.292h-5.921c-7.853 0-14.652-6.4-14.847-13.976-.101-3.913 1.345-7.609 4.07-10.405 2.727-2.798 6.379-4.339 10.285-4.339 4.821 0 8.896-3.773 9.277-8.593.514-6.54 1.731-12.77 3.519-18.755 5.372 5.77 9.541 12.234 12.437 19.311zm296.671-155.149c-4.142 0-7.5 3.357-7.5 7.5v363.543c0 .903-.735 1.638-1.638 1.638h-106.5c-.903 0-1.638-.734-1.638-1.638v-118.121c25.084-25.701 33.043-56.281 33.376-57.599 1.015-4.016-1.417-8.094-5.434-9.109-4.015-1.013-8.094 1.417-9.109 5.434-10.972 43.413-49.849 70.226-72.749 77.143-19.76 5.969-41.365 5.514-62.478-1.322-3.942-1.274-8.17.884-9.445 4.826-1.276 3.94.885 8.169 4.825 9.445 24.034 7.779 48.736 8.267 71.436 1.41 11.606-3.507 25.073-11.86 34.577-18.45v106.345c0 9.174 7.464 16.638 16.638 16.638h106.5c9.174 0 16.638-7.464 16.638-16.638v-363.545c.001-4.142-3.357-7.5-7.499-7.5z"/></g></svg>