<svg id="Capa_1" enable-background="new 0 0 511.135 511.135" height="512" viewBox="0 0 511.135 511.135" width="512" xmlns="http://www.w3.org/2000/svg"><g><g><path d="m63.526 428.565-3.947-249.616s23.838-33.938 23.838-46.354v-29.733c0-21.43-18.652-38.802-37.959-38.802s-37.958 17.373-37.958 38.802v29.733c0 12.416 23.838 46.354 23.838 46.354l-3.947 249.616c-.243 10.148 7.916 18.506 18.067 18.506 10.152 0 18.312-8.358 18.068-18.506z" fill="#ecf4ff"/><path d="m83.418 102.862c0-21.43-18.652-38.802-37.959-38.802-2.636 0-5.257.334-7.823.948 16.227 3.882 30.136 19.35 30.136 37.854v29.733c0 12.416-23.838 46.354-23.838 46.354l3.947 249.616c.176 7.34-4.054 13.724-10.244 16.706 2.368 1.141 5.014 1.8 7.823 1.8 10.151 0 18.311-8.358 18.067-18.506l-3.947-249.616s23.838-33.938 23.838-46.354z" fill="#ddeafb"/><g><path d="m93.307 63.386c-5.462 0-9.889 4.428-9.889 9.889v82.946c0 12.925 24.838 23.403 24.838 23.403l-3.947 249.616c-.243 10.148 7.916 18.506 18.067 18.506 10.151 0 18.311-8.358 18.067-18.506l-3.947-249.616s24.838-10.478 24.838-23.403v-82.946c0-5.462-4.428-9.889-9.889-9.889z" fill="#ecf4ff"/></g><path d="m151.446 63.386h-15.646c5.461 0 9.889 4.428 9.889 9.889v82.946c0 12.925-24.838 23.403-24.838 23.403l3.947 249.616c.176 7.34-4.055 13.724-10.244 16.706 2.368 1.141 5.014 1.8 7.823 1.8 10.151 0 18.311-8.358 18.067-18.506l-3.947-249.616s24.838-10.478 24.838-23.403v-82.946c0-5.462-4.427-9.889-9.889-9.889z" fill="#ddeafb"/><circle cx="340.113" cy="255.566" fill="#ecf4ff" r="163.522"/><g fill="#ddeafb"><path d="m327.47 228.432c0-35.923-29.121-65.044-65.044-65.044-35.922 0-65.043 29.121-65.043 65.044v51.358c0 20.748 20.617 35.189 40.116 28.098l24.928-9.065 24.928 9.065c19.499 7.091 40.116-7.35 40.116-28.098v-51.358z"/><path d="m340.113 92.044c-3.671 0-7.311.133-10.921.372 85.217 5.621 152.6 76.511 152.6 163.15s-67.383 157.529-152.6 163.15c3.611.238 7.25.372 10.921.372 90.311 0 163.521-73.211 163.521-163.522s-73.211-163.522-163.521-163.522z"/><path d="m350.99 363.626c-3.58.36-7.21.54-10.88.54-40.27 0-75.42-21.92-94.17-54.47-5.52-9.59-9.62-20.09-12-31.23-1.6-7.38-2.43-15.04-2.43-22.9 0-19.18 4.97-37.19 13.7-52.83 8.95-16.06 21.86-29.6 37.41-39.31 16.67-10.43 36.38-16.46 57.49-16.46 7.99 0 15.77.86 23.27 2.51 43.75 9.54 77.65 45.46 84.19 90.26.76 5.17 1.15 10.45 1.15 15.83 0 8.26-.92 16.3-2.68 24.04v.01c-7.47 33.06-30.02 60.4-60.05 74.4z"/></g><path d="m447.57 239.736c-6.54-44.8-40.44-80.72-84.19-90.26-7.5-1.65-15.28-2.51-23.27-2.51-4.27 0-8.478.259-12.62.739 130.423 14.544 133.177 196.666 1.699 215.915 3.592.359 7.235.547 10.921.547 3.67 0 7.3-.18 10.88-.54l35-9.61c30.03-14 52.58-41.34 60.05-74.4v-.01c1.76-7.74 2.68-15.78 2.68-24.04 0-5.381-.39-10.661-1.15-15.831z" fill="#cbe2ff"/><g><path d="m305.354 307.888-24.928-9.065-24.928 9.065c-19.499 7.091-40.116-7.35-40.116-28.098v-22.358c0-35.923 29.121-65.044 65.044-65.044 35.923 0 65.044 29.121 65.044 65.044v22.358c0 20.748-20.617 35.189-40.116 28.098z" fill="#7a6d79"/><path d="m280.426 192.388c-3.257 0-6.455.246-9.583.708 31.378 4.634 55.461 31.669 55.461 64.335v22.358c0 13.532-8.772 24.376-20.282 28.318 19.299 6.526 39.447-7.807 39.447-28.318v-22.358c.001-35.922-29.12-65.043-65.043-65.043z" fill="#685e68"/><path d="m305.354 278.888-24.928-9.065-24.928 9.065c-19.499 7.091-40.116-7.35-40.116-28.098v-22.358c0-35.923 29.121-65.044 65.044-65.044 35.923 0 65.044 29.121 65.044 65.044v22.358c0 20.748-20.617 35.189-40.116 28.098z" fill="#fb5858"/><g><path d="m280.426 163.388c-3.257 0-6.455.246-9.583.708 31.378 4.634 55.461 31.669 55.461 64.335v22.358c0 13.532-8.772 24.376-20.282 28.318 19.299 6.526 39.447-7.807 39.447-28.318v-22.358c.001-35.922-29.12-65.043-65.043-65.043z" fill="#f44545"/></g></g><g><path d="m336.312 362.332c-6.948-3.216-9.974-11.457-6.757-18.405l34.974-75.554c3.216-6.948 11.456-9.974 18.405-6.757 6.948 3.216 9.974 11.456 6.757 18.405l-34.974 75.554c-3.217 6.948-11.457 9.973-18.405 6.757z" fill="#02905d"/><path d="m382.93 261.616c-4.53-2.1-9.61-1.54-13.48 1.03 3.94 2.61 6.21 7 6.21 11.56 0 1.95-.42 3.93-1.29 5.81l-34.97 75.56c-.254.549-.54 1.074-.854 1.573-1.814 2.88-6.08 2.942-8.002.188 1.009 1.544 2.323 2.908 3.926 3.97.58.38 1.19.73 1.84 1.03 6.95 3.21 15.19.19 18.41-6.76l34.97-75.56c.87-1.88 1.29-3.86 1.29-5.81 0-5.231-2.99-10.241-8.05-12.591z" fill="#017b4e"/><path d="m353.8 390.558c-6.948-3.216-9.974-11.456-6.757-18.405l34.974-75.554c3.216-6.948 11.457-9.974 18.405-6.757 6.948 3.216 9.974 11.457 6.757 18.405l-34.974 75.553c-3.217 6.949-11.457 9.974-18.405 6.758z" fill="#02905d"/><path d="m400.42 289.846c-4.53-2.1-9.61-1.55-13.48 1.03 3.94 2.6 6.2 6.99 6.2 11.56 0 1.95-.41 3.93-1.28 5.81l-34.98 75.55c-.365.789-.795 1.528-1.281 2.213-1.782 2.513-5.453 2.484-7.262.012.965 1.355 2.179 2.552 3.622 3.505.58.39 1.19.73 1.84 1.03 6.95 3.22 15.19.19 18.4-6.76l34.98-75.55c.87-1.89 1.29-3.87 1.29-5.82.001-5.23-2.989-10.24-8.049-12.58z" fill="#017b4e"/><path d="m392.451 373.065c-6.948-3.216-9.974-11.457-6.757-18.405l34.974-75.554c3.216-6.948 11.457-9.974 18.405-6.757 6.948 3.216 9.974 11.456 6.757 18.405l-34.974 75.554c-3.217 6.948-11.457 9.973-18.405 6.757z" fill="#02905d"/><path d="m439.07 272.346c-4.53-2.09-9.6-1.54-13.48 1.03 3.94 2.61 6.21 7 6.21 11.56 0 1.95-.42 3.93-1.29 5.82l-34.97 75.55c-.202.437-.425.858-.665 1.264-1.925 3.24-6.573 3.231-8.509.007 1.04 1.75 2.472 3.286 4.244 4.459.58.38 1.19.73 1.84 1.03 6.95 3.22 15.19.19 18.41-6.76l34.97-75.55c.87-1.89 1.29-3.87 1.29-5.82 0-5.23-2.99-10.24-8.05-12.59z" fill="#017b4e"/></g><path d="m446.369 181.7-38.794-31.602c-14.357-11.695-35.281-10.436-48.132 2.896-8.964 9.299-13.972 21.711-13.972 34.627v53.679h94.415c10.828 0 19.605-8.777 19.605-19.605v-12.384c-.002-10.708-4.82-20.848-13.122-27.611z" fill="#d8ab8c"/><path d="m446.369 181.7-38.794-31.602c-9.266-7.548-21.267-9.692-32.068-6.685 4.59 1.281 8.991 3.498 12.903 6.685l38.794 31.602c8.302 6.763 13.121 16.903 13.121 27.611v12.384c0 10.828-8.777 19.605-19.605 19.605h19.166c10.827 0 19.605-8.777 19.605-19.605v-12.384c-.002-10.708-4.82-20.848-13.122-27.611z" fill="#c38778"/></g><g><path d="m151.446 55.886h-58.14c-9.588 0-17.389 7.801-17.389 17.389v59.321c0 6.195-11.667 26.647-22.477 42.043-.909 1.295-1.387 2.846-1.361 4.429l3.948 249.677c.079 4.758-3.841 10.751-10.569 10.826-2.872 0-5.559-1.132-7.564-3.187-2.007-2.055-3.074-4.768-3.004-7.701l3.946-249.616c.025-1.583-.451-3.134-1.361-4.43-10.809-15.387-22.475-35.837-22.475-42.041v-29.733c0-14.776 13.026-31.302 30.459-31.302 3.668.733 10.24-.417 11.063-6.476-.09-5.847-4.063-8.95-11.063-8.524-24.217 0-45.459 21.636-45.459 46.301v29.733c0 12.776 16.725 38.391 23.801 48.652l-3.907 247.138c-.166 6.945 2.415 13.507 7.268 18.478s11.352 7.708 18.298 7.708c12.949.281 26.143-11.575 25.566-26.125l-3.909-247.199c2.682-3.889 6.75-9.985 10.768-16.75 4.545 9.498 15.927 16.404 22.796 19.868l-3.869 244.695c-.574 12.974 10.936 26.418 25.565 26.186 6.946 0 13.444-2.737 18.298-7.708 4.853-4.971 7.434-11.533 7.269-18.417l-3.87-244.755c8.73-4.403 24.762-14.366 24.763-28.146v-82.945c-.001-9.588-7.802-17.389-17.391-17.389zm2.39 100.334c0 4.651-10.679 12.427-20.254 16.494-2.818 1.189-4.633 3.97-4.584 7.029l3.948 249.677c.069 2.871-.998 5.584-3.005 7.639-2.006 2.055-4.692 3.187-7.564 3.187-4.794-.054-10.661-4.087-10.568-10.887l3.946-249.616c.048-3.052-1.767-5.833-4.576-7.025-9.583-4.069-20.261-11.845-20.261-16.497v-82.946c0-1.317 1.071-2.389 2.389-2.389h8.903v73.458c0 4.142 3.357 7.5 7.5 7.5s7.5-3.358 7.5-7.5v-73.458h10.288v73.458c0 4.142 3.357 7.5 7.5 7.5s7.5-3.358 7.5-7.5v-73.458h8.948c1.317 0 2.39 1.072 2.39 2.389z"/><path d="m340.113 84.544c-94.302 0-171.021 76.72-171.021 171.021s76.72 171.021 171.021 171.021c46.766 0 90.431-18.518 122.949-52.144 2.879-2.978 2.8-7.726-.178-10.605-2.979-2.881-7.727-2.8-10.605.177-29.667 30.677-69.502 47.571-112.166 47.571-86.03 0-156.021-69.991-156.021-156.021s69.991-156.02 156.021-156.02 156.021 69.991 156.021 156.021c0 28.549-7.778 56.472-22.495 80.751-2.146 3.542-1.016 8.154 2.526 10.301 3.544 2.148 8.153 1.017 10.302-2.526 16.137-26.624 24.667-57.235 24.667-88.526.001-94.301-76.719-171.021-171.021-171.021z"/><path d="m451.106 175.885-38.795-31.602c-11.445-9.323-26.569-11.771-39.961-7.685l4.17-13.513c1.221-3.958-.998-8.157-4.956-9.378-3.958-1.222-8.156.998-9.378 4.955l-5.311 17.213-10.56-15.536c-2.328-3.425-6.992-4.315-10.419-1.986-3.426 2.328-4.315 6.993-1.987 10.419l7.278 10.708c-20.281-.313-42.709 5.561-60.601 16.412-40.283-.238-72.673 33.128-72.704 72.539l-.003 51.355c0 12.188 5.96 23.639 15.943 30.632 19.157 13.947 39.449 2.335 56.605-3.612l22.358 8.128c11.334 4.122 23.981 2.503 33.917-4.305l-13.955 30.147c-2.072 4.476-2.523 9.417-1.339 14.134-17.512-3.294-33.955-11.166-47.562-22.984-3.126-2.715-7.864-2.383-10.58.745-2.717 3.127-2.383 7.864.744 10.581 20.877 18.132 47.561 28.197 75.225 28.405-1.392 4.46-1.305 9.224.332 13.683 3.158 7.715 9.904 13.702 20.021 14 8.071 0 15.813-4.595 19.421-12.388l4.921-10.632c4.96 4.385 12.897 7.262 21.705 4.22 5.357-1.967 9.627-5.902 12.023-11.081l34.975-75.553c2.162-4.669 2.55-9.842 1.167-14.742 2.221-10.941 3.069-22.839 1.807-35.412 6.881-4.921 11.379-12.97 11.379-22.056v-12.384c.003-13.021-5.786-25.204-15.88-33.427zm-48.268-19.972 38.795 31.602c6.581 5.362 10.356 13.306 10.356 21.796v12.384c0 6.675-5.43 12.105-12.104 12.105h-86.915v-46.18c0-11.031 4.217-21.48 11.873-29.422 10.062-10.44 26.753-11.443 37.995-2.285zm-114.912 70.273v-27.54l48.026 14.706c2.163 6.264 2.153 19.726 2.018 27.436zm0-43.227v-11.566c16.152 2.113 30.212 10.943 39.283 23.595zm-15 15.687v27.54l-50.043 14.602c.031-8.715-.536-18.124 2.018-27.435zm0 43.166v22.758l-19.991 7.269c-6.962 2.532-14.436 1.545-20.503-2.704-4.539-3.18-7.63-7.723-8.899-12.912zm15 0 49.394 14.413c-1.27 5.189-4.359 9.732-8.898 12.911-6.069 4.25-13.542 5.236-20.505 2.704l-19.991-7.269zm52.184-87.346c2.736 0 5.465.11 8.178.328-6.097 8.716-9.641 18.929-10.225 29.657-8.233-10.763-19.4-19.163-32.304-23.989 10.943-3.949 22.552-5.996 34.351-5.996zm-67.184 16.927v11.566l-39.282 12.029c9.07-12.652 23.129-21.482 39.282-23.595zm55.495 126.739c-6.069 4.251-13.545 5.238-20.509 2.705l-24.92-9.06c-1.654-.602-3.47-.602-5.124 0l-24.931 9.061c-6.965 2.531-14.438 1.546-20.509-2.706-5.807-4.068-9.236-10.368-9.521-17.396 9.402 7.035 22.875 9.638 35.154 5.2l22.364-8.132 22.364 8.132c10.869 4.082 25.309 2.329 35.152-5.198-.285 7.027-3.713 13.327-9.52 17.394zm7.939 48.946 34.976-75.554c.976-1.13 2.28-4.789 8.446-3.102 3.185 1.474 4.576 5.264 3.102 8.448l-34.973 75.554c-1.475 3.185-5.267 4.576-8.449 3.102-3.184-1.475-4.575-5.264-3.102-8.448zm29.039 33.571c-1.475 3.185-5.268 4.577-8.449 3.102-1.13-.977-4.789-2.279-3.101-8.448l34.973-75.553c2.052-1.951 2.449-4.766 8.449-3.102 1.13.977 4.789 2.279 3.101 8.448zm73.625-93.045-34.976 75.554c-.977 1.13-2.278 4.789-8.447 3.102-3.177-1.471-4.569-5.247-3.111-8.427l21.494-46.435c0-.001 0-.001.001-.002l13.489-29.138c2.051-1.95 2.45-4.766 8.449-3.102 1.13.976 4.788 2.278 3.101 8.448zm2.196-32.038c0 3.145-.153 6.281-.44 9.396-10.366-3.914-22.189.781-26.917 10.995l-4.921 10.63c-2.575-2.259-6.441-4.617-11.66-5.353 1.635-4.661 1.607-9.701-.117-14.399-5.835-17.179-31.523-18.831-39.441-1.611l-4.753 10.268v-26.692s87.65-.013 88.015-.028c.149 2.258.234 4.526.234 6.794z"/><circle cx="240.656" cy="346.366" r="7.826"/><circle cx="310.444" cy="335.109" r="7.826"/><circle cx="280.426" cy="371.995" r="7.826"/><path d="m415.762 218.307c4.143 0 7.5-3.358 7.5-7.5s-3.357-7.5-7.5-7.5c-14.94 0-27.095-12.154-27.095-27.094 1.439-13.815-16.631-14.074-15 0 0 23.211 18.884 42.094 42.095 42.094z"/></g></g></svg>