<svg id="Layer_1" viewBox="0 0 48 48" xmlns="http://www.w3.org/2000/svg" data-name="Layer 1"><g fill="none" stroke="#353535" stroke-linecap="round" stroke-width="2"><g stroke-miterlimit="10"><path d="m30.89794 34.0354c-2.53157.02148-10.61034 1.29416-14.86286 7.2136"/><path d="m3.08053 1.30813a6.47727 6.47727 0 0 0 6.47727 6.47727 6.447 6.447 0 0 0 3.55038-1.05884 5.31139 5.31139 0 0 1 5.85379 0 6.447 6.447 0 0 0 3.55038 1.05884 6.47727 6.47727 0 0 0 6.47727-6.47727"/><path d="m1.17221 34.0354c2.53157.02148 10.61034 1.29416 14.86287 7.2136v5.97425"/><path d="m4.39406 5.37947 1.48112 8.94124a15.906 15.906 0 0 1 .212 2.5636c0 6.252-5.05209 7.77561-5.05209 19.21231a44.87771 44.87771 0 0 0 .8369 8.51793l.50448 2.635"/><path d="m27.67609 5.37947-1.48109 8.94124a15.906 15.906 0 0 0 -.212 2.5636c0 6.252 5.0521 7.77561 5.0521 19.21231a44.87765 44.87765 0 0 1 -.83691 8.51793l-.46744 2.635"/></g><path d="m21.53508 27.36125a5.5 5.5 0 0 1 -11 0c0-3.03757 5.5-11.2266 5.5-11.2266s5.5 8.18903 5.5 11.2266z" stroke-linejoin="round"/><path d="m30.93568 12.29262a11.47045 11.47045 0 1 1 .24563 21.26894" stroke-linejoin="round"/><path d="m35.364 15.995v6.882" stroke-linejoin="round"/><path d="m39.952 22.877h-4.588" stroke-linejoin="round"/></g></svg>