<svg id="Capa_1" enable-background="new 0 0 512 512" height="512" viewBox="0 0 512 512" width="512" xmlns="http://www.w3.org/2000/svg"><g><g><g><path d="m454.762 158.918c-24.97 20.46-51.4 32.29-74.97 39.06-13.49 3.87-25.72 11.21-35.64 21.13-6.58 6.58-11.97 14.16-16 22.41-4.04 8.24-6.71 17.16-7.87 26.39-2.42 19.39-11.83 37.24-26.46 50.191l-54.91 48.64c-45.01-6.545-76.715-40.19-76.715-84.17 0-12.55 8.207-33.639 14.174-44.601l17.53-19.79c6.48-7.32 14.18-13.32 22.68-17.81 8.5-4.48 17.82-7.44 27.51-8.65 18.47-2.31 35.64-10.71 48.8-23.87 9.92-9.92 17.26-22.15 21.13-35.64 6.77-23.57 18.6-50 39.06-74.97 58.771 11.76 91.631 46.57 101.681 101.68z" fill="#fff8e6"/><path d="m454.761 158.919-101.681-101.681c17.479-21.316 45.423-39.784 72.963-46.763 23.506-5.961 46.726-3.552 62.879 12.602 35.068 35.068 5.367 103.432-34.161 135.842z" fill="#a4e7ff"/><path d="m215.54 387.44.01-.02c-42.219-18.809-71.667-49.98-90.971-90.971l51.79-58.48c-4.33 11.02-6.7 23.01-6.7 35.56 0 43.98 29.18 81.16 69.24 93.211z" fill="#ffeab7"/><path d="m215.555 387.422-116.568 103.247c-21.776 19.288-54.805 18.288-75.374-2.282-20.57-20.57-21.57-53.598-2.282-75.374l103.247-116.568z" fill="#ffabcd"/></g><path d="m273.445 238.555c-12.275-12.275-32.178-12.275-44.453 0l-29.635 29.635c-12.275 12.275-12.275 32.178 0 44.453 12.275 12.275 32.178 12.275 44.453 0l29.635-29.635c12.275-12.275 12.275-32.178 0-44.453z" fill="#a4e7ff"/></g><g><path d="m278.748 233.252c-15.18-15.18-39.879-15.179-55.059 0l-29.635 29.635c-15.18 15.18-15.18 39.879 0 55.059 7.59 7.591 17.559 11.385 27.53 11.385 9.968 0 19.94-3.796 27.529-11.385l29.635-29.636c7.354-7.353 11.403-17.13 11.403-27.529s-4.049-20.176-11.403-27.529zm-10.606 10.606c4.521 4.521 7.01 10.531 7.01 16.923 0 5.633-1.935 10.967-5.487 15.248l-33.694-33.694c4.281-3.552 9.615-5.487 15.248-5.487 6.392.001 12.402 2.49 16.923 7.01zm-20.628 54.475-33.846-33.846 11.62-11.62 33.846 33.846zm-42.854 9.007c-8.791-8.792-9.292-22.774-1.517-32.166l33.684 33.684c-9.394 7.774-23.375 7.273-32.167-1.518z"/><path d="m494.224 17.777c-11.63-11.63-27.453-17.777-45.756-17.777-34.247 0-75.857 21.579-101.186 52.475-18.561 22.64-32.181 48.77-40.481 77.667-3.469 12.092-10.117 23.298-19.225 32.405-11.923 11.921-27.702 19.639-44.429 21.731-10.552 1.318-20.673 4.5-30.085 9.46-9.42 4.975-17.761 11.526-24.793 19.469l-109.828 123.98c-2.747 3.101-2.46 7.841.641 10.587 3.101 2.747 7.842 2.459 10.588-.641l35.225-39.764 79.715 79.714-110.618 97.973c-8.693 7.702-19.88 11.944-31.498 11.944-12.7 0-24.636-4.941-33.609-13.913-17.733-17.732-18.598-46.33-1.969-65.104l39.552-44.65c2.747-3.101 2.46-7.841-.641-10.587-3.102-2.747-7.842-2.459-10.588.641l-39.553 44.65c-21.878 24.701-20.739 62.326 2.592 85.656 11.806 11.806 27.509 18.307 44.216 18.307 15.288 0 30.007-5.582 41.446-15.716l194.84-172.568c16.009-14.17 26.284-33.659 28.932-54.87 1.056-8.401 3.466-16.484 7.168-24.034 3.697-7.568 8.598-14.431 14.565-20.398 9.108-9.107 20.314-15.755 32.409-19.225 28.895-8.299 55.027-21.918 77.669-40.479 29.2-23.938 50.736-63.8 52.372-96.938.995-20.152-5.115-37.44-17.671-49.995zm2.688 49.255c-1.347 27.292-18.256 59.961-41.798 81.636l-33.511-33.511c-2.929-2.929-7.678-2.929-10.606 0-2.929 2.929-2.929 7.678 0 10.606l32.468 32.468c-19.5 14.656-41.574 25.596-65.75 32.54-14.532 4.168-27.975 12.134-38.877 23.036-7.144 7.143-13.01 15.36-17.432 24.412-4.429 9.032-7.315 18.707-8.579 28.763-2.196 17.593-10.716 33.753-23.992 45.504l-72.976 64.634-81-81 64.639-72.969c5.832-6.587 12.752-12.021 20.563-16.146 7.8-4.111 16.193-6.75 24.945-7.843 20.021-2.504 38.906-11.741 53.176-26.009 10.902-10.901 18.868-24.344 23.037-38.873 6.945-24.177 17.886-46.251 32.544-65.751l32.484 32.484c1.464 1.464 3.384 2.197 5.303 2.197s3.839-.732 5.303-2.197c2.929-2.929 2.929-7.678 0-10.606l-33.526-33.526c22.64-24.556 57.435-41.881 85.141-41.881 14.442 0 26.267 4.503 35.149 13.383 9.614 9.614 14.087 22.617 13.295 38.649z"/><path d="m455.181 93.61c-1.919 0-3.839-.732-5.303-2.197l-29.291-29.291c-2.929-2.929-2.929-7.678 0-10.606 2.929-2.929 7.678-2.929 10.606 0l29.291 29.291c2.929 2.929 2.929 7.678 0 10.606-1.464 1.465-3.384 2.197-5.303 2.197z"/><g><g><path d="m54.399 468.535c-1.919 0-3.839-.732-5.303-2.197l-8.485-8.485c-2.929-2.929-2.929-7.678 0-10.606 2.929-2.929 7.678-2.929 10.606 0l8.485 8.485c2.929 2.929 2.929 7.678 0 10.606-1.464 1.465-3.384 2.197-5.303 2.197z"/><path d="m142.715 380.219c-1.919 0-3.839-.732-5.303-2.197l-8.485-8.485c-2.929-2.929-2.929-7.678 0-10.606 2.929-2.929 7.678-2.929 10.606 0l8.485 8.485c2.929 2.929 2.929 7.678 0 10.606-1.464 1.465-3.384 2.197-5.303 2.197z"/><path d="m88.167 435.818c-.671 0-1.344-.023-2.018-.069-4.133-.284-7.252-3.864-6.969-7.996.284-4.133 3.868-7.261 7.996-6.969 4.145.287 8.2-1.231 11.128-4.159s4.444-6.984 4.159-11.129c-.284-4.132 2.836-7.712 6.969-7.996 4.126-.277 7.712 2.835 7.996 6.969.582 8.471-2.523 16.768-8.518 22.763-5.516 5.517-12.985 8.586-20.743 8.586z"/></g></g></g></g></svg>