<svg id="SVGRoot" enable-background="new" height="64" viewBox="0 0 64 64" width="64" xmlns="http://www.w3.org/2000/svg" xmlns:cc="http://creativecommons.org/ns#" xmlns:dc="http://purl.org/dc/elements/1.1/" xmlns:rdf="http://www.w3.org/1999/02/22-rdf-syntax-ns#"><path d="m55 32a23 23 0 0 1 -23 23 23 23 0 0 1 -23-23 23 23 0 0 1 23-23 23 23 0 0 1 23 23z" fill="#fd5" stroke-linecap="round" stroke-width="2" paint-order="fill markers stroke"/><path d="m32.002 36.01c-6.4835-.01099-9.6943-.13037-11.783.83396-1.0443.48216-1.7287 1.4153-1.9824 2.4569-.25367 1.0417-.23632 2.2052-.23632 3.705 0 2.6468 1.7374 4.9382 4.2831 6.5037s5.9607 2.4902 9.7166 2.4902c3.7558 0 7.1689-.92467 9.7146-2.4902 2.5457-1.5655 4.2851-3.8569 4.2851-6.5037 0-1.4979.02081-2.6572-.22656-3.6952-.24736-1.038-.92764-1.9715-1.9687-2.4511-2.0821-.95922-5.2866-.83854-11.802-.84958z" font-feature-settings="normal" font-variant-alternates="normal" font-variant-caps="normal" font-variant-ligatures="normal" font-variant-numeric="normal" font-variant-position="normal" isolation="auto" mix-blend-mode="normal" paint-order="fill markers stroke" shape-padding="0" text-decoration-color="#000000" text-decoration-line="none" text-decoration-style="solid" text-indent="0" text-orientation="mixed" text-transform="none" white-space="normal"/><path d="m31.998 38.01c6.517.01104 9.8111.1319 10.97.66599.57966.26705.70572.45486.85935 1.0996.15363.64471.17186 1.7306.17186 3.2304 0 1.768-1.1729 3.4729-3.332 4.8006s-5.2443 2.1933-8.6678 2.1933-6.5087-.86558-8.6678-2.1933c-2.1591-1.3277-3.332-3.0326-3.332-4.8006 0-1.4979.02189-2.5844.17968-3.2323.15779-.64795.29214-.84324.87693-1.1132 1.1696-.54001 4.4588-.66135 10.941-.65037z" fill="#77718c" font-feature-settings="normal" font-variant-alternates="normal" font-variant-caps="normal" font-variant-ligatures="normal" font-variant-numeric="normal" font-variant-position="normal" isolation="auto" mix-blend-mode="normal" paint-order="fill markers stroke" shape-padding="0" text-decoration-color="#000000" text-decoration-line="none" text-decoration-style="solid" text-indent="0" text-orientation="mixed" text-transform="none" white-space="normal"/><path d="m32 44c-2.856 0-5.443.39629-7.4023 1.082-.97967.34288-1.8053.7523-2.4492 1.2852-.11347.093896-.21375.20272-.31641.30859.43008.39882.92804.77914 1.5 1.1309 2.1591 1.3277 5.2445 2.1934 8.668 2.1934s6.5089-.86566 8.668-2.1934c.57294-.35232 1.0714-.73324 1.502-1.1328-.10209-.10643-.20477-.21265-.31836-.30664-.64389-.53281-1.4695-.94223-2.4492-1.2852-1.9593-.68577-4.5463-1.082-7.4023-1.082z" font-feature-settings="normal" font-variant-alternates="normal" font-variant-caps="normal" font-variant-ligatures="normal" font-variant-numeric="normal" font-variant-position="normal" isolation="auto" mix-blend-mode="normal" paint-order="fill markers stroke" shape-padding="0" text-decoration-color="#000000" text-decoration-line="none" text-decoration-style="solid" text-indent="0" text-orientation="mixed" text-transform="none" white-space="normal"/><path d="m28 29c-.6 0-1-.4-1-1 0-1.6-1.3-3-3-3s-3 1.3-3 3c0 .6-.4 1-1 1s-1-.4-1-1c0-2.7 2.2-5 5-5s5 2.2 5 5c0 .6-.4 1-1 1z"/><path d="m44 29c-.6 0-1-.4-1-1 0-1.6-1.3-3-3-3s-3 1.3-3 3c0 .6-.4 1-1 1s-1-.4-1-1c0-2.7 2.2-5 5-5s5 2.2 5 5c0 .6-.4 1-1 1z"/><path d="m52 24c-1.0986 0-3.0293.35235-4.9102.92188-.94043.28476-1.8385.61938-2.5742 1.0449-.36788.21277-.69822.44583-.98047.75781s-.53516.74925-.53516 1.2754.25291.96341.53516 1.2754c.28225.31198.61259.54504.98047.75781.73576.42554 1.6338.76016 2.5742 1.0449 1.8809.56953 3.8115.92188 4.9102.92188 2.1973 0 4-1.8027 4-4s-1.8027-4-4-4z" font-feature-settings="normal" font-variant-alternates="normal" font-variant-caps="normal" font-variant-east-asian="normal" font-variant-ligatures="normal" font-variant-numeric="normal" font-variant-position="normal" font-variation-settings="normal" inline-size="0" isolation="auto" mix-blend-mode="normal" paint-order="fill markers stroke" shape-margin="0" shape-padding="0" text-decoration-color="#000000" text-decoration-line="none" text-decoration-style="solid" text-indent="0" text-orientation="mixed" text-transform="none" white-space="normal"/><path d="m12 24c1.0986 0 3.0293.35235 4.9102.92188.94043.28476 1.8385.61938 2.5742 1.0449.36788.21277.69822.44583.98047.75781s.53516.74925.53516 1.2754-.25291.96341-.53516 1.2754c-.28225.31198-.61259.54504-.98047.75781-.73576.42554-1.6338.76016-2.5742 1.0449-1.8809.56953-3.8115.92188-4.9102.92188-2.1973 0-4-1.8027-4-4s1.8027-4 4-4z" font-feature-settings="normal" font-variant-alternates="normal" font-variant-caps="normal" font-variant-east-asian="normal" font-variant-ligatures="normal" font-variant-numeric="normal" font-variant-position="normal" font-variation-settings="normal" inline-size="0" isolation="auto" mix-blend-mode="normal" paint-order="fill markers stroke" shape-margin="0" shape-padding="0" text-decoration-color="#000000" text-decoration-line="none" text-decoration-style="solid" text-indent="0" text-orientation="mixed" text-transform="none" white-space="normal"/><path d="m32 8c-13.243 0-24 10.757-24 24s10.757 24 24 24 24-10.757 24-24c0-5.0908-1.6195-10.05-4.623-14.16a1 1 0 0 0 -1.3965-.2168 1 1 0 0 0 -.2168 1.3965c2.7534 3.7679 4.2363 8.3137 4.2363 12.98 0 12.162-9.8379 22-22 22s-22-9.8379-22-22 9.8379-22 22-22c4.667 0 9.2124 1.4846 12.98 4.2383a1 1 0 0 0 1.3984-.21875 1 1 0 0 0 -.21875-1.3965c-4.1104-3.0039-9.0692-4.623-14.16-4.623z" solid-color="#000000" font-feature-settings="normal" font-variant-alternates="normal" font-variant-caps="normal" font-variant-east-asian="normal" font-variant-ligatures="normal" font-variant-numeric="normal" font-variant-position="normal" font-variation-settings="normal" inline-size="0" isolation="auto" mix-blend-mode="normal" paint-order="fill markers stroke" shape-margin="0" shape-padding="0" text-decoration-color="#000000" text-decoration-line="none" text-decoration-style="solid" text-indent="0" text-orientation="mixed" text-transform="none" white-space="normal"/><path d="m52 26c1.1164 0 2 .88359 2 2s-.88359 2-2 2c-.55821 0-2.6271-.31968-4.332-.83594-.85247-.25813-1.645-.56904-2.1504-.86133-.20726-.11987-.32152-.22074-.41016-.30273.08864-.08199.2029-.18286.41016-.30273.50536-.29229 1.2979-.6032 2.1504-.86133 1.7049-.51626 3.7738-.83594 4.332-.83594z" fill="#5df" font-feature-settings="normal" font-variant-alternates="normal" font-variant-caps="normal" font-variant-east-asian="normal" font-variant-ligatures="normal" font-variant-numeric="normal" font-variant-position="normal" font-variation-settings="normal" inline-size="0" isolation="auto" mix-blend-mode="normal" paint-order="fill markers stroke" shape-margin="0" shape-padding="0" text-decoration-color="#000000" text-decoration-line="none" text-decoration-style="solid" text-indent="0" text-orientation="mixed" text-transform="none" white-space="normal"/><path d="m12 26c-1.1164 0-2 .88359-2 2s.88359 2 2 2c.55821 0 2.6271-.31968 4.332-.83594.85247-.25813 1.645-.56904 2.1504-.86133.20726-.11987.32152-.22074.41016-.30273-.08864-.081993-.2029-.18286-.41016-.30273-.50536-.29229-1.2979-.6032-2.1504-.86133-1.7049-.51626-3.7738-.83594-4.332-.83594z" fill="#5df" font-feature-settings="normal" font-variant-alternates="normal" font-variant-caps="normal" font-variant-east-asian="normal" font-variant-ligatures="normal" font-variant-numeric="normal" font-variant-position="normal" font-variation-settings="normal" inline-size="0" isolation="auto" mix-blend-mode="normal" paint-order="fill markers stroke" shape-margin="0" shape-padding="0" text-decoration-color="#000000" text-decoration-line="none" text-decoration-style="solid" text-indent="0" text-orientation="mixed" text-transform="none" white-space="normal"/><path d="m32 46c-2.6668 0-5.0803.38777-6.7402.96875-.80596.28211-1.4204.61409-1.793.91211 2.1521 1.2835 5.1772 2.1191 8.5332 2.1191 3.3561 0 6.3811-.83558 8.5332-2.1191-.37253-.29801-.98694-.63-1.793-.91211-1.6599-.58098-4.0734-.96875-6.7402-.96875z" fill="#f55" font-feature-settings="normal" font-variant-alternates="normal" font-variant-caps="normal" font-variant-ligatures="normal" font-variant-numeric="normal" font-variant-position="normal" isolation="auto" mix-blend-mode="normal" paint-order="fill markers stroke" shape-padding="0" text-decoration-color="#000000" text-decoration-line="none" text-decoration-style="solid" text-indent="0" text-orientation="mixed" text-transform="none" white-space="normal"/></svg>