<svg clip-rule="evenodd" fill-rule="evenodd" height="512" image-rendering="optimizeQuality" shape-rendering="geometricPrecision" text-rendering="geometricPrecision" viewBox="0 0 512 512" width="512" xmlns="http://www.w3.org/2000/svg"><g id="Layer_x0020_1"><g id="_493698888"><path d="m295 397c-3 0-6-2-7-6l-20-134-17 12c-2 2-5 2-7 1s-4-3-4-6l-13-94-15 96c-1 2-3 4-5 5s-5 0-7-1l-10-9h-40c-3 0-6-3-7-6l-6-28-15 40c-1 2-3 4-5 4-3 1-5 0-7-1l-10-9h-26c-4 0-6-3-7-6l-7-30-15 42c-1 2-3 4-5 4-2 1-5 0-6-1l-10-9h-17c-4 0-7-3-7-7s3-7 7-7h20c1 0 3 0 4 2l4 3 20-55c1-3 4-5 7-4 4 0 6 2 7 5l10 49h24c2 0 4 0 5 2l4 3 20-52c1-3 4-5 7-5 3 1 6 3 6 6l11 46h37c2 0 3 0 5 1l2 3 21-130c1-4 4-6 7-6 4 0 7 2 7 6l17 130 18-12c2-1 4-1 6 0 3 1 4 3 5 5l14 100 17-102c0-3 2-5 4-6 3-1 5 0 7 2l10 9h33c2 0 3 0 5 1l4 4 20-50c1-3 4-5 7-5s6 3 6 6l11 44h86c4 0 7 3 7 7s-3 7-7 7h-92c-3 0-6-3-6-6l-7-28-15 39c-1 2-3 3-5 4s-5 0-6-1l-10-8h-34c-1 0-3-1-4-2l-3-2-21 134c-1 4-4 6-7 6z" fill="#d52f31"/></g></g></svg>