<svg id="Capa_1" enable-background="new 0 0 512 512" height="512" viewBox="0 0 512 512" width="512" xmlns="http://www.w3.org/2000/svg"><g><g id="_x3C_Group_x3E__20_"><path d="m264.771 257.489-6.774-91.703 104.647-16 104.297 16 2.979 190.001-59.404 49.787z" fill="#7f78bd"/><path d="m438.318 375.125-157.117-157.116c-3.455-3.455-5.525-8.055-5.821-12.931l-2.383-39.291-12.12-10-12.88 10 6.774 81.703 160.745 160.085z" fill="#6a61b2"/><path d="m254.41 108.953v-8.453c0-1.223.095-12.026 6.667-12.026h194.887c6.571 0 11.899 5.384 11.899 12.026v3.453l-10 5z" fill="#f2d1a5"/><path d="m261.076 98.953v-10.479h-1.974c-6.642 0-12.026 5.384-12.026 12.026v18.453l108.121 10 112.665-10v-15h-201.786c-2.761 0-5-2.239-5-5z" fill="#f2bb88"/><path d="m339.112 445.92-259.983 2c-3.859-.056-29.456-.857-47.027-22.073-13.078-15.79-13.855-23.404-13.885-28.8v-.82c0-4.785 3.775-8.688 8.51-8.899.134-.006 352.462-.009 352.597-.009z" fill="#ffe07d"/><path d="m389.325 387.319c-.034 0-23.289 0-58.163.001l17.445 17.445c4.404 4.404 3.748 11.67-1.308 15.306-.126.091-.253.182-.379.272-16.129 11.543-35.553 17.578-55.387 17.578h-212.404c-7.847-.772-28.272.59-43.027-21.073-7.278-10.685-10.6-21.635-11.961-29.521-7.937.001-7.399.001-7.413.002-4.736.211-8.51 4.115-8.51 8.899v.82c.03 5.397.807 23.01 13.885 38.8 17.572 21.216 43.168 22.016 47.027 22.073h164.675 134.45l12.146-8.908z" fill="#ffd064"/><path d="m467.549 158.766h9.578c6.462 0 10.7-4.58 10.7-10.23l1-2.749v-16.603c0-5.65-5.238-10.23-11.7-10.23h-231.026c-6.462 0-12.691 4.58-12.691 10.23v19.352c0 5.65 5.238 10.23 11.7 10.23h9.578z" fill="#f2d1a5"/><path d="m486.941 145.786h-218.944-9.852c-6.646 0-12.034-5.388-12.034-12.034v-14.799h-7.966c-6.646 0-12.034 5.388-12.034 12.034v22.765c0 6.646 5.388 12.034 12.034 12.034h9.852 218.944 9.852c6.646 0 12.034-5.388 12.034-12.034v-7.966z" fill="#f2bb88"/><path d="m185.835 407.862c-1.055.732-11.712 6.698-12.936 6.989-11.064 2.638-29.36-1.493-36.592-16.265-.334-.681-1.281-.744-1.709-.118-2.759 4.034-10.344 13.461-22.919 15.584-13.067 2.206-26.521-4.322-34.782-16.724-.361-.542-1.119-.617-1.563-.141-2.268 2.432-5.786 5.564-10.743 7.957-3.616 1.745-16.789 7.338-30.32.608-12.909-6.42-13.851-14.422-14.14-18.394-.304-4.169-1.343-7.902 1.756-10.355 2.373-1.879 5.413-3.007 8.615-3.007l94.227-10 90.058 10z" fill="#daf1a1"/><path d="m181.878 395.447c-16.723 9.447-32.127 2.72-39.968-6.709-3.017-3.628-8.445-4.006-11.854-.744-3.991 3.819-9.771 7.775-17.377 9.058-11.045 1.864-22.365-2.51-30.594-11.398-2.826-3.053-7.528-3.361-10.879-.895-1.615 1.189-3.483 2.356-5.616 3.385-3.616 1.745-16.789 7.338-30.32.608-6.525-3.245-10.753-7.659-13.382-11.746-3.099 2.454-5.062 6.184-4.758 10.352.289 3.971 4.232 14.974 17.14 21.394 13.53 6.729 26.703 1.137 30.32-.608 4.96-2.393 8.479-5.528 10.747-7.961.442-.474 1.196-.399 1.556.141 8.261 12.405 21.717 18.934 34.785 16.729 12.581-2.123 20.167-11.559 22.923-15.59.426-.624 1.37-.561 1.702.117 7.231 14.776 27.957 18.633 38.042 14.675 8.652-3.395 14.204-8.619 14.681-9.319z" fill="#c9eb74"/><path d="m271.708 379.702c0-26.369-21.376-47.745-47.745-47.745-24.437 0-44.586 18.359-47.407 42.037-.223 1.871 3.662 3.776 3.662 5.708 0 26.369 37.872 38.723 43.745 38.745 2.17.008 34.254-1.334 42.254-16.495 3.506-6.644 5.491-14.215 5.491-22.25z" fill="#df646e"/><path d="m243.963 407.447c-26.369 0-47.745-21.376-47.745-47.745 0-8.035 1.994-15.601 5.5-22.245-15.161 8-25.5 23.911-25.5 42.245 0 26.369 21.376 47.745 47.745 47.745 18.334 0 34.245-10.339 42.245-25.5-6.644 3.506-14.21 5.5-22.245 5.5z" fill="#dc4955"/><path d="m307.828 363.996h-278.993c-2 0-11.335-1.23-11.335-9.289-.048-2.451-.448-19.289 11.335-19.289l120.405-10.002 130.016 9.998h9.988z" fill="#f2d1a5"/><path d="m342.191 388.349-63.104 25.141c-6.064 2.421-12.911 1.004-17.647-3.649l-31.654-35.845 51.878-10 46.163 10z" fill="#ffd064"/><path d="m347.828 373.996-16.737-10-13.253 10 4.246 4.246c2.54 2.54 1.652 6.851-1.685 8.18l-35.311 14.068c-6.064 2.421-12.911 1.005-17.647-3.649l-23.248-22.845-14.406-10-15 10 46.654 45.845c4.736 4.654 11.583 6.07 17.647 3.649l63.104-25.141 21.448-8.545z" fill="#ffc250"/><path d="m309.244 335.414-15.664-10-14.324 10 10.046 10.046c3.15 3.15.919 8.536-3.536 8.536h-236.931c-11.495 0-20.841-8.226-21.292-18.52-11.178.607-20.043 8.972-20.043 19.231 0 10.653 9.552 19.289 21.335 19.289h289.003 29.99z" fill="#f2bb88"/><g><path d="m288.814 292.128-79.489-27.296h-140.196c-9.171 0-18.132 1.505-25.669 5.653-7.625 4.196-21.252 54.948-16.329 54.948h17.145l264.978-.019 49.492.132c5.557-.589 14.836-10.776 11.388-20.543-2.578-7.3-7.442-13.911-14.972-21.358-10.132-10.019-21.543-8.687-30.165-10.569-6.109-1.333-36.183 19.052-36.183 19.052z" fill="#ffe07d"/><path d="m375.837 312.702c-.005-.023-.007-.046-.012-.07l-.004-.004c-.505-2.211-1.169-4.597-2.048-7.095-.005-.014-.008-.028-.013-.042-2.57-7.3-6.98-15.53-14.51-22.98-10.13-10.02-21.61-14.36-30.23-16.24-.018-.004-.042-.001-.06-.005-6.076-1.32-10.731-1.426-12.47-1.435h-107.816l32.053 32.053c3.15 3.15.919 8.535-3.535 8.536l-193.152.013c-3.216 0-5.823-2.607-5.823-5.823v-3.905c0-9.043 1.988-17.617 5.528-25.333-20.963 9.621-35.528 30.77-35.528 55.333v.82c0 4.92 3.988 8.908 8.908 8.908l351.621.113c5.558-.589 8.654-4.729 8.654-9.021v-.82c-.009-1.734-.115-6.625-1.563-13.003z" fill="#ffd064"/></g><path d="m168.091 464.766c5.489 4.085 38.027 26.632 89.489 24.638 52.723-2.043 139.036-19.651 183.872-69.339 39.189-43.43 63.048-100.961 63.048-164.065 0-33.084-6.586-64.689-18.473-93.481-.098-.237-.196-.474-.295-.71-.681.757-1.854 1.87-3.599 2.734-2.555 1.321-5.266 1.245-5.266 1.245-11.372 177.744-29.378 174.887-53.325 208.07-3.621 5.017-10.849 5.642-15.224 1.268l-267.92-267.92c-4.378-4.378-3.747-11.615 1.278-15.232 3.318-2.388 6.863-4.455 10.175-6.866 31.049-22.597 69.465-36.384 109.049-36.384 41.557 0 85.337 10.822 117.447 32.34l37.66-.17 5.383-8.764c-43.171-37.998-99.867-61.112-161.871-61.112-62.805 0-120.09 23.633-163.447 62.492-50.049 44.854-70.747 123.994-70.747 196.49 0 12.745.293 11.639 9.617 5.319 9.06-6.141 17.744-8.466 22.852-9.436-.118-2.392-.243-5.799-.243-9.883 0-43.984 14.068-84.676 37.94-117.842 3.617-5.025 10.853-5.656 15.232-1.278l267.915 267.915c4.378 4.378 3.748 11.615-1.278 15.232-33.166 23.872-73.858 37.94-117.842 37.94l-84.086-.013z" fill="#df646e"/><g fill="#dc4955"><path d="m274.517 36.033c-89.341 2.18-122.667 49.074-122.667 49.074s46.368-31.15 107.667-31.074c41.557.051 80.729 12.917 112.839 34.436l65.909.005c-6.703-7.141-10.099-10.304-16.886-16.371h-32.569c-32.11-21.519-72.748-37.083-114.293-36.07z"/><path d="m279.517 480.983c-37.117 0-72.304-8.256-103.83-23.03l-54.901-.009c39.441 27.147 87.23 43.038 138.73 43.038 72.739 0 138.062-31.713 182.93-82.053-43.295 38.591-100.368 62.054-162.929 62.054z"/><path d="m37.452 273.702c-1.876-12.22-2.918-24.957-2.918-37.702 0-62.561 23.463-119.634 62.053-162.93-50.34 44.868-82.053 110.191-82.053 182.93 0 12.745.985 25.334 2.861 37.553 2.774-4.45 8.222-11.914 17.546-18.234z"/><path d="m493.622 183.656c-2.22-7.193-4.751-14.247-7.595-21.137-.098-.237-.196-.474-.295-.71-.681.757-1.854 1.87-3.599 2.734-2.555 1.321-5.266 1.245-5.266 1.245 0 .007-.001.013-.001.02-.002 0-.004 0-.005 0-3.309 0-6.617-.001-9.926-.001l-1.029 19.98-3.609 70.106c-.66 35.787-11.574 80.979-39.931 119.324 3.973-2.473 14.186-12.942 21.973-23.027 25.01-32.389 37.605-72.272 37.605-116.263l2.674-48.083c.064-1.154 1.019-2.057 2.174-2.057 2.539-.001 4.889-.79 6.83-2.131z"/></g></g><g><path d="m325.901 484.082c-21.47 6.238-43.805 9.401-66.384 9.401-39.498 0-77.775-9.641-112.091-28.063h112.112c.011 0 .021-.002.032-.002 56.534-.024 87.613-14.432 122.171-39.305 4.199-3.022 6.846-7.707 7.263-12.853.414-5.119-1.432-10.138-5.063-13.769l-267.916-267.914c-3.632-3.632-8.648-5.481-13.77-5.063-5.146.416-9.83 3.063-12.853 7.263-25.744 35.766-39.351 78.03-39.351 122.223 0 1.321.023 2.681.05 4.043-10.291 2.984-19.591 8.311-27.272 15.381-.523-6.464-.795-12.955-.795-19.424 0-76.864 37.484-149.334 100.271-193.858 3.379-2.396 4.176-7.077 1.78-10.456-2.397-3.378-7.077-4.177-10.456-1.779-32.252 22.87-59.044 53.397-77.48 88.282-19.046 36.041-29.115 76.779-29.115 117.811 0 12.045.872 24.162 2.571 36.066-5.646 9.94-8.888 21.415-8.888 33.639v.82c0 4.712 2.008 8.954 5.201 11.949-3.709 4.508-5.918 10.134-5.918 16.233 0 6.911 2.734 13.409 7.7 18.297 1.407 1.385 2.963 2.611 4.643 3.672-.877 1.462-1.536 3.017-1.995 4.628-5.672 2.587-9.631 8.296-9.631 14.924v.861c.051 9.285 2.146 27.288 15.608 43.543 18.683 22.557 45.056 24.676 52.693 24.788.037 0 .073.001.11.001h49.33c41.741 28.174 90.459 43.063 141.059 43.063 23.996 0 47.739-3.363 70.569-9.997 3.978-1.156 6.265-5.317 5.109-9.295-1.155-3.978-5.318-6.267-9.294-5.11zm-301.29-97.269c-.109-1.499.627-2.63 1.265-3.316 1.165-1.253 2.895-2.001 4.626-2.001h138.086c.32 9.269 2.928 17.962 7.279 25.539-2.173 1.114-4.434 1.885-6.771 2.279-10.099 1.708-20.479-3.391-27.167-13.3-.203-.326-.434-.64-.69-.937-2.137-2.473-5.631-3.277-8.634-1.99-1.509.646-2.748 1.763-3.55 3.159-1.845 2.943-8.112 11.636-18.623 13.41-10.38 1.754-21.323-3.897-27.878-14.394-1.259-2.015-3.397-3.315-5.766-3.504-2.364-.186-4.687.757-6.248 2.547-2.638 3.024-5.735 5.408-9.209 7.083-3.817 1.842-13.771 5.595-23.72.647-10.143-5.043-12.869-13.419-13-15.222zm5.891-20.317c-6.466-.013-15.287-2.99-15.502-11.789 0-6.397 6.012-11.608 13.473-11.774l277.676-.019 23.582 23.582zm153.086 15h28.13l33.173 32.597c-6.276 3.799-13.519 5.852-20.939 5.852-21.636 0-39.351-17.077-40.364-38.449zm49.531 0h111.612l5.555 5.555-73.98 29.473c-3.31 1.318-6.989.541-9.609-2.034zm-163.99-109.164h62.532c4.143 0 7.5-3.358 7.5-7.5s-3.357-7.5-7.5-7.5h-62.532c-1.364 0-2.715.052-4.06.131-.004-.484-.018-.985-.018-1.463 0-41.028 12.631-80.262 36.526-113.46.613-.852 1.446-1.039 1.889-1.075.527-.042 1.283.048 1.952.719l115.149 115.148h-53.897c-4.143 0-7.5 3.358-7.5 7.5s3.357 7.5 7.5 7.5h68.897l55.582 55.582s-272.677.008-274.018.019c-.779 0-1.414-.632-1.414-1.408v-.82c0-29.43 23.961-53.373 53.412-53.373zm-41.251 158.732c-7.98-9.635-10.828-20.097-11.755-27.745 3.3 4.408 8.072 8.798 14.808 12.148 15.887 7.901 31.111 2.234 36.918-.569 2.613-1.261 5.081-2.776 7.388-4.534 8.441 9.294 19.814 14.608 31.417 14.607 2.088 0 4.187-.173 6.273-.525 10.293-1.737 17.848-7.41 22.763-12.521 9.822 9.786 22.908 14.37 35.901 12.178 4.777-.806 9.303-2.521 13.536-5.075 10.006 9.834 23.715 15.915 38.823 15.915 11.449 0 22.597-3.555 31.891-10.091l.342.336c4.617 4.538 10.727 6.95 16.914 6.95 2.955 0 5.929-.55 8.765-1.683l79.97-31.86 11.501 11.501c.67.67.761 1.432.719 1.953-.036.442-.224 1.275-1.075 1.888-32.87 23.659-60.701 36.48-113.547 36.48-.003 0-.006 0-.01 0h-190.232c-4.406-.069-26.407-1.359-41.31-19.353z"/><path d="m494.161 162.651c1.375-2.672 2.166-5.693 2.166-8.899v-22.765c0-10.771-8.763-19.535-19.534-19.535h-1.431v-10.952c0-10.767-8.759-19.526-19.525-19.526h-14.38c-22.895-23.782-49.742-42.605-79.87-55.943-32.244-14.276-66.585-21.514-102.069-21.514-40.516 0-79.217 9.308-115.027 27.666-3.686 1.89-5.142 6.41-3.252 10.096 1.889 3.686 6.408 5.141 10.096 3.253 33.672-17.262 70.07-26.014 108.184-26.014 59.326 0 116.858 22.573 160.474 62.457h-45.403c-34.417-22.534-74.151-34.44-115.071-34.44-44.191 0-86.456 13.608-122.225 39.353-4.199 3.022-6.846 7.707-7.263 12.853-.414 5.119 1.432 10.138 5.063 13.769l267.921 267.921c3.295 3.295 7.733 5.12 12.352 5.12.467 0 .937-.019 1.406-.056 5.142-.413 9.825-3.054 12.852-7.246 26.006-36.036 39.773-78.25 39.825-122.093l4.589-82.867 8.1-.128c9.997 26.615 14.861 54.055 14.861 82.839 0 92.92-54.675 177.823-139.291 216.299-3.771 1.714-5.438 6.161-3.723 9.932 1.257 2.764 3.981 4.397 6.832 4.397 1.038 0 2.093-.217 3.1-.675 43.539-19.798 80.467-51.45 106.791-91.535 27.013-41.134 41.291-88.998 41.291-138.418 0-32.279-6.011-63.659-17.839-93.349zm-33.799-62.151v10.953h-205.786v-10.953c0-2.496 2.03-4.526 4.526-4.526h196.734c2.496 0 4.526 2.03 4.526 4.526zm-315.381-.552c.036-.442.224-1.275 1.074-1.888 33.2-23.896 72.435-36.527 113.462-36.527 29.493 0 58.325 6.668 84.707 19.44h-85.122c-10.767 0-19.526 8.759-19.526 19.526v10.953h-1.431c-10.771 0-19.534 8.763-19.534 19.535v22.765c0 10.771 8.763 19.534 19.534 19.534h2.757l1.4 25.216-96.602-96.601c-.67-.67-.761-1.432-.719-1.953zm224.919 226.153-53.77-53.77h.319c5.149.027 23.074 1.225 37.525 15.514 14.668 14.504 15.897 32.674 15.925 37.858v.398zm97.041-167.815c-5.209 0-35.211 0-40.667 0-4.143 0-7.5 3.358-7.5 7.5s3.357 7.5 7.5 7.5h32.74l-4.552 82.206c-.004.068.001.135-.001.202-.002.071-.011.141-.011.212 0 40.76-12.791 80.029-36.99 113.561-.614.851-1.447 1.037-1.889 1.072-.519.046-1.281-.048-1.951-.718l-32.66-32.66c2.475-2.867 3.939-6.559 3.939-10.638v-.86c-.045-8.563-2.12-30.431-20.378-48.485-17.983-17.782-39.555-19.804-48.033-19.848h-15.358l-42.923-42.923-2.283-41.122h135.347c4.143 0 7.5-3.358 7.5-7.5s-3.357-7.5-7.5-7.5c-7.98 0-151.649 0-153.126 0-2.5 0-4.534-2.034-4.534-4.534v-22.765c0-2.5 2.034-4.535 4.534-4.535h238.647c2.5 0 4.534 2.034 4.534 4.535v22.765c0 2.5-2.034 4.534-4.534 4.534h-9.851z"/></g></g></svg>