<svg id="Capa_1" enable-background="new 0 0 512 512" height="512" viewBox="0 0 512 512" width="512" xmlns="http://www.w3.org/2000/svg"><g><path d="m308.977 274.404-45.645-26.353 92.87-160.855c7.277-12.604 23.394-16.923 35.999-9.646 12.604 7.277 16.923 23.394 9.646 35.999z" fill="#ffcbbe"/><path d="m181.13 452.933c-14.067-3.736-22.442-18.167-18.706-32.234l47.674-179.517 50.94 13.528-47.674 179.517c-3.736 14.067-18.167 22.441-32.234 18.706z" fill="#ffbbae"/><path d="m492.42 458.92-27.32 17.92-14.48-6.81-16.93-7.97-6.67-3.14-13.28-31.44-16.78-39.7c-3.01-7.14-12.15-9.3-17.97-4.18-8.71 7.66-17.91 13.86-27.09 18.43-.38.2-.76.39-1.14.57 0 0-56.92-8.42-55.77-51.42l31.99-31.09 14.8-14.38 49.52-48.12c15.63 2.95 26.59 13.48 30.31 29.36 3.27 13.91.23 4.95 70.81 171.97z" fill="#c2eafb"/><path d="m351.9 402.03c-.38.2-.76.39-1.14.57-4.3 2.09-8.59 3.82-12.82 5.19-2.72.88-4.98 2.8-6.36 5.29l-25.34 45.84-42.08 25.45-26.74-25.46 40.16-72.63c-1.69-4.72-2.63-9.91-2.84-15.42l20.25-19.68c13.75 19.03 32.2 36.72 56.91 50.85z" fill="#91d4f2"/><path d="m394.55 304.42-69.03 69.03-3.35 3.35c-.74.74-1.51 1.46-2.29 2.13 0 0-87.5-30.47-63.55-142.51l6.35-7.46 6.17-7.26 21.62-25.43 97.03 55.45c19.15 10.94 22.65 37.1 7.05 52.7z" fill="#97aabb"/><path d="m319.88 378.93c-16.53 14.27-41.52 13.56-57.21-2.13l-57.62-80.05 24.88-29.27 25.66-30.19.74-.87c2.57 39.04 15.12 98.84 63.55 142.51z" fill="#7a8fa5"/><path d="m477.834 501.778c-15.33 6.47-32.99-.7-39.47-16.02l-11.341-26.84h3.061 60.23 2.111l1.429 3.39c6.478 15.314-.706 32.993-16.02 39.47z" fill="#ffddcf"/><path d="m306.246 458.918-16.782 30.37c-7.986 14.434-26.221 19.908-40.93 11.79-13.474-7.44-20.669-24.84-11.106-42.17l4.416.01h60.24z" fill="#ffcbbe"/><path d="m294.18 292.91c-4.84 4.84-10.67 8.09-16.84 9.75-2.36.63-4.78 1.03-7.21 1.19 0 0-31.75-9.07-14.54-66.56l.74-.87 6.35-7.46c1.92-.25 3.84-.35 5.77-.31 9.34.22 18.61 3.9 25.73 11.02 14.7 14.7 14.7 38.54 0 53.24z" fill="#ffcbbe"/><path d="m270.13 303.85c-6.07.41-12.23-.64-17.89-3.16-4.1-1.83-7.94-4.42-11.3-7.78-7.06-7.05-10.72-16.2-11.01-25.43l25.66-30.19.74-.87c1.25 18.98 4.85 42.87 13.8 67.43z" fill="#ffbbae"/><ellipse cx="142.47" cy="54.287" fill="#d97c41" rx="60.235" ry="46.76" transform="matrix(.988 -.155 .155 .988 -6.676 22.661)"/><ellipse cx="265.393" cy="114.529" fill="#ffcbbe" rx="36.687" ry="36.687" transform="matrix(.993 -.116 .116 .993 -11.501 31.582)"/><ellipse cx="76.354" cy="266.995" fill="#ffddcf" rx="36.687" ry="36.687" transform="matrix(.707 -.707 .707 .707 -166.43 132.191)"/><path d="m248.934 287.538c-8.75 7.06-18.12 12.81-27.86 17.27h-.01s-256.91 40.33-98.34-228.41c51.18-22.61 112.18-10.13 147.96 34.23 10.47 12.98 17.82 27.5 22.14 42.68 13.45 47.15-2.26 100.66-43.89 134.23z" fill="#ffddcf"/><path d="m221.064 304.808c-36.61 16.8-78.48 15.47-112.62-2.79-13.92-7.44-26.55-17.69-37.02-30.68-43.01-53.32-33.27-132.53 21.75-176.91 9.25-7.47 19.2-13.47 29.55-18.03-28.09 55-101.89 230.19 98.34 228.41z" fill="#ffcbbe"/><path d="m239.706 87.326c-16.641 7.791-42.798 13.958-78.442 11.772-9.09-.56-17.57 5.32-20.45 14.03-5.92 17.86-13.94 34.33-22.95 49.23-106.39-1.63-38.47-107.29-38.47-107.29 9.55-4.31 20.22-5.56 30.36-3.18.07.01.14.03.22.05 12.141 2.872 25.617.349 36.95-8.91 9.06-7.46 21.07-10.24 32.16-7.62 22.36 5.29 44.18 16.42 58.28 33.9 4.842 6.005 9.328 14.748 2.342 18.018z" fill="#e4996d"/><path d="m117.864 162.358c-19.55 32.343-41.516 58.829-58.327 74.846-7.582 7.224-15.342.379-21.443-7.176-40.508-50.229-23.333-126.232 30.77-168.55 3.28-2.58 6.82-4.73 10.53-6.41-3.14 31.88-.45 80.83 38.47 107.29z" fill="#d97c41"/><g fill="#ffa1ac"><ellipse cx="127.649" cy="258.422" rx="28.92" ry="23.03" transform="matrix(.707 -.707 .707 .707 -145.344 165.952)"/><ellipse cx="238.491" cy="147.581" rx="28.92" ry="23.03" transform="matrix(.707 -.707 .707 .707 -34.503 211.863)"/></g></g><g><path d="m500.111 458.925-29.881-70.712c-3.855-9.123-17.648-3.296-13.793 5.828l24.056 56.926h-49.027l-28.071-66.434c-4.909-11.647-19.987-15.503-29.782-6.886-12.062 10.612-25.317 18.442-38.337 22.645-4.502 1.456-8.264 4.573-10.596 8.782l-23.154 41.893h-51.593l30.956-55.99c16.493 3.817 33.902-.862 46.242-13.203l72.252-72.252c7.618-7.618 11.809-17.647 11.965-28.193 3.194 6.794 2.946 12.967 8.367 25.813l24.006 56.809c3.855 9.124 17.648 3.296 13.793-5.827l-24.004-56.806c-1.98-4.691-3.654-10.003-5.119-16.237-3.899-16.636-14.567-27.858-28.477-32.87-5.405-5.573-5.365-4.929-51.731-31.419l59.665-103.347c22.39-38.709-36.189-72.537-58.523-33.796l-46.597 80.706c-1.272-7.146-2.935-13.449-5.128-19.801 14.646-15.846 15.788-40.349 1.896-57.57-12.214-15.142-32.79-20.072-50.186-13.441-9.199-14.103-21.695-26.176-41.509-35.659-8.064-26.166-39.518-42.204-73.719-36.859-29.782 4.656-52.912 23.927-57.95 47.643-15.91 7.26-40.82 31.005-54.861 60.965-4.203 8.969 9.355 15.323 13.558 6.354 8.831-18.844 22.418-35.521 38.774-48.389 9.521-7.495 22.286-11.026 34.682-8.12 14.526 3.435 30.426.28 43.369-10.396 7.186-5.918 16.764-8.199 25.624-6.103 22.629 5.355 43.859 16.54 57.505 35.798-16.058 7.758-40.334 15.038-73.11 13.022-12.495-.747-23.998 7.099-27.983 19.125-18.622 56.203-58.689 98.312-84.044 120.621-21.042-21.698-30.64-52.741-24.178-86.808 1.846-9.73-12.865-12.52-14.711-2.79-7.026 37.035 2.353 73.913 28.854 100.719-10.171 15.598-9.712 36.753 2.503 51.896 14.107 17.499 38.425 21.105 56.665 10.341 23.615 14.35 51.995 21.34 81.598 18.412l-25.242 95.064c-11.487 43.221 53.833 60.572 65.322 17.351l20.323-76.534c16.264 22.598 15.707 21.917 16.369 22.577 2.96 2.961 6.232 5.497 9.737 7.584l-36.879 66.703c-24.047 43.488 41.673 79.814 65.731 36.332l42.042-76.069c.474-.856 1.242-1.506 2.1-1.784 14.951-4.827 30.035-13.697 43.623-25.651 1.98-1.743 5.08-.946 6.097 1.465l41.328 97.809c19.354 45.763 88.539 16.524 69.183-29.237zm-357.979-421.399c-9.151 7.541-20.193 9.793-30.482 7.362-5.629-1.346-11.789-1.746-18.06-1.057 15.187-30.664 68.209-39.219 92.338-14.083-1.716-.475-3.449-.925-5.203-1.34-13.386-3.167-27.813.24-38.593 9.118zm220.162 53.606c12.433-21.569 45.055-2.73 32.589 18.82l-59.698 103.405-30.688-17.533c.107-1.658.184-3.319.228-4.983zm-71.684 155.971c20.466 24.967-7.815 60.585-36.916 45.879 15.239-12.349 27.982-27.961 36.916-45.879zm.206-118.546c-8.156-16.073-19.707-30.372-33.881-41.799 25.045-7.26 46.191 19.282 33.881 41.799zm-239.9 124.352c8.258 16.462 19.805 30.682 33.594 41.918-24.919 7.066-45.927-19.142-33.594-41.918zm116.241 56.09c-45.889-.005-87.165-26.467-105.396-68.19 26.662-23.871 66.976-67.331 86.141-125.174 1.821-5.497 7.235-9.253 12.853-8.89 35.04 2.148 61.438-5.5 79.276-13.886 21.432 14.524 37.874 36.456 45.308 62.58 21.952 76.951-39.168 153.56-118.182 153.56zm38.827 122.887c-6.396 24.065-42.775 14.403-36.378-9.662l26.953-101.506c4.634-1.034 9.228-2.313 13.761-3.836l19.14 26.599zm18.663-120.729c5.451-2.54 10.775-5.451 15.934-8.733 46.106 33.986 99.488-32.505 56.367-70.206 2.369-6.625 4.207-13.418 5.509-20.315l80.882 46.219c14.839 8.48 17.544 28.728 5.457 40.813l-72.252 72.253c-13.324 13.323-34.857 13.509-48.395.404zm57.987 173.99c-13.588 24.558-51.11 6.877-40.745-19.206h51.36zm162.085-2.813-6.926-16.393h48.961c9.828 27.348-30.715 43.158-42.035 16.393z"/><path d="m107.978 245.731c-1.975 0-3.949-.753-5.456-2.26-8.528-8.529-8.528-22.407 0-30.937 4.132-4.133 9.626-6.408 15.469-6.408s11.337 2.275 15.469 6.408c3.013 3.013 3.012 7.898-.001 10.911-3.013 3.012-7.898 3.013-10.912-.001-2.52-2.519-6.594-2.519-9.114 0-2.513 2.513-2.513 6.602 0 9.116 3.013 3.013 3.012 7.898-.001 10.911-1.505 1.506-3.48 2.26-5.454 2.26z"/><path d="m197.484 156.224c-1.975 0-3.949-.753-5.456-2.26-4.132-4.132-6.407-9.625-6.407-15.468 0-5.844 2.275-11.337 6.408-15.469 4.132-4.132 9.626-6.408 15.469-6.408s11.337 2.276 15.469 6.409c3.013 3.013 3.012 7.898-.001 10.911-3.013 3.012-7.898 3.013-10.912-.001-4.054-4.052-11.002-1.149-11.002 4.558 0 1.721.67 3.34 1.888 4.558 3.013 3.013 3.012 7.898-.001 10.911-1.506 1.506-3.481 2.259-5.455 2.259z"/><path d="m163.298 213.271c-4.251-.292-7.461-3.974-7.169-8.226.291-4.251 3.977-7.454 8.226-7.169 7.423.493 13.525-5.62 13.017-13.017-.292-4.252 2.918-7.934 7.169-8.226 16.665-1.133 8.016 38.629-21.243 36.638z"/></g></svg>