<svg height="512" viewBox="0 0 54 60" width="512" xmlns="http://www.w3.org/2000/svg"><g id="Page-1" fill="none" fill-rule="evenodd"><g id="014---Sick" fill-rule="nonzero"><g id="Icons" transform="translate(1 1)"><path id="Shape" d="m52 44s-3.59 7.89-13.79 7.26c-.8736489-.896498-1.8622553-1.6732602-2.94-2.31-1.14 1.18-3.8 3.05-9.27 3.05s-8.13-1.87-9.27-3.05c-1.0777447.6367398-2.0663511 1.413502-2.94 2.31-10.2.63-13.79-7.26-13.79-7.26s7 1 5-16c-2.8-23.84 12-28 21-28s23.8 4.16 21 28c-2 17 5 16 5 16z" fill="#91562d"/><path id="Shape" d="m47 28c2.8-23.84-12-28-21-28-.484 0-.987.015-1.5.041 9.042.466 22.15 5.4 19.5 27.959-2 17 5 16 5 16-2.1864227 4.0682137-6.2693465 6.7668728-10.869 7.184.026.026.053.049.079.076 10.2.63 13.79-7.26 13.79-7.26s-7 1-5-16z" fill="#6d4122"/><path id="Shape" d="m35.27 48.95c-1.14 1.18-3.8 3.05-9.27 3.05s-8.13-1.87-9.27-3.05c1.3477052-.8042622 2.7796116-1.4581773 4.27-1.95 1.1417646-.5855488 1.8986336-1.7208524 2-3v-3.15c.661884.1007711 1.3304895.1509165 2 .15h2c.6695105.0009165 1.338116-.0492289 2-.15v3.15c.1013664 1.2791476.8582354 2.4144512 2 3 1.4903884.4918227 2.9222948 1.1457378 4.27 1.95z" fill="#ffe0b2"/><path id="Shape" d="m40.94 56.89c.0294427.2832746-.0625639.5657548-.2531908.7773506-.1906269.2115959-.4620086.3324768-.7468092.3326494h-27.88c-.2848006-.0001726-.5561823-.1210535-.7468092-.3326494-.1906269-.2115958-.2826335-.494076-.2531908-.7773506.2445998-2.1321318 1.2073555-4.117595 2.73-5.63.8736489-.896498 1.8622553-1.6732602 2.94-2.31 1.14 1.18 3.8 3.05 9.27 3.05s8.13-1.87 9.27-3.05c1.0777447.6367398 2.0663511 1.413502 2.94 2.31 1.5226445 1.512405 2.4854002 3.4978682 2.73 5.63z" fill="#ffdc00"/><path id="Shape" d="m38.21 51.26c-.8736489-.896498-1.8622553-1.6732602-2.94-2.31-.4164103.4242754-.8801068.7993931-1.382 1.118.4676366.3663612.9093585.764646 1.322 1.192 1.5226445 1.512405 2.4854002 3.4978682 2.73 5.63.0294427.2832746-.0625639.5657548-.2531908.7773506-.1906269.2115959-.4620086.3324768-.7468092.3326494h3c.2848006-.0001726.5561823-.1210535.7468092-.3326494.1906269-.2115958.2826335-.494076.2531908-.7773506-.2445998-2.1321318-1.2073555-4.117595-2.73-5.63z" fill="#fec108"/><path id="Shape" d="m40 19.38c0 9.092.116 9.674-.35 11.62-1.3879468 5.8632208-6.624741 10.0029791-12.65 10-1.3351978.0575812-2.6728647.0074187-4-.15-6.3314747-.9887982-10.9993962-6.4417792-11-12.85v-8c-.0023494-1.0353858.7885194-1.900127 1.82-1.99 3.79-.33 12.56-1.74 17.18-7.9 0 0 1.79 4.46 7.9 7.49.6735365.3378336 1.0991087 1.0264868 1.1 1.78z" fill="#ffe0b2"/><g fill="#dfc49c"><path id="Shape" d="m38.9 17.6c-6.11-3.03-7.9-7.49-7.9-7.49-.5424327.7196562-1.1485451 1.3890239-1.811 2 1.7616027 2.3443551 4.0640512 4.2278959 6.711 5.49.6735365.3378336 1.0991087 1.0264868 1.1 1.78 0 9.092.116 9.674-.35 11.62-1.3413925 5.6827579-6.3149431 9.7684376-12.15 9.981.626.019-.222.019 2.5.019 6.0251316.0026121 11.2617255-4.1369879 12.65-10 .479-2 .35-2.755.35-11.62-.0008913-.7535132-.4264635-1.4421664-1.1-1.78z"/><path id="Shape" d="m12.35 31h-1.35c-1.65685425 0-3-1.3431458-3-3 .00874737-1.6532174 1.34678258-2.9912526 3-3h1v3c-.0012074 1.0102551.1162642 2.0171549.35 3z"/><path id="Shape" d="m44 28c0 1.6568542-1.3431458 3-3 3h-1.35c.2337358-.9828451.3512074-1.9897449.35-3v-3h1c.6677529.000936 1.3158018.2263443 1.84.64.7362911.5604664 1.1659909 1.4346832 1.16 2.36z"/></g></g><g id="Icons_copy" fill="#000"><path id="Shape" d="m12.7 53.261c-.8974608 1.3534315-1.4583818 2.9017929-1.636 4.516-.0616912.5669364.1208368 1.1333334.5019458 1.5575723.3811089.424239.9247717.6662157 1.4950542.6654277h27.878c.56976-.0000649 1.1126129-.2424109 1.4930555-.6665452.3804425-.4241342.5625786-.9900383.5009445-1.5564548-.1786174-1.6189445-.7423373-3.1715746-1.644-4.528 5.296386-.1964595 10.095212-3.1755263 12.621-7.835.1442733-.3297155.1018086-.7113394-.1114155-1.0012748-.2132242-.2899354-.5648563-.4441916-.9225845-.4047252-.7841002.0057006-1.531658-.3310108-2.047-.922-1.162-1.176-2.943-4.555-1.836-13.969 1.155-9.832-.523-17.363-4.988-22.382-5.212-5.86-12.891-6.735-17.005-6.735s-11.793.875-17 6.735c-4.47 5.019-6.148 12.55-4.993 22.382 1.107 9.414-.674 12.793-1.836 13.969-.51245119.5848264-1.25142615.9213532-2.029.924-.36065547-.050933-.72048079.0982564-.93928745.389444-.21880665.2911876-.26198494.6783147-.11271255 1.010556 2.51862252 4.6633594 7.31382046 7.648855 12.61 7.851zm.355 4.739c.226487-1.9138678 1.0921909-3.6953081 2.457-5.056.012-.013.025-.022.036-.035.6265452-.6378068 1.31872-1.2076359 2.065-1.7 1.467 1.228 4.323 2.791 9.387 2.791s7.919-1.563 9.387-2.8c.7473645.49556 1.4405135 1.06838 2.068 1.709l.025.025c1.3678153 1.3628262 2.2344442 3.1482439 2.459 5.066zm-.895-26.9999852-.16-.0000148c-.7970226.0030636-1.5192282-.4690211-1.8362365-1.2002941-.31700821-.731273-.16785166-1.5810949.3792365-2.1607059.3734177-.4095018.9028111-.6416792 1.457-.639v2c.0050302.6696529.0585031 1.3380644.16 2.0000148zm1.84-2.0000148v-8c-.0083398-.5176522.3843323-.9539545.9-1 3.514-.3 11.858-1.6 16.92-7.123 1.8855883 2.8641113 4.5251967 5.152141 7.628 6.612.3356809.1682738.5477325.5115034.548.887v8.624c-.0071604 6.6228876-5.3731152 11.9906316-11.996 12h-2c-6.624447-.0071648-11.9928352-5.375553-12-12zm28 0v-2c.4489866.0005408.8843327.1543583 1.234.436.4876282.3714132.7715205.9510575.766 1.564 0 1.1045695-.8954305 2-2 2h-.16c.1014969-.6619356.1549698-1.3303471.16-2zm-17 16v-2.051c.332.024.662.051 1 .051h2c.338 0 .668-.027 1-.051v2.051c.1009957 1.6601499 1.0718863 3.1432966 2.553 3.9.0423349.0210749.0861114.0391202.131.054.9706471.3225648 1.9173302.7132011 2.833 1.169-1.342.91-3.67 1.877-7.517 1.877s-6.175-.967-7.517-1.883c.9158664-.4550848 1.8625223-.8453756 2.833-1.168.0448886-.0148798.0886651-.0329251.131-.054 1.4796408-.7558097 2.4502839-2.2366772 2.553-3.895zm-20.485-.43c2.573-2.51 3.407-7.788 2.478-15.687-1.085-9.24.428-16.244 4.5-20.819 4.689-5.276 11.729-6.064 15.507-6.064s10.818.788 15.511 6.064c4.068 4.575 5.581 11.579 4.5 20.819-.929 7.9-.095 13.177 2.478 15.687.5393826.53624 1.1910493.9460933 1.908 1.2-2.6556066 3.7921004-7.1253332 5.8885579-11.739 5.506-2.0860433-1.9089681-4.5627496-3.3408033-7.258-4.196-.7839183-.4169422-1.3088179-1.196793-1.4-2.08v-2.332c4.9647639-1.0996922 8.9468536-4.7979481 10.41-9.668h.59c2.209139 0 4-1.790861 4-4 .0089096-1.2329401-.5626388-2.3982617-1.543-3.146-.7009839-.55045-1.5657286-.8510165-2.457-.854v-4.619c-.0038372-1.1351224-.6461474-2.1714808-1.661-2.68-5.652-2.8-7.395-6.928-7.41-6.966-.1340453-.335858-.4389716-.5731816-.7974606-.6206622-.3584889-.0474806-.7146832.1022799-.9315394.3916622-4.408 5.876-12.984 7.207-16.467 7.507-1.5522581.1271328-2.7439542 1.4295829-2.733 2.987v4c-2.209139 0-4 1.790861-4 4s1.790861 4 4 4h.59c1.4631464 4.8700519 5.4452361 8.5683078 10.41 9.668v2.332c-.091354.8831447-.6162041 1.662922-1.4 2.08-2.6931643.8540856-5.168129 2.2841941-7.253 4.191-4.61371123.3812616-9.08311995-1.7148682-11.74-5.506.71649284-.2524431 1.36812167-.6605649 1.908-1.195z"/><path id="Shape" d="m25 32c0 .5522847.4477153 1 1 1h2c.5522847 0 1-.4477153 1-1s-.4477153-1-1-1h-2c-.5522847 0-1 .4477153-1 1z"/><path id="Shape" d="m31.293 33.879c-.3904999-.3903819-1.0235001-.3903819-1.414 0-.3143414.3169161-.5535525.7003373-.7 1.122h-4.361c-.1464475-.4216627-.3856586-.8050839-.7-1.122-.3907415-.3904653-1.0240347-.3902414-1.4145.0005-.3904653.3907415-.3902414 1.0240347.0005 1.4145.3903819.3904999.3903819 1.0235001 0 1.414-.3907414.3904653-.3909653 1.0237585-.0005 1.4145.3904653.3907414 1.0237585.3909653 1.4145.0005.3143414-.3169161.5535525-.7003373.7-1.122h4.364c.1464475.4216627.3856586.8050839.7 1.122.3907415.3904653 1.0240347.3902414 1.4145-.0005.3904653-.3907415.3902414-1.0240347-.0005-1.4145-.3903819-.3904999-.3903819-1.0235001 0-1.414.1873799-.1879661.2923503-.4427124.2917876-.7081218s-.1066123-.5197084-.2947876-.7068782z"/><path id="Shape" d="m22 29c.4043959-.0000863.7689341-.2437275.923678-.6173454.1547439-.373618.0692299-.8036603-.216678-1.0896546l-2-2c-.3923789-.3789722-1.0160848-.3735524-1.4018186.0121814s-.3911536 1.0094397-.0121814 1.4018186l.293.293h-1.586c-.5522847 0-1 .4477153-1 1s.4477153 1 1 1z"/><path id="Shape" d="m31.076 28.383c.1548963.3735907.5195709.6171018.924.617h4c.5522847 0 1-.4477153 1-1s-.4477153-1-1-1h-1.586l.293-.293c.3789722-.3923789.3735524-1.0160848-.0121814-1.4018186s-1.0094397-.3911536-1.4018186-.0121814l-2 2c-.2861653.2859855-.3718179.7162224-.217 1.09z"/><path id="Shape" d="m23 24c1.6568542 0 3-1.3431458 3-3 0-.5522847-.4477153-1-1-1s-1 .4477153-1 1-.4477153 1-1 1-1 .4477153-1 1 .4477153 1 1 1z"/><path id="Shape" d="m31 24c.5522847 0 1-.4477153 1-1s-.4477153-1-1-1-1-.4477153-1-1-.4477153-1-1-1-1 .4477153-1 1c0 1.6568542 1.3431458 3 3 3z"/></g></g></g></svg>